ScienceGothic-BlkS.ufo
<glyph name="exclam" format="2">
  <advance width="937"/>
  <unicode hex="0021"/>
  <outline>
    <contour>
      <point x="90" y="135" type="line" smooth="yes"/>
      <point x="74.1534" y="44.448"/>
      <point x="115.448" y="-6"/>
      <point x="206" y="-6" type="qcurve" smooth="yes"/>
      <point x="494" y="-6" type="line" smooth="yes"/>
      <point x="584" y="-6"/>
      <point x="644.25" y="45"/>
      <point x="660" y="135" type="qcurve" smooth="yes"/>
      <point x="675" y="224" type="line" smooth="yes"/>
      <point x="690.847" y="313.797"/>
      <point x="648.552" y="364"/>
      <point x="558" y="364" type="qcurve" smooth="yes"/>
      <point x="271" y="364" type="line" smooth="yes"/>
      <point x="181" y="364"/>
      <point x="120.75" y="313.75"/>
      <point x="105" y="226" type="qcurve" smooth="yes"/>
    </contour>
    <contour>
      <point x="194" y="462" type="line"/>
      <point x="670" y="462" type="line"/>
      <point x="903" y="1400" type="line"/>
      <point x="287" y="1400" type="line"/>
    </contour>
  </outline>
</glyph>
<glyph name="percent" format="2">
  <advance width="2156"/>
  <unicode hex="0025"/>
  <outline>
    <contour>
      <point x="363" y="614" type="qcurve" smooth="yes"/>
      <point x="753" y="614" type="line" smooth="yes"/>
      <point x="863.926" y="614"/>
      <point x="997.626" y="689.055"/>
      <point x="1018" y="803" type="qcurve" smooth="yes"/>
      <point x="1092" y="1232" type="line" smooth="yes"/>
      <point x="1111.62" y="1342.17"/>
      <point x="997.644" y="1414"/>
      <point x="892" y="1414" type="qcurve" smooth="yes"/>
      <point x="502" y="1414" type="line" smooth="yes"/>
      <point x="396.356" y="1414"/>
      <point x="259.62" y="1342.17"/>
      <point x="240" y="1232" type="qcurve" smooth="yes"/>
      <point x="166" y="803" type="line" smooth="yes"/>
      <point x="145.626" y="689.81"/>
      <point x="252.074" y="614"/>
    </contour>
    <contour>
      <point x="471" y="866" type="line"/>
      <point x="471" y="866"/>
      <point x="471" y="866"/>
      <point x="471" y="866" type="qcurve"/>
      <point x="522" y="1162" type="line"/>
      <point x="522" y="1162"/>
      <point x="522" y="1162"/>
      <point x="522" y="1162" type="qcurve"/>
      <point x="786" y="1162" type="line"/>
      <point x="786" y="1162"/>
      <point x="786" y="1162"/>
      <point x="786" y="1162" type="qcurve"/>
      <point x="735" y="866" type="line"/>
      <point x="735" y="866"/>
      <point x="735" y="866"/>
      <point x="735" y="866" type="qcurve"/>
    </contour>
    <contour>
      <point x="1519" y="1400" type="line"/>
      <point x="357" y="0" type="line"/>
      <point x="650" y="0" type="line"/>
      <point x="1812" y="1400" type="line"/>
    </contour>
    <contour>
      <point x="1411" y="-8" type="qcurve" smooth="yes"/>
      <point x="1801" y="-8" type="line" smooth="yes"/>
      <point x="1911.93" y="-8"/>
      <point x="2045.63" y="67.0554"/>
      <point x="2066" y="181" type="qcurve" smooth="yes"/>
      <point x="2140" y="610" type="line" smooth="yes"/>
      <point x="2159.62" y="720.172"/>
      <point x="2045.64" y="792"/>
      <point x="1940" y="792" type="qcurve" smooth="yes"/>
      <point x="1550" y="792" type="line" smooth="yes"/>
      <point x="1444.36" y="792"/>
      <point x="1307.62" y="720.172"/>
      <point x="1288" y="610" type="qcurve" smooth="yes"/>
      <point x="1214" y="181" type="line" smooth="yes"/>
      <point x="1193.63" y="67.81"/>
      <point x="1300.07" y="-8"/>
    </contour>
    <contour>
      <point x="1519" y="244" type="line"/>
      <point x="1519" y="244"/>
      <point x="1519" y="244"/>
      <point x="1519" y="244" type="qcurve"/>
      <point x="1570" y="540" type="line"/>
      <point x="1570" y="540"/>
      <point x="1570" y="540"/>
      <point x="1570" y="540" type="qcurve"/>
      <point x="1834" y="540" type="line"/>
      <point x="1834" y="540"/>
      <point x="1834" y="540"/>
      <point x="1834" y="540" type="qcurve"/>
      <point x="1783" y="244" type="line"/>
      <point x="1783" y="244"/>
      <point x="1783" y="244"/>
      <point x="1783" y="244" type="qcurve"/>
    </contour>
  </outline>
</glyph>
<glyph name="parenleft" format="2">
  <advance width="819"/>
  <unicode hex="0028"/>
  <outline>
    <contour>
      <point x="645" y="-256" type="line"/>
      <point x="599.625" y="-179.5"/>
      <point x="539.125" y="21.1875"/>
      <point x="511.375" y="250.312"/>
      <point x="517.625" y="498.25"/>
      <point x="539" y="622" type="qcurve" smooth="yes"/>
      <point x="560.75" y="745.75"/>
      <point x="640.969" y="993.688"/>
      <point x="748.781" y="1222.81"/>
      <point x="879.625" y="1423.5"/>
      <point x="952" y="1500" type="qcurve"/>
      <point x="637" y="1500" type="line"/>
      <point x="541" y="1426.12"/>
      <point x="367.969" y="1227.5"/>
      <point x="228.281" y="998"/>
      <point x="129.125" y="747.625"/>
      <point x="107" y="622" type="qcurve" smooth="yes"/>
      <point x="63.2332" y="369.209"/>
      <point x="189.644" y="-106.589"/>
      <point x="330" y="-256" type="qcurve"/>
    </contour>
  </outline>
</glyph>
<glyph name="period" format="2">
  <advance width="893"/>
  <unicode hex="002E"/>
  <outline>
    <contour>
      <point x="66" y="135" type="line" smooth="yes"/>
      <point x="50.1534" y="44.448"/>
      <point x="91.448" y="-6"/>
      <point x="182" y="-6" type="qcurve" smooth="yes"/>
      <point x="470" y="-6" type="line" smooth="yes"/>
      <point x="560" y="-6"/>
      <point x="620.25" y="45"/>
      <point x="636" y="135" type="qcurve" smooth="yes"/>
      <point x="679" y="384" type="line" smooth="yes"/>
      <point x="694.847" y="473.797"/>
      <point x="651.552" y="524"/>
      <point x="561" y="524" type="qcurve" smooth="yes"/>
      <point x="274" y="524" type="line" smooth="yes"/>
      <point x="184" y="524"/>
      <point x="124.75" y="473.75"/>
      <point x="109" y="386" type="qcurve" smooth="yes"/>
    </contour>
  </outline>
</glyph>
<glyph name="eight" format="2">
  <advance width="1914"/>
  <unicode hex="0038"/>
  <outline>
    <contour>
      <point x="658" y="429" type="qcurve" smooth="yes"/>
      <point x="663" y="457" type="line" smooth="yes"/>
      <point x="665.625" y="472"/>
      <point x="680.938" y="495.75"/>
      <point x="706.062" y="512.25"/>
      <point x="740.875" y="521"/>
      <point x="763" y="521" type="qcurve" smooth="yes"/>
      <point x="1095" y="521" type="line" smooth="yes"/>
      <point x="1117.12" y="521"/>
      <point x="1149" y="512.25"/>
      <point x="1168.5" y="495.75"/>
      <point x="1175.62" y="472"/>
      <point x="1173" y="457" type="qcurve" smooth="yes"/>
      <point x="1168" y="429" type="line" smooth="yes"/>
      <point x="1162.72" y="398.816"/>
      <point x="1112.52" y="365"/>
      <point x="1068" y="365" type="qcurve" smooth="yes"/>
      <point x="736" y="365" type="line" smooth="yes"/>
      <point x="691.479" y="365"/>
      <point x="652.718" y="398.816"/>
    </contour>
    <contour>
      <point x="1229" y="971" type="qcurve"/>
      <point x="1227" y="957" type="line"/>
      <point x="1221.72" y="927.571"/>
      <point x="1171.52" y="894"/>
      <point x="1127" y="894" type="qcurve" smooth="yes"/>
      <point x="861" y="894" type="line" smooth="yes"/>
      <point x="816.479" y="894"/>
      <point x="777.718" y="927.571"/>
      <point x="783" y="957" type="qcurve"/>
      <point x="785" y="971" type="line"/>
      <point x="790.282" y="1000.43"/>
      <point x="840.479" y="1034"/>
      <point x="885" y="1034" type="qcurve" smooth="yes"/>
      <point x="1151" y="1034" type="line" smooth="yes"/>
      <point x="1195.52" y="1034"/>
      <point x="1234.28" y="1000.43"/>
    </contour>
    <contour>
      <point x="101" y="339" type="line" smooth="yes"/>
      <point x="83.375" y="237.75"/>
      <point x="124.938" y="102.125"/>
      <point x="225.062" y="20.375"/>
      <point x="374.625" y="-14"/>
      <point x="465" y="-14" type="qcurve" smooth="yes"/>
      <point x="1206" y="-14" type="line" smooth="yes"/>
      <point x="1389" y="-14"/>
      <point x="1657.75" y="137.5"/>
      <point x="1693" y="340" type="qcurve" smooth="yes"/>
      <point x="1703" y="396" type="line" smooth="yes"/>
      <point x="1733" y="566.25"/>
      <point x="1614.25" y="695.5"/>
      <point x="1522" y="712" type="qcurve"/>
      <point x="1615.57" y="729.356"/>
      <point x="1755.38" y="867.583"/>
      <point x="1775" y="977" type="qcurve" smooth="yes"/>
      <point x="1792" y="1076" type="line" smooth="yes"/>
      <point x="1819.17" y="1232.2"/>
      <point x="1652.23" y="1414"/>
      <point x="1450" y="1414" type="qcurve" smooth="yes"/>
      <point x="721" y="1414" type="line" smooth="yes"/>
      <point x="518.767" y="1414"/>
      <point x="287.166" y="1231.96"/>
      <point x="260" y="1075" type="qcurve" smooth="yes"/>
      <point x="243" y="977" type="line" smooth="yes"/>
      <point x="223.38" y="867.583"/>
      <point x="312.448" y="729.356"/>
      <point x="403" y="712" type="qcurve"/>
      <point x="303.393" y="694.644"/>
      <point x="140.184" y="563.294"/>
      <point x="110" y="392" type="qcurve" smooth="yes"/>
    </contour>
  </outline>
</glyph>
<glyph name="semicolon" format="2">
  <advance width="892"/>
  <unicode hex="003B"/>
  <outline>
    <contour>
      <point x="42" y="-298" type="line"/>
      <point x="246" y="-342" type="line"/>
      <point x="598" y="36" type="line"/>
      <point x="266" y="22" type="line"/>
    </contour>
    <contour>
      <point x="67" y="145" type="line" smooth="yes"/>
      <point x="51.1534" y="54.448"/>
      <point x="93.448" y="4"/>
      <point x="184" y="4" type="qcurve" smooth="yes"/>
      <point x="472" y="4" type="line" smooth="yes"/>
      <point x="562" y="4"/>
      <point x="621.25" y="55"/>
      <point x="637" y="145" type="qcurve" smooth="yes"/>
      <point x="667" y="315" type="line" smooth="yes"/>
      <point x="682.847" y="404.043"/>
      <point x="640.552" y="454"/>
      <point x="550" y="454" type="qcurve" smooth="yes"/>
      <point x="262" y="454" type="line" smooth="yes"/>
      <point x="172" y="454"/>
      <point x="112.75" y="403.5"/>
      <point x="97" y="315" type="qcurve" smooth="yes"/>
    </contour>
    <contour>
      <point x="167" y="715" type="line" smooth="yes"/>
      <point x="151.153" y="624.448"/>
      <point x="192.448" y="574"/>
      <point x="283" y="574" type="qcurve" smooth="yes"/>
      <point x="571" y="574" type="line" smooth="yes"/>
      <point x="661" y="574"/>
      <point x="721.25" y="625"/>
      <point x="737" y="715" type="qcurve" smooth="yes"/>
      <point x="768" y="894" type="line" smooth="yes"/>
      <point x="783.847" y="983.797"/>
      <point x="740.552" y="1034"/>
      <point x="650" y="1034" type="qcurve" smooth="yes"/>
      <point x="363" y="1034" type="line" smooth="yes"/>
      <point x="273" y="1034"/>
      <point x="213.75" y="983.75"/>
      <point x="198" y="896" type="qcurve" smooth="yes"/>
    </contour>
  </outline>
</glyph>
<glyph name="greater" format="2">
  <advance width="1448"/>
  <unicode hex="003E"/>
  <outline>
    <contour>
      <point x="202" y="1168" type="line"/>
      <point x="152" y="880" type="line"/>
      <point x="855" y="602" type="line"/>
      <point x="55" y="324" type="line"/>
      <point x="-2" y="0" type="line"/>
      <point x="1291" y="449" type="line"/>
      <point x="1338" y="719" type="line"/>
    </contour>
  </outline>
</glyph>
<glyph name="question" format="2">
  <advance width="1527"/>
  <unicode hex="003F"/>
  <outline>
    <contour>
      <point x="435" y="462" type="line"/>
      <point x="910" y="462" type="line"/>
      <point x="920" y="524" type="line"/>
      <point x="920" y="524"/>
      <point x="920" y="524"/>
      <point x="920" y="524" type="qcurve"/>
      <point x="1083" y="524" type="line" smooth="yes"/>
      <point x="1232.41" y="524"/>
      <point x="1388.63" y="703.528"/>
      <point x="1409" y="822" type="qcurve" smooth="yes"/>
      <point x="1461" y="1119" type="line" smooth="yes"/>
      <point x="1488.92" y="1278.98"/>
      <point x="1339.5" y="1414"/>
      <point x="1135" y="1414" type="qcurve" smooth="yes"/>
      <point x="599" y="1414" type="line" smooth="yes"/>
      <point x="394.503" y="1414"/>
      <point x="193.92" y="1276.22"/>
      <point x="166" y="1117" type="qcurve" smooth="yes"/>
      <point x="147" y="1008" type="line"/>
      <point x="639" y="935" type="line"/>
      <point x="655" y="1028" type="line"/>
      <point x="655" y="1028"/>
      <point x="655" y="1028"/>
      <point x="655" y="1028" type="qcurve"/>
      <point x="940" y="1028" type="line"/>
      <point x="940" y="1028"/>
      <point x="940" y="1028"/>
      <point x="940" y="1028" type="qcurve"/>
      <point x="916" y="890" type="line"/>
      <point x="916" y="890"/>
      <point x="916" y="890"/>
      <point x="916" y="890" type="qcurve"/>
      <point x="744" y="890" type="line" smooth="yes"/>
      <point x="626.282" y="890"/>
      <point x="484.092" y="746.288"/>
      <point x="469" y="658" type="qcurve" smooth="yes"/>
    </contour>
    <contour>
      <point x="330" y="135" type="line" smooth="yes"/>
      <point x="314.153" y="44.448"/>
      <point x="355.448" y="-6"/>
      <point x="446" y="-6" type="qcurve" smooth="yes"/>
      <point x="734" y="-6" type="line" smooth="yes"/>
      <point x="824" y="-6"/>
      <point x="884.25" y="45"/>
      <point x="900" y="135" type="qcurve" smooth="yes"/>
      <point x="915" y="224" type="line" smooth="yes"/>
      <point x="930.847" y="313.797"/>
      <point x="888.552" y="364"/>
      <point x="798" y="364" type="qcurve" smooth="yes"/>
      <point x="511" y="364" type="line" smooth="yes"/>
      <point x="421" y="364"/>
      <point x="360.75" y="313.75"/>
      <point x="345" y="226" type="qcurve" smooth="yes"/>
    </contour>
  </outline>
</glyph>
<glyph name="G" format="2">
  <advance width="1963"/>
  <unicode hex="0047"/>
  <anchor x="1139" y="1550" name="top"/>
  <anchor x="842" y="-150" name="bottom"/>
  <outline>
    <contour>
      <point x="227" y="1080" type="qcurve" smooth="yes"/>
      <point x="97" y="332" type="line" smooth="yes"/>
      <point x="60.7792" y="125.24"/>
      <point x="249.786" y="-14"/>
      <point x="449" y="-14" type="qcurve" smooth="yes"/>
      <point x="1281" y="-14" type="line" smooth="yes"/>
      <point x="1480.21" y="-14"/>
      <point x="1718.78" y="123.73"/>
      <point x="1755" y="332" type="qcurve" smooth="yes"/>
      <point x="1848" y="864" type="line"/>
      <point x="1020" y="864" type="line"/>
      <point x="955" y="494" type="line"/>
      <point x="1211" y="494" type="line"/>
      <point x="1197" y="410" type="line"/>
      <point x="1197" y="410"/>
      <point x="1197" y="410"/>
      <point x="1197" y="410" type="qcurve"/>
      <point x="683" y="410" type="line"/>
      <point x="683" y="410"/>
      <point x="683" y="410"/>
      <point x="683" y="410" type="qcurve"/>
      <point x="784" y="990" type="line"/>
      <point x="784" y="990"/>
      <point x="784" y="990"/>
      <point x="784" y="990" type="qcurve"/>
      <point x="1292" y="990" type="line"/>
      <point x="1292" y="990"/>
      <point x="1292" y="990"/>
      <point x="1292" y="990" type="qcurve"/>
      <point x="1277" y="906" type="line"/>
      <point x="1868" y="1012" type="line"/>
      <point x="1879" y="1080" type="line" smooth="yes"/>
      <point x="1914.25" y="1281"/>
      <point x="1713" y="1414"/>
      <point x="1524" y="1414" type="qcurve" smooth="yes"/>
      <point x="698" y="1414" type="line" smooth="yes"/>
      <point x="509" y="1414"/>
      <point x="262.25" y="1281"/>
    </contour>
  </outline>
  <guideline angle="0" x="0" y="574"/>
  <guideline angle="0" x="0" y="1036"/>
  <guideline angle="0" x="0" y="980"/>
  <guideline angle="0" x="0" y="806"/>
  <guideline angle="0" x="0" y="700"/>
  <guideline angle="0" x="0" y="906"/>
  <guideline angle="0" x="0" y="494"/>
</glyph>
<glyph name="P" format="2">
  <advance width="1810"/>
  <unicode hex="0050"/>
  <outline>
    <contour>
      <point x="61" y="0" type="line"/>
      <point x="633" y="0" type="line"/>
      <point x="696" y="360" type="line"/>
      <point x="1274" y="360" type="line" smooth="yes"/>
      <point x="1368.5" y="360"/>
      <point x="1524.84" y="380.25"/>
      <point x="1643.91" y="444.75"/>
      <point x="1723.38" y="565.5"/>
      <point x="1741" y="666" type="qcurve" smooth="yes"/>
      <point x="1811" y="1066" type="line" smooth="yes"/>
      <point x="1846.25" y="1267"/>
      <point x="1644" y="1400"/>
      <point x="1455" y="1400" type="qcurve" smooth="yes"/>
      <point x="305" y="1400" type="line"/>
    </contour>
    <contour>
      <point x="773" y="800" type="line"/>
      <point x="801" y="960" type="line"/>
      <point x="1153" y="960" type="line" smooth="yes"/>
      <point x="1186.2" y="960"/>
      <point x="1214.53" y="927.166"/>
      <point x="1210" y="900" type="qcurve" smooth="yes"/>
      <point x="1203" y="860" type="line" smooth="yes"/>
      <point x="1198.47" y="832.834"/>
      <point x="1158.2" y="800"/>
      <point x="1125" y="800" type="qcurve" smooth="yes"/>
    </contour>
  </outline>
  <guideline angle="90" color="0.4,0.4,0.4,1" name="halfwidth" x="905" y="0"/>
</glyph>
<glyph name="T" format="2">
  <advance width="1625"/>
  <unicode hex="0054"/>
  <anchor x="965" y="1550" name="top"/>
  <anchor x="668" y="-150" name="bottom"/>
  <outline>
    <contour>
      <point x="408" y="0" type="line"/>
      <point x="980" y="0" type="line"/>
      <point x="1140" y="916" type="line"/>
      <point x="1616" y="916" type="line"/>
      <point x="1701" y="1400" type="line"/>
      <point x="177" y="1400" type="line"/>
      <point x="92" y="916" type="line"/>
      <point x="568" y="916" type="line"/>
    </contour>
  </outline>
</glyph>
<glyph name="bracketleft" format="2">
  <advance width="1007"/>
  <unicode hex="005B"/>
  <outline>
    <contour>
      <point x="16" y="-256" type="line"/>
      <point x="788" y="-256" type="line"/>
      <point x="849" y="94" type="line"/>
      <point x="517" y="94" type="line"/>
      <point x="693" y="1098" type="line"/>
      <point x="1025" y="1098" type="line"/>
      <point x="1086" y="1448" type="line"/>
      <point x="314" y="1448" type="line"/>
    </contour>
  </outline>
</glyph>
<glyph name="k" format="2">
  <advance width="1792"/>
  <unicode hex="006B"/>
  <anchor x="552" y="1598" name="top"/>
  <anchor x="667" y="-150" name="bottom"/>
  <anchor x="39" y="736" name="left"/>
  <outline>
    <contour>
      <point x="11" y="0" type="line"/>
      <point x="535" y="0" type="line"/>
      <point x="621" y="493" type="line"/>
      <point x="590" y="493" type="line"/>
      <point x="979" y="0" type="line"/>
      <point x="1666" y="0" type="line"/>
      <point x="1160" y="598" type="line"/>
      <point x="1129" y="515" type="line"/>
      <point x="1742" y="1024" type="line"/>
      <point x="1104" y="1024" type="line"/>
      <point x="622" y="616" type="line"/>
      <point x="643" y="616" type="line"/>
      <point x="792" y="1472" type="line"/>
      <point x="268" y="1472" type="line"/>
    </contour>
  </outline>
</glyph>
<glyph name="m" format="2">
  <advance width="2139"/>
  <unicode hex="006D"/>
  <anchor x="1069.5" y="1184" name="top"/>
  <anchor x="1069.5" y="-150" name="bottom"/>
  <outline>
    <contour>
      <point x="10" y="0" type="line"/>
      <point x="534" y="0" type="line"/>
      <point x="639" y="602" type="line"/>
      <point x="797" y="602" type="line"/>
      <point x="692" y="0" type="line"/>
      <point x="1216" y="0" type="line"/>
      <point x="1321" y="602" type="line"/>
      <point x="1479" y="602" type="line"/>
      <point x="1479" y="602"/>
      <point x="1479" y="602"/>
      <point x="1479" y="602" type="qcurve"/>
      <point x="1374" y="0" type="line"/>
      <point x="1898" y="0" type="line"/>
      <point x="2026" y="734" type="line" smooth="yes"/>
      <point x="2053" y="890"/>
      <point x="1902" y="1034"/>
      <point x="1710" y="1034" type="qcurve" smooth="yes"/>
      <point x="1682" y="1034" type="line" smooth="yes"/>
      <point x="1536.36" y="1034"/>
      <point x="1379.71" y="957.27"/>
      <point x="1345" y="872" type="qcurve"/>
      <point x="1320.85" y="976.889"/>
      <point x="1129.87" y="1034"/>
      <point x="1028" y="1034" type="qcurve" smooth="yes"/>
      <point x="1000" y="1034" type="line" smooth="yes"/>
      <point x="882.282" y="1034"/>
      <point x="737.503" y="984.331"/>
      <point x="696" y="930" type="qcurve"/>
      <point x="713" y="1024" type="line"/>
      <point x="189" y="1024" type="line"/>
    </contour>
  </outline>
</glyph>
<glyph name="o" format="2">
  <advance width="1568"/>
  <unicode hex="006F"/>
  <anchor x="870" y="1174" name="top"/>
  <anchor x="639" y="-150" name="bottom"/>
  <anchor x="1471" y="780" name="horn"/>
  <anchor x="851" y="0" name="ogonek"/>
  <outline>
    <contour>
      <point x="39" y="254" type="line" smooth="yes"/>
      <point x="14.8528" y="115.154"/>
      <point x="137.516" y="-10"/>
      <point x="299" y="-10" type="qcurve" smooth="yes"/>
      <point x="1027" y="-10" type="line" smooth="yes"/>
      <point x="1189.99" y="-10"/>
      <point x="1354.85" y="115.154"/>
      <point x="1379" y="254" type="qcurve" smooth="yes"/>
      <point x="1471" y="780" type="line" smooth="yes"/>
      <point x="1494.39" y="911.3"/>
      <point x="1368.98" y="1034"/>
      <point x="1209" y="1034" type="qcurve" smooth="yes"/>
      <point x="481" y="1034" type="line" smooth="yes"/>
      <point x="321.025" y="1034"/>
      <point x="154.393" y="911.3"/>
      <point x="131" y="780" type="qcurve" smooth="yes"/>
    </contour>
    <contour>
      <point x="584" y="372" type="qcurve"/>
      <point x="633" y="652" type="line"/>
      <point x="633" y="652"/>
      <point x="633" y="652"/>
      <point x="633" y="652" type="qcurve"/>
      <point x="925" y="652" type="line"/>
      <point x="925" y="652"/>
      <point x="925" y="652"/>
      <point x="925" y="652" type="qcurve"/>
      <point x="876" y="372" type="line"/>
      <point x="876" y="372"/>
      <point x="876" y="372"/>
      <point x="876" y="372" type="qcurve"/>
      <point x="584" y="372" type="line"/>
      <point x="584" y="372"/>
      <point x="584" y="372"/>
    </contour>
  </outline>
</glyph>
<glyph name="r" format="2">
  <advance width="1421"/>
  <unicode hex="0072"/>
  <anchor x="820" y="1184" name="top"/>
  <anchor x="246" y="-150" name="bottom"/>
  <anchor x="0" y="517" name="left"/>
  <outline>
    <contour>
      <point x="10" y="0" type="line"/>
      <point x="534" y="0" type="line"/>
      <point x="639" y="602" type="line"/>
      <point x="837" y="602" type="line"/>
      <point x="837" y="602"/>
      <point x="837" y="602"/>
      <point x="837" y="602" type="qcurve"/>
      <point x="822" y="517" type="line"/>
      <point x="1360" y="596" type="line"/>
      <point x="1384" y="734" type="line" smooth="yes"/>
      <point x="1397.5" y="812"/>
      <point x="1374.12" y="925.25"/>
      <point x="1296.88" y="998.75"/>
      <point x="1164" y="1034"/>
      <point x="1068" y="1034" type="qcurve" smooth="yes"/>
      <point x="1000" y="1034" type="line" smooth="yes"/>
      <point x="882.282" y="1034"/>
      <point x="737.503" y="984.331"/>
      <point x="696" y="930" type="qcurve"/>
      <point x="713" y="1024" type="line"/>
      <point x="189" y="1024" type="line"/>
    </contour>
  </outline>
</glyph>
<glyph name="exclamdown" format="2">
  <advance width="937"/>
  <unicode hex="00A1"/>
  <outline>
    <contour>
      <point x="786" y="883" type="line" smooth="yes"/>
      <point x="801.847" y="973.552"/>
      <point x="760.552" y="1024"/>
      <point x="670" y="1024" type="qcurve" smooth="yes"/>
      <point x="382" y="1024" type="line" smooth="yes"/>
      <point x="292" y="1024"/>
      <point x="231.75" y="973"/>
      <point x="216" y="883" type="qcurve" smooth="yes"/>
      <point x="201" y="794" type="line" smooth="yes"/>
      <point x="185.153" y="704.203"/>
      <point x="227.448" y="654"/>
      <point x="318" y="654" type="qcurve" smooth="yes"/>
      <point x="605" y="654" type="line" smooth="yes"/>
      <point x="695" y="654"/>
      <point x="755.25" y="704.25"/>
      <point x="771" y="792" type="qcurve" smooth="yes"/>
    </contour>
    <contour>
      <point x="682" y="556" type="line"/>
      <point x="206" y="556" type="line"/>
      <point x="-27" y="-382" type="line"/>
      <point x="589" y="-382" type="line"/>
    </contour>
  </outline>
</glyph>
<glyph name="sterling" format="2">
  <advance width="1836"/>
  <unicode hex="00A3"/>
  <outline>
    <contour>
      <point x="-53" y="0" type="line"/>
      <point x="1197" y="0" type="line" smooth="yes"/>
      <point x="1396.21" y="0"/>
      <point x="1634.53" y="137.73"/>
      <point x="1670" y="346" type="qcurve" smooth="yes"/>
      <point x="1692" y="468" type="line"/>
      <point x="1137" y="570" type="line"/>
      <point x="1119" y="464" type="line" smooth="yes"/>
      <point x="1109.94" y="411.178"/>
      <point x="1054.82" y="364"/>
      <point x="1002" y="364" type="qcurve" smooth="yes"/>
      <point x="772" y="364" type="line"/>
      <point x="797.656" y="406.258"/>
      <point x="837.663" y="489.46"/>
      <point x="852" y="537" type="qcurve"/>
      <point x="853" y="543" type="line"/>
      <point x="1016" y="543" type="line"/>
      <point x="1106" y="785" type="line"/>
      <point x="901" y="785" type="line"/>
      <point x="929" y="950" type="line" smooth="yes"/>
      <point x="937.301" y="999.804"/>
      <point x="996.196" y="1050"/>
      <point x="1046" y="1050" type="qcurve" smooth="yes"/>
      <point x="1094" y="1050" type="line" smooth="yes"/>
      <point x="1146.82" y="1050"/>
      <point x="1186.06" y="1002.82"/>
      <point x="1177" y="950" type="qcurve" smooth="yes"/>
      <point x="1165" y="880" type="line"/>
      <point x="1755" y="986" type="line"/>
      <point x="1771" y="1080" type="line" smooth="yes"/>
      <point x="1805.5" y="1281"/>
      <point x="1604" y="1414"/>
      <point x="1415" y="1414" type="qcurve" smooth="yes"/>
      <point x="849" y="1414" type="line" smooth="yes"/>
      <point x="660" y="1414"/>
      <point x="414.25" y="1281"/>
      <point x="379" y="1080" type="qcurve" smooth="yes"/>
      <point x="328" y="785" type="line"/>
      <point x="211" y="785" type="line"/>
      <point x="170" y="543" type="line"/>
      <point x="287" y="543" type="line"/>
      <point x="273" y="464" type="line" smooth="yes"/>
      <point x="263.945" y="411.178"/>
      <point x="208.822" y="364"/>
      <point x="156" y="364" type="qcurve" smooth="yes"/>
      <point x="10" y="364" type="line"/>
    </contour>
  </outline>
  <guideline angle="90" x="658" y="0"/>
</glyph>
<glyph name="copyright" format="2">
  <advance width="1973"/>
  <unicode hex="00A9"/>
  <outline>
    <contour>
      <point x="439" y="548" type="line" smooth="yes"/>
      <point x="413.344" y="401.608"/>
      <point x="537.914" y="278"/>
      <point x="716" y="278" type="qcurve" smooth="yes"/>
      <point x="1122" y="278" type="line" smooth="yes"/>
      <point x="1300.09" y="278"/>
      <point x="1467.34" y="401.608"/>
      <point x="1493" y="548" type="qcurve" smooth="yes"/>
      <point x="1497" y="573" type="line"/>
      <point x="1079" y="662" type="line"/>
      <point x="1069" y="610" type="line"/>
      <point x="1069" y="610"/>
      <point x="1069" y="610"/>
      <point x="1069" y="610" type="qcurve"/>
      <point x="883" y="610" type="line"/>
      <point x="883" y="610"/>
      <point x="883" y="610"/>
      <point x="883" y="610" type="qcurve"/>
      <point x="915" y="790" type="line"/>
      <point x="915" y="790"/>
      <point x="915" y="790"/>
      <point x="915" y="790" type="qcurve"/>
      <point x="1097" y="790" type="line"/>
      <point x="1097" y="790"/>
      <point x="1097" y="790"/>
      <point x="1097" y="790" type="qcurve"/>
      <point x="1089" y="745" type="line"/>
      <point x="1539" y="834" type="line"/>
      <point x="1544" y="866" type="line" smooth="yes"/>
      <point x="1568.15" y="1004.85"/>
      <point x="1442.07" y="1122"/>
      <point x="1267" y="1122" type="qcurve" smooth="yes"/>
      <point x="865" y="1122" type="line" smooth="yes"/>
      <point x="689.933" y="1122"/>
      <point x="517.902" y="1002.36"/>
      <point x="493" y="862" type="qcurve" smooth="yes"/>
    </contour>
    <contour>
      <point x="221" y="1044" type="qcurve" smooth="yes"/>
      <point x="103" y="368" type="line" smooth="yes"/>
      <point x="67" y="159.5"/>
      <point x="257" y="22"/>
      <point x="455" y="22" type="qcurve" smooth="yes"/>
      <point x="1271" y="22" type="line" smooth="yes"/>
      <point x="1470.21" y="22"/>
      <point x="1708.78" y="159.73"/>
      <point x="1745" y="368" type="qcurve" smooth="yes"/>
      <point x="1863" y="1044" type="line" smooth="yes"/>
      <point x="1899" y="1251"/>
      <point x="1706" y="1378"/>
      <point x="1508" y="1378" type="qcurve" smooth="yes"/>
      <point x="692" y="1378" type="line" smooth="yes"/>
      <point x="494.75" y="1378"/>
      <point x="256.25" y="1243.5"/>
    </contour>
    <contour>
      <point x="416" y="1050" type="line" smooth="yes"/>
      <point x="432.601" y="1145.83"/>
      <point x="557.111" y="1208"/>
      <point x="662" y="1208" type="qcurve" smooth="yes"/>
      <point x="1478" y="1208" type="line" smooth="yes"/>
      <point x="1583.64" y="1208"/>
      <point x="1686.6" y="1146.08"/>
      <point x="1670" y="1051" type="qcurve" smooth="yes"/>
      <point x="1551" y="366" type="line" smooth="yes"/>
      <point x="1532.13" y="260.356"/>
      <point x="1407.4" y="192"/>
      <point x="1301" y="192" type="qcurve" smooth="yes"/>
      <point x="485" y="192" type="line" smooth="yes"/>
      <point x="379.356" y="192"/>
      <point x="278.89" y="261.356"/>
      <point x="297" y="367" type="qcurve" smooth="yes"/>
    </contour>
  </outline>
</glyph>
<glyph name="ordfeminine" format="2">
  <advance width="1062"/>
  <unicode hex="00AA"/>
  <outline>
    <contour>
      <point x="291" y="788" type="qcurve" smooth="yes"/>
      <point x="467" y="788" type="line" smooth="yes"/>
      <point x="536.423" y="788"/>
      <point x="642.08" y="832.632"/>
      <point x="670" y="893" type="qcurve"/>
      <point x="653" y="795" type="line"/>
      <point x="992" y="795" type="line"/>
      <point x="1079" y="1292" type="line" smooth="yes"/>
      <point x="1097.87" y="1402.17"/>
      <point x="1003.78" y="1472"/>
      <point x="917" y="1472" type="qcurve" smooth="yes"/>
      <point x="431" y="1472" type="line" smooth="yes"/>
      <point x="344.976" y="1472"/>
      <point x="226.356" y="1400.34"/>
      <point x="209" y="1303" type="qcurve"/>
      <point x="207" y="1290" type="line"/>
      <point x="536" y="1228" type="line"/>
      <point x="542" y="1263" type="line"/>
      <point x="542" y="1263"/>
      <point x="542" y="1263"/>
      <point x="542" y="1263" type="qcurve"/>
      <point x="734" y="1263" type="line"/>
      <point x="734" y="1263"/>
      <point x="734" y="1263"/>
      <point x="734" y="1263" type="qcurve"/>
      <point x="722" y="1191" type="line"/>
      <point x="361" y="1191" type="line" smooth="yes"/>
      <point x="280.258" y="1191"/>
      <point x="155.601" y="1127.83"/>
      <point x="139" y="1032" type="qcurve" smooth="yes"/>
      <point x="126" y="954" type="line" smooth="yes"/>
      <point x="108.644" y="856.657"/>
      <point x="209.503" y="788"/>
    </contour>
    <contour>
      <point x="468" y="966" type="qcurve"/>
      <point x="480" y="1037" type="line"/>
      <point x="480" y="1037"/>
      <point x="480" y="1037"/>
      <point x="480" y="1037" type="qcurve"/>
      <point x="695" y="1037" type="line"/>
      <point x="683" y="966" type="line"/>
      <point x="468" y="966" type="line"/>
      <point x="468" y="966"/>
      <point x="468" y="966"/>
    </contour>
  </outline>
</glyph>
<glyph name="registered" format="2">
  <advance width="833"/>
  <unicode hex="00AE"/>
  <outline>
    <contour>
      <point x="123" y="1057" type="line" smooth="yes"/>
      <point x="110.926" y="987.577"/>
      <point x="174.331" y="914"/>
      <point x="243" y="914" type="qcurve" smooth="yes"/>
      <point x="674" y="914" type="line" smooth="yes"/>
      <point x="743.423" y="914"/>
      <point x="830.926" y="987.577"/>
      <point x="843" y="1057" type="qcurve" smooth="yes"/>
      <point x="905" y="1410" type="line" smooth="yes"/>
      <point x="917.074" y="1478.67"/>
      <point x="854.423" y="1552"/>
      <point x="785" y="1552" type="qcurve" smooth="yes"/>
      <point x="354" y="1552" type="line" smooth="yes"/>
      <point x="285.331" y="1552"/>
      <point x="197.074" y="1478.67"/>
      <point x="185" y="1410" type="qcurve" smooth="yes"/>
    </contour>
    <contour>
      <point x="269" y="1395" type="line" smooth="yes"/>
      <point x="276.546" y="1434.99"/>
      <point x="321.761" y="1476"/>
      <point x="361" y="1476" type="qcurve" smooth="yes"/>
      <point x="752" y="1476" type="line" smooth="yes"/>
      <point x="791.994" y="1476"/>
      <point x="822.546" y="1434.99"/>
      <point x="815" y="1395" type="qcurve" smooth="yes"/>
      <point x="759" y="1072" type="line" smooth="yes"/>
      <point x="752.209" y="1032.01"/>
      <point x="720.994" y="990"/>
      <point x="681" y="990" type="qcurve" smooth="yes"/>
      <point x="276" y="990" type="line" smooth="yes"/>
      <point x="236.761" y="990"/>
      <point x="206.209" y="1032.01"/>
      <point x="213" y="1072" type="qcurve" smooth="yes"/>
    </contour>
    <contour>
      <point x="350" y="1400" type="line"/>
      <point x="291" y="1060" type="line"/>
      <point x="418" y="1060" type="line"/>
      <point x="436" y="1163" type="line"/>
      <point x="481" y="1163" type="line"/>
      <point x="556" y="1060" type="line"/>
      <point x="713" y="1060" type="line"/>
      <point x="624" y="1173" type="line"/>
      <point x="624" y="1173" type="line"/>
      <point x="660.975" y="1175.26"/>
      <point x="708.454" y="1207.74"/>
      <point x="716" y="1250" type="qcurve" smooth="yes"/>
      <point x="729" y="1321" type="line" smooth="yes"/>
      <point x="737.301" y="1369.29"/>
      <point x="689.521" y="1400"/>
      <point x="645" y="1400" type="qcurve" smooth="yes"/>
    </contour>
    <contour>
      <point x="453" y="1258" type="line"/>
      <point x="460" y="1301" type="line"/>
      <point x="583" y="1301" type="line" smooth="yes"/>
      <point x="591.301" y="1301"/>
      <point x="599.509" y="1292.55"/>
      <point x="598" y="1285" type="qcurve"/>
      <point x="596" y="1274" type="line" smooth="yes"/>
      <point x="594.491" y="1265.7"/>
      <point x="584.301" y="1258"/>
      <point x="576" y="1258" type="qcurve" smooth="yes"/>
    </contour>
  </outline>
</glyph>
<glyph name="ordmasculine" format="2">
  <advance width="1054"/>
  <unicode hex="00BA"/>
  <outline>
    <contour>
      <point x="136" y="961" type="line" smooth="yes"/>
      <point x="120.153" y="870.448"/>
      <point x="199.356" y="788"/>
      <point x="305" y="788" type="qcurve" smooth="yes"/>
      <point x="788" y="788" type="line" smooth="yes"/>
      <point x="895.153" y="788"/>
      <point x="1002.15" y="870.448"/>
      <point x="1018" y="961" type="qcurve" smooth="yes"/>
      <point x="1078" y="1306" type="line" smooth="yes"/>
      <point x="1093.09" y="1392.02"/>
      <point x="1011.89" y="1472"/>
      <point x="907" y="1472" type="qcurve" smooth="yes"/>
      <point x="424" y="1472" type="line" smooth="yes"/>
      <point x="319.865" y="1472"/>
      <point x="211.092" y="1392.02"/>
      <point x="196" y="1306" type="qcurve" smooth="yes"/>
    </contour>
    <contour>
      <point x="489" y="1037" type="qcurve"/>
      <point x="521" y="1223" type="line"/>
      <point x="521" y="1223"/>
      <point x="521" y="1223"/>
      <point x="521" y="1223" type="qcurve"/>
      <point x="723" y="1223" type="line"/>
      <point x="723" y="1223"/>
      <point x="723" y="1223"/>
      <point x="723" y="1223" type="qcurve"/>
      <point x="691" y="1037" type="line"/>
      <point x="691" y="1037"/>
      <point x="691" y="1037"/>
      <point x="691" y="1037" type="qcurve"/>
      <point x="489" y="1037" type="line"/>
      <point x="489" y="1037"/>
      <point x="489" y="1037"/>
    </contour>
  </outline>
</glyph>
<glyph name="onehalf" format="2">
  <advance width="1780"/>
  <unicode hex="00BD"/>
  <outline>
    <contour>
      <point x="209" y="614" type="line"/>
      <point x="503" y="614" type="line"/>
      <point x="642" y="1414" type="line"/>
      <point x="176" y="1350" type="line"/>
      <point x="140" y="1143" type="line"/>
      <point x="302" y="1151" type="line"/>
    </contour>
    <contour>
      <point x="1109" y="1400" type="line"/>
      <point x="-53" y="0" type="line"/>
      <point x="240" y="0" type="line"/>
      <point x="1402" y="1400" type="line"/>
    </contour>
    <contour>
      <point x="704" y="0" type="line"/>
      <point x="1319" y="0" type="line" smooth="yes"/>
      <point x="1423.89" y="0"/>
      <point x="1555.12" y="71.0554"/>
      <point x="1577" y="185" type="qcurve" smooth="yes"/>
      <point x="1584" y="221" type="line"/>
      <point x="1306" y="271" type="line"/>
      <point x="1295" y="205" type="line"/>
      <point x="1295" y="205"/>
      <point x="1295" y="205"/>
      <point x="1295" y="205" type="qcurve"/>
      <point x="1024" y="205" type="line"/>
      <point x="1025" y="210" type="line" smooth="yes"/>
      <point x="1027.26" y="220.564"/>
      <point x="1044.12" y="233.209"/>
      <point x="1066" y="240" type="qcurve" smooth="yes"/>
      <point x="1367" y="334" type="line"/>
      <point x="1496.79" y="380.785"/>
      <point x="1599.15" y="469.957"/>
      <point x="1615" y="559" type="qcurve" smooth="yes"/>
      <point x="1625" y="613" type="line" smooth="yes"/>
      <point x="1644.62" y="722.417"/>
      <point x="1530.13" y="792"/>
      <point x="1426" y="792" type="qcurve" smooth="yes"/>
      <point x="1079" y="792" type="line" smooth="yes"/>
      <point x="975.62" y="792"/>
      <point x="840.865" y="722.417"/>
      <point x="822" y="613" type="qcurve" smooth="yes"/>
      <point x="813" y="559" type="line"/>
      <point x="1090" y="508" type="line"/>
      <point x="1104" y="587" type="line"/>
      <point x="1104" y="587"/>
      <point x="1104" y="587"/>
      <point x="1104" y="587" type="qcurve"/>
      <point x="1335" y="587" type="line"/>
      <point x="1335" y="587"/>
      <point x="1335" y="587"/>
      <point x="1335" y="587" type="qcurve"/>
      <point x="1329" y="556" type="line"/>
      <point x="1327.49" y="549.209"/>
      <point x="1317.32" y="539.773"/>
      <point x="1306" y="536" type="qcurve" smooth="yes"/>
      <point x="990" y="432" type="line"/>
      <point x="871.528" y="387.479"/>
      <point x="751.847" y="272.797"/>
      <point x="736" y="183" type="qcurve" smooth="yes"/>
    </contour>
  </outline>
  <guideline angle="90" color="0.4,0.4,0.4,1" name="halfwidth" x="890" y="0"/>
</glyph>
<glyph name="Acircumflex" format="2">
  <advance width="2002"/>
  <unicode hex="00C2"/>
  <anchor x="1207" y="1856" name="top"/>
  <anchor x="856" y="-150" name="bottom"/>
  <anchor x="1256" y="0" name="ogonek_in"/>
  <anchor x="1677" y="1576" name="topright"/>
  <outline>
    <contour>
      <point x="-120" y="0" type="line"/>
      <point x="488" y="0" type="line"/>
      <point x="603" y="176" type="line"/>
      <point x="1204" y="176" type="line"/>
      <point x="1256" y="0" type="line"/>
      <point x="1882" y="0" type="line"/>
      <point x="1400" y="1400" type="line"/>
      <point x="850" y="1400" type="line"/>
    </contour>
    <contour>
      <point x="822" y="509" type="line"/>
      <point x="1017" y="808" type="line"/>
      <point x="1106" y="509" type="line"/>
    </contour>
    <contour>
      <point x="624" y="1476" type="line"/>
      <point x="1100" y="1476" type="line"/>
      <point x="1172" y="1619" type="line"/>
      <point x="1214" y="1476" type="line"/>
      <point x="1660" y="1476" type="line"/>
      <point x="1456" y="1776" type="line"/>
      <point x="932" y="1776" type="line"/>
    </contour>
  </outline>
</glyph>
<glyph name="Atilde" format="2">
  <advance width="2002"/>
  <unicode hex="00C3"/>
  <anchor x="1230" y="1987" name="top"/>
  <anchor x="856" y="-150" name="bottom"/>
  <anchor x="1256" y="0" name="ogonek_in"/>
  <outline>
    <contour>
      <point x="-120" y="0" type="line"/>
      <point x="488" y="0" type="line"/>
      <point x="603" y="176" type="line"/>
      <point x="1204" y="176" type="line"/>
      <point x="1256" y="0" type="line"/>
      <point x="1882" y="0" type="line"/>
      <point x="1400" y="1400" type="line"/>
      <point x="850" y="1400" type="line"/>
    </contour>
    <contour>
      <point x="822" y="509" type="line"/>
      <point x="1017" y="808" type="line"/>
      <point x="1106" y="509" type="line"/>
    </contour>
    <contour>
      <point x="629" y="1529" type="qcurve"/>
      <point x="933" y="1477" type="line"/>
      <point x="937.528" y="1492.85"/>
      <point x="980.479" y="1541"/>
      <point x="1025" y="1541" type="qcurve" smooth="yes"/>
      <point x="1065.12" y="1541"/>
      <point x="1140.88" y="1521"/>
      <point x="1218.12" y="1497"/>
      <point x="1299.88" y="1477"/>
      <point x="1346" y="1477" type="qcurve" smooth="yes"/>
      <point x="1427.75" y="1477"/>
      <point x="1546.88" y="1537.41"/>
      <point x="1634.62" y="1637.34"/>
      <point x="1697.5" y="1766.38"/>
      <point x="1723" y="1835" type="qcurve"/>
      <point x="1419" y="1887" type="line"/>
      <point x="1414.47" y="1871.15"/>
      <point x="1371.52" y="1823"/>
      <point x="1327" y="1823" type="qcurve" smooth="yes"/>
      <point x="1286.88" y="1823"/>
      <point x="1211.12" y="1843"/>
      <point x="1133.88" y="1867"/>
      <point x="1052.12" y="1887"/>
      <point x="1006" y="1887" type="qcurve" smooth="yes"/>
      <point x="924.25" y="1887"/>
      <point x="805.969" y="1831.09"/>
      <point x="718.781" y="1734.16"/>
      <point x="655.625" y="1603.62"/>
    </contour>
  </outline>
  <guideline angle="90" x="441" y="0"/>
  <guideline angle="90" x="1481" y="0"/>
</glyph>
<glyph name="multiply" format="2">
  <advance width="1448"/>
  <unicode hex="00D7"/>
  <outline>
    <contour>
      <point x="301" y="51" type="line"/>
      <point x="690" y="387" type="line"/>
      <point x="962" y="52" type="line"/>
      <point x="1183" y="241" type="line"/>
      <point x="911" y="571" type="line"/>
      <point x="1296" y="898" type="line"/>
      <point x="1112" y="1122" type="line"/>
      <point x="726" y="790" type="line"/>
      <point x="456" y="1122" type="line"/>
      <point x="235" y="933" type="line"/>
      <point x="505" y="606" type="line"/>
      <point x="117" y="275" type="line"/>
    </contour>
  </outline>
  <guideline angle="40.4152" color="1,0,0,1" x="300.633" y="51"/>
  <guideline angle="309.544" color="1,0,0,1" x="246.633" y="918"/>
  <guideline angle="0" x="0" y="1122"/>
</glyph>
<glyph name="Udieresis" format="2">
  <advance width="1753"/>
  <unicode hex="00DC"/>
  <anchor x="1102" y="1958" name="top"/>
  <anchor x="733" y="-150" name="bottom"/>
  <anchor x="958" y="0" name="ogonek"/>
  <anchor x="1800" y="1400" name="horn"/>
  <outline>
    <contour>
      <point x="294" y="1400" type="line"/>
      <point x="107" y="329" type="line" smooth="yes"/>
      <point x="88.625" y="222.875"/>
      <point x="122.281" y="89.1562"/>
      <point x="215.469" y="13.5938"/>
      <point x="362.75" y="-14"/>
      <point x="458" y="-14" type="qcurve" smooth="yes"/>
      <point x="1230" y="-14" type="line" smooth="yes"/>
      <point x="1422.75" y="-14"/>
      <point x="1664.25" y="116.75"/>
      <point x="1701" y="329" type="qcurve" smooth="yes"/>
      <point x="1888" y="1400" type="line"/>
      <point x="1316" y="1400" type="line"/>
      <point x="1154" y="470" type="line"/>
      <point x="1154" y="470"/>
      <point x="1154" y="470"/>
      <point x="1154" y="470" type="qcurve"/>
      <point x="704" y="470" type="line"/>
      <point x="704" y="470"/>
      <point x="704" y="470"/>
      <point x="704" y="470" type="qcurve"/>
      <point x="866" y="1400" type="line"/>
    </contour>
    <contour>
      <point x="631" y="1478" type="qcurve" smooth="yes"/>
      <point x="813" y="1478" type="line" smooth="yes"/>
      <point x="894.497" y="1478"/>
      <point x="928.663" y="1506.5"/>
      <point x="943" y="1588" type="qcurve" smooth="yes"/>
      <point x="968" y="1730" type="line" smooth="yes"/>
      <point x="981.583" y="1809.99"/>
      <point x="958.497" y="1838"/>
      <point x="877" y="1838" type="qcurve" smooth="yes"/>
      <point x="695" y="1838" type="line" smooth="yes"/>
      <point x="613.503" y="1838"/>
      <point x="579.583" y="1809.99"/>
      <point x="566" y="1730" type="qcurve" smooth="yes"/>
      <point x="541" y="1588" type="line" smooth="yes"/>
      <point x="526.663" y="1506.5"/>
      <point x="549.503" y="1478"/>
    </contour>
    <contour>
      <point x="1221" y="1478" type="qcurve" smooth="yes"/>
      <point x="1403" y="1478" type="line" smooth="yes"/>
      <point x="1484.5" y="1478"/>
      <point x="1518.66" y="1506.5"/>
      <point x="1533" y="1588" type="qcurve" smooth="yes"/>
      <point x="1558" y="1730" type="line" smooth="yes"/>
      <point x="1571.58" y="1809.99"/>
      <point x="1548.5" y="1838"/>
      <point x="1467" y="1838" type="qcurve" smooth="yes"/>
      <point x="1285" y="1838" type="line" smooth="yes"/>
      <point x="1203.5" y="1838"/>
      <point x="1169.58" y="1809.99"/>
      <point x="1156" y="1730" type="qcurve" smooth="yes"/>
      <point x="1131" y="1588" type="line" smooth="yes"/>
      <point x="1116.66" y="1506.5"/>
      <point x="1139.5" y="1478"/>
    </contour>
  </outline>
</glyph>
<glyph name="eth" format="2">
  <advance width="1590"/>
  <unicode hex="00F0"/>
  <outline>
    <contour>
      <point x="298" y="-10" type="qcurve" smooth="yes"/>
      <point x="1026" y="-10" type="line" smooth="yes"/>
      <point x="1188.99" y="-10"/>
      <point x="1353.85" y="115.154"/>
      <point x="1378" y="254" type="qcurve" smooth="yes"/>
      <point x="1425" y="527" type="line" smooth="yes"/>
      <point x="1462.73" y="740.552"/>
      <point x="1412.46" y="1068.77"/>
      <point x="1337" y="1188" type="qcurve"/>
      <point x="1575" y="1237" type="line"/>
      <point x="1569" y="1400" type="line"/>
      <point x="1215" y="1328" type="line"/>
      <point x="1138.79" y="1390.63"/>
      <point x="948.435" y="1467.66"/>
      <point x="836" y="1482" type="qcurve"/>
      <point x="445" y="1347" type="line"/>
      <point x="546.116" y="1325.12"/>
      <point x="699.896" y="1267.96"/>
      <point x="758" y="1234" type="qcurve"/>
      <point x="413" y="1164" type="line"/>
      <point x="419" y="1001" type="line"/>
      <point x="908" y="1101" type="line"/>
      <point x="935.92" y="1060.25"/>
      <point x="962.491" y="976.258"/>
      <point x="964" y="934" type="qcurve"/>
      <point x="463" y="934" type="line" smooth="yes"/>
      <point x="303.025" y="934"/>
      <point x="136.393" y="811.3"/>
      <point x="113" y="680" type="qcurve" smooth="yes"/>
      <point x="38" y="254" type="line" smooth="yes"/>
      <point x="13.8528" y="115.154"/>
      <point x="136.516" y="-10"/>
    </contour>
    <contour>
      <point x="906" y="552" type="line"/>
      <point x="906" y="552"/>
      <point x="906" y="552"/>
      <point x="906" y="552" type="qcurve"/>
      <point x="875" y="372" type="line"/>
      <point x="875" y="372"/>
      <point x="875" y="372"/>
      <point x="875" y="372" type="qcurve"/>
      <point x="583" y="372" type="line"/>
      <point x="583" y="372"/>
      <point x="583" y="372"/>
      <point x="583" y="372" type="qcurve"/>
      <point x="614" y="552" type="line"/>
      <point x="614" y="552"/>
      <point x="614" y="552"/>
      <point x="614" y="552" type="qcurve"/>
    </contour>
  </outline>
</glyph>
<glyph name="ntilde" format="2">
  <advance width="1340"/>
  <unicode hex="00F1"/>
  <anchor x="830" y="1571" name="top"/>
  <anchor x="529" y="-150" name="bottom"/>
  <outline>
    <contour>
      <point x="-78" y="0" type="line"/>
      <point x="446" y="0" type="line"/>
      <point x="551" y="602" type="line"/>
      <point x="769" y="602" type="line"/>
      <point x="769" y="602"/>
      <point x="769" y="602"/>
      <point x="769" y="602" type="qcurve"/>
      <point x="664" y="0" type="line"/>
      <point x="1188" y="0" type="line"/>
      <point x="1316" y="734" type="line" smooth="yes"/>
      <point x="1343" y="890"/>
      <point x="1192" y="1034"/>
      <point x="1000" y="1034" type="qcurve" smooth="yes"/>
      <point x="912" y="1034" type="line" smooth="yes"/>
      <point x="794.282" y="1034"/>
      <point x="649.503" y="984.331"/>
      <point x="608" y="930" type="qcurve"/>
      <point x="625" y="1024" type="line"/>
      <point x="101" y="1024" type="line"/>
    </contour>
    <contour>
      <point x="262" y="1159" type="qcurve"/>
      <point x="542" y="1111" type="line"/>
      <point x="545.773" y="1126.85"/>
      <point x="589.479" y="1175"/>
      <point x="634" y="1175" type="qcurve" smooth="yes"/>
      <point x="666.625" y="1175"/>
      <point x="731.75" y="1155"/>
      <point x="805.25" y="1131"/>
      <point x="891.375" y="1111"/>
      <point x="945" y="1111" type="qcurve" smooth="yes"/>
      <point x="1093.5" y="1111"/>
      <point x="1248.25" y="1290.75"/>
      <point x="1300" y="1428" type="qcurve"/>
      <point x="1021" y="1476" type="line"/>
      <point x="1016.47" y="1460.15"/>
      <point x="972.521" y="1412"/>
      <point x="928" y="1412" type="qcurve" smooth="yes"/>
      <point x="895.375" y="1412"/>
      <point x="830.25" y="1432"/>
      <point x="756.75" y="1456"/>
      <point x="670.625" y="1476"/>
      <point x="617" y="1476" type="qcurve" smooth="yes"/>
      <point x="468.5" y="1476"/>
      <point x="315.25" y="1308.25"/>
    </contour>
  </outline>
  <guideline angle="0" x="0" y="988"/>
  <guideline angle="0" x="0" y="870"/>
  <guideline angle="90" x="71" y="0"/>
  <guideline angle="90" x="1061" y="0"/>
</glyph>
<glyph name="divide" format="2">
  <advance width="1448"/>
  <unicode hex="00F7"/>
  <outline>
    <contour>
      <point x="566" y="0" type="qcurve" smooth="yes"/>
      <point x="648" y="0" type="line" smooth="yes"/>
      <point x="740.061" y="0"/>
      <point x="786.172" y="33.54"/>
      <point x="799" y="109" type="qcurve" smooth="yes"/>
      <point x="817" y="212" type="line" smooth="yes"/>
      <point x="829.828" y="287.46"/>
      <point x="796.061" y="320"/>
      <point x="704" y="320" type="qcurve" smooth="yes"/>
      <point x="622" y="320" type="line" smooth="yes"/>
      <point x="531.448" y="320"/>
      <point x="485.828" y="286.705"/>
      <point x="473" y="212" type="qcurve" smooth="yes"/>
      <point x="455" y="109" type="line" smooth="yes"/>
      <point x="441.417" y="32.7854"/>
      <point x="474.693" y="0"/>
    </contour>
    <contour>
      <point x="76" y="442" type="line"/>
      <point x="1290" y="442" type="line"/>
      <point x="1340" y="732" type="line"/>
      <point x="126" y="732" type="line"/>
    </contour>
    <contour>
      <point x="714" y="848" type="qcurve" smooth="yes"/>
      <point x="796" y="848" type="line" smooth="yes"/>
      <point x="888.061" y="848"/>
      <point x="934.172" y="881.54"/>
      <point x="947" y="957" type="qcurve" smooth="yes"/>
      <point x="965" y="1060" type="line" smooth="yes"/>
      <point x="977.828" y="1135.46"/>
      <point x="944.061" y="1168"/>
      <point x="852" y="1168" type="qcurve" smooth="yes"/>
      <point x="770" y="1168" type="line" smooth="yes"/>
      <point x="679.448" y="1168"/>
      <point x="633.828" y="1134.71"/>
      <point x="621" y="1060" type="qcurve" smooth="yes"/>
      <point x="603" y="957" type="line" smooth="yes"/>
      <point x="589.417" y="880.785"/>
      <point x="622.693" y="848"/>
    </contour>
  </outline>
</glyph>
<glyph name="aogonek" format="2">
  <advance width="1408"/>
  <unicode hex="0105"/>
  <anchor x="809" y="1174" name="top"/>
  <anchor x="558" y="-150" name="bottom"/>
  <anchor x="1103" y="0" name="ogonek"/>
  <outline>
    <contour>
      <point x="278" y="-10" type="qcurve" smooth="yes"/>
      <point x="536" y="-10" type="line" smooth="yes"/>
      <point x="641.644" y="-10"/>
      <point x="804.497" y="57.9388"/>
      <point x="846" y="150" type="qcurve"/>
      <point x="820" y="0" type="line"/>
      <point x="1344" y="0" type="line"/>
      <point x="1476" y="758" type="line" smooth="yes"/>
      <point x="1505.43" y="927.03"/>
      <point x="1360.81" y="1034"/>
      <point x="1228" y="1034" type="qcurve" smooth="yes"/>
      <point x="494" y="1034" type="line" smooth="yes"/>
      <point x="361.19" y="1034"/>
      <point x="179.411" y="923.411"/>
      <point x="153" y="774" type="qcurve"/>
      <point x="150" y="755" type="line"/>
      <point x="657" y="660" type="line"/>
      <point x="666" y="712" type="line"/>
      <point x="666" y="712"/>
      <point x="666" y="712"/>
      <point x="666" y="712" type="qcurve"/>
      <point x="944" y="712" type="line"/>
      <point x="944" y="712"/>
      <point x="944" y="712"/>
      <point x="944" y="712" type="qcurve"/>
      <point x="926" y="606" type="line"/>
      <point x="386" y="606" type="line" smooth="yes"/>
      <point x="263" y="606"/>
      <point x="72.5" y="507.5"/>
      <point x="47" y="362" type="qcurve" smooth="yes"/>
      <point x="27" y="244" type="line" smooth="yes"/>
      <point x="0.589" y="94.5892"/>
      <point x="154.246" y="-10"/>
    </contour>
    <contour>
      <point x="564" y="262" type="qcurve"/>
      <point x="583" y="370" type="line"/>
      <point x="583" y="370"/>
      <point x="583" y="370"/>
      <point x="583" y="370" type="qcurve"/>
      <point x="885" y="370" type="line"/>
      <point x="866" y="262" type="line"/>
      <point x="564" y="262" type="line"/>
      <point x="564" y="262"/>
      <point x="564" y="262"/>
    </contour>
    <contour>
      <point x="855.316" y="-438" type="qcurve" smooth="yes"/>
      <point x="944.547" y="-438"/>
      <point x="1100.07" y="-404.675"/>
      <point x="1171" y="-376" type="qcurve"/>
      <point x="1267" y="-121" type="line"/>
      <point x="1214.18" y="-136.092"/>
      <point x="1108.04" y="-157"/>
      <point x="1062.05" y="-157" type="qcurve" smooth="yes"/>
      <point x="1000.14" y="-157"/>
      <point x="937.165" y="-116.214"/>
      <point x="943.821" y="-79.9735" type="qcurve" smooth="yes"/>
      <point x="950.748" y="-42.2635"/>
      <point x="1035.09" y="0"/>
      <point x="1103" y="0" type="qcurve"/>
      <point x="731" y="0" type="line"/>
      <point x="654.785" y="-36.9754"/>
      <point x="564.173" y="-152.47"/>
      <point x="552.404" y="-218.488" type="qcurve" smooth="yes"/>
      <point x="533.234" y="-326.028"/>
      <point x="691.756" y="-438"/>
    </contour>
  </outline>
  <guideline angle="260.1" color="1,0,0,1" x="820" y="-0"/>
</glyph>
<glyph name="Cacute" format="2">
  <advance width="1715"/>
  <unicode hex="0106"/>
  <anchor x="1001" y="1564" name="top"/>
  <anchor x="755" y="-164" name="bottom"/>
  <anchor x="750" y="1490" name="topright"/>
  <outline>
    <contour>
      <point x="227" y="1080" type="qcurve" smooth="yes"/>
      <point x="96" y="332" type="line" smooth="yes"/>
      <point x="60.5338" y="125.24"/>
      <point x="248.786" y="-14"/>
      <point x="448" y="-14" type="qcurve" smooth="yes"/>
      <point x="1240" y="-14" type="line" smooth="yes"/>
      <point x="1439.21" y="-14"/>
      <point x="1677.78" y="123.73"/>
      <point x="1714" y="332" type="qcurve" smooth="yes"/>
      <point x="1746" y="514" type="line"/>
      <point x="1194" y="626" type="line"/>
      <point x="1163" y="450" type="line"/>
      <point x="1163" y="450"/>
      <point x="1163" y="450"/>
      <point x="1163" y="450" type="qcurve"/>
      <point x="689" y="450" type="line"/>
      <point x="689" y="450"/>
      <point x="689" y="450"/>
      <point x="689" y="450" type="qcurve"/>
      <point x="776" y="950" type="line"/>
      <point x="776" y="950"/>
      <point x="776" y="950"/>
      <point x="776" y="950" type="qcurve"/>
      <point x="1244" y="950" type="line"/>
      <point x="1244" y="950"/>
      <point x="1244" y="950"/>
      <point x="1244" y="950" type="qcurve"/>
      <point x="1218" y="800" type="line"/>
      <point x="1809" y="906" type="line"/>
      <point x="1839" y="1080" type="line" smooth="yes"/>
      <point x="1874.25" y="1281"/>
      <point x="1672" y="1414"/>
      <point x="1483" y="1414" type="qcurve" smooth="yes"/>
      <point x="697" y="1414" type="line" smooth="yes"/>
      <point x="508" y="1414"/>
      <point x="262.25" y="1281"/>
    </contour>
    <contour>
      <point x="650" y="1490" type="line"/>
      <point x="1210" y="1490" type="line"/>
      <point x="1667" y="1790" type="line"/>
      <point x="961" y="1790" type="line"/>
    </contour>
  </outline>
</glyph>
<glyph name="cdotaccent" format="2">
  <advance width="1379"/>
  <unicode hex="010B"/>
  <anchor x="841" y="1540" name="top"/>
  <anchor x="546" y="-150" name="bottom"/>
  <outline>
    <contour>
      <point x="40" y="260" type="line" smooth="yes"/>
      <point x="15.0982" y="113.608"/>
      <point x="138.914" y="-10"/>
      <point x="317" y="-10" type="qcurve" smooth="yes"/>
      <point x="1003" y="-10" type="line" smooth="yes"/>
      <point x="1181.09" y="-10"/>
      <point x="1349.1" y="113.608"/>
      <point x="1374" y="260" type="qcurve" smooth="yes"/>
      <point x="1391" y="356" type="line"/>
      <point x="886" y="464" type="line"/>
      <point x="870" y="372" type="line"/>
      <point x="870" y="372"/>
      <point x="870" y="372"/>
      <point x="870" y="372" type="qcurve"/>
      <point x="584" y="372" type="line"/>
      <point x="584" y="372"/>
      <point x="584" y="372"/>
      <point x="584" y="372" type="qcurve"/>
      <point x="633" y="652" type="line"/>
      <point x="633" y="652"/>
      <point x="633" y="652"/>
      <point x="633" y="652" type="qcurve"/>
      <point x="915" y="652" type="line"/>
      <point x="915" y="652"/>
      <point x="915" y="652"/>
      <point x="915" y="652" type="qcurve"/>
      <point x="899" y="562" type="line"/>
      <point x="1440" y="660" type="line"/>
      <point x="1461" y="778" type="line" smooth="yes"/>
      <point x="1485.15" y="916.846"/>
      <point x="1358.07" y="1034"/>
      <point x="1183" y="1034" type="qcurve" smooth="yes"/>
      <point x="501" y="1034" type="line" smooth="yes"/>
      <point x="325.933" y="1034"/>
      <point x="154.902" y="914.356"/>
      <point x="130" y="774" type="qcurve" smooth="yes"/>
    </contour>
    <contour>
      <point x="671" y="1112" type="qcurve" smooth="yes"/>
      <point x="843" y="1112" type="line" smooth="yes"/>
      <point x="924.497" y="1112"/>
      <point x="958.417" y="1140.01"/>
      <point x="972" y="1220" type="qcurve" smooth="yes"/>
      <point x="996" y="1352" type="line" smooth="yes"/>
      <point x="1009.58" y="1431.99"/>
      <point x="986.497" y="1460"/>
      <point x="905" y="1460" type="qcurve" smooth="yes"/>
      <point x="733" y="1460" type="line" smooth="yes"/>
      <point x="651.503" y="1460"/>
      <point x="617.583" y="1431.99"/>
      <point x="604" y="1352" type="qcurve" smooth="yes"/>
      <point x="580" y="1220" type="line" smooth="yes"/>
      <point x="566.417" y="1140.01"/>
      <point x="589.503" y="1112"/>
    </contour>
  </outline>
</glyph>
<glyph name="Ccaron" format="2">
  <advance width="1715"/>
  <unicode hex="010C"/>
  <anchor x="1059" y="1894" name="top"/>
  <anchor x="755" y="-164" name="bottom"/>
  <anchor x="506" y="1714" name="topright"/>
  <outline>
    <contour>
      <point x="227" y="1080" type="qcurve" smooth="yes"/>
      <point x="96" y="332" type="line" smooth="yes"/>
      <point x="60.5338" y="125.24"/>
      <point x="248.786" y="-14"/>
      <point x="448" y="-14" type="qcurve" smooth="yes"/>
      <point x="1240" y="-14" type="line" smooth="yes"/>
      <point x="1439.21" y="-14"/>
      <point x="1677.78" y="123.73"/>
      <point x="1714" y="332" type="qcurve" smooth="yes"/>
      <point x="1746" y="514" type="line"/>
      <point x="1194" y="626" type="line"/>
      <point x="1163" y="450" type="line"/>
      <point x="1163" y="450"/>
      <point x="1163" y="450"/>
      <point x="1163" y="450" type="qcurve"/>
      <point x="689" y="450" type="line"/>
      <point x="689" y="450"/>
      <point x="689" y="450"/>
      <point x="689" y="450" type="qcurve"/>
      <point x="776" y="950" type="line"/>
      <point x="776" y="950"/>
      <point x="776" y="950"/>
      <point x="776" y="950" type="qcurve"/>
      <point x="1244" y="950" type="line"/>
      <point x="1244" y="950"/>
      <point x="1244" y="950"/>
      <point x="1244" y="950" type="qcurve"/>
      <point x="1218" y="800" type="line"/>
      <point x="1809" y="906" type="line"/>
      <point x="1839" y="1080" type="line" smooth="yes"/>
      <point x="1874.25" y="1281"/>
      <point x="1672" y="1414"/>
      <point x="1483" y="1414" type="qcurve" smooth="yes"/>
      <point x="697" y="1414" type="line" smooth="yes"/>
      <point x="508" y="1414"/>
      <point x="262.25" y="1281"/>
    </contour>
    <contour>
      <point x="1559" y="1814" type="line"/>
      <point x="1083" y="1814" type="line"/>
      <point x="1011" y="1671" type="line"/>
      <point x="969" y="1814" type="line"/>
      <point x="523" y="1814" type="line"/>
      <point x="727" y="1514" type="line"/>
      <point x="1251" y="1514" type="line"/>
    </contour>
  </outline>
</glyph>
<glyph name="Dcaron" format="2">
  <advance width="1872"/>
  <unicode hex="010E"/>
  <anchor x="842.4" y="1880" name="top"/>
  <anchor x="842.4" y="-150" name="bottom"/>
  <anchor x="347" y="1700" name="topright"/>
  <outline>
    <contour>
      <point x="710" y="444" type="line"/>
      <point x="800" y="956" type="line"/>
      <point x="1078" y="956" type="line" smooth="yes"/>
      <point x="1164.25" y="956"/>
      <point x="1285.44" y="929.625"/>
      <point x="1357.06" y="870.375"/>
      <point x="1380" y="775"/>
      <point x="1368" y="706" type="qcurve" smooth="yes"/>
      <point x="1355.62" y="635.875"/>
      <point x="1296.47" y="536.469"/>
      <point x="1200.28" y="473.281"/>
      <point x="1065.75" y="444"/>
      <point x="978" y="444" type="qcurve" smooth="yes"/>
    </contour>
    <contour>
      <point x="61" y="0" type="line"/>
      <point x="1076" y="0" type="line" smooth="yes"/>
      <point x="1229.75" y="0"/>
      <point x="1508.44" y="60.375"/>
      <point x="1733.06" y="208.125"/>
      <point x="1891" y="456.75"/>
      <point x="1924" y="645" type="qcurve" smooth="yes"/>
      <point x="1954.75" y="822"/>
      <point x="1882.34" y="1102.19"/>
      <point x="1702.91" y="1296.81"/>
      <point x="1429.88" y="1400"/>
      <point x="1260" y="1400" type="qcurve" smooth="yes"/>
      <point x="305" y="1400" type="line"/>
    </contour>
    <contour>
      <point x="1400" y="1800" type="line"/>
      <point x="924" y="1800" type="line"/>
      <point x="852" y="1657" type="line"/>
      <point x="810" y="1800" type="line"/>
      <point x="364" y="1800" type="line"/>
      <point x="568" y="1500" type="line"/>
      <point x="1092" y="1500" type="line"/>
    </contour>
  </outline>
  <guideline angle="0" x="0" y="1549"/>
  <guideline angle="0" x="0" y="1325"/>
  <guideline angle="0" x="0" y="73"/>
</glyph>
<glyph name="Ebreve" format="2">
  <advance width="1682"/>
  <unicode hex="0114"/>
  <anchor x="1069" y="1926" name="top"/>
  <anchor x="706" y="-150" name="bottom"/>
  <anchor x="1297" y="0" name="ogonek"/>
  <outline>
    <contour>
      <point x="61" y="0" type="line"/>
      <point x="1581" y="0" type="line"/>
      <point x="1655" y="424" type="line"/>
      <point x="707" y="424" type="line"/>
      <point x="724" y="520" type="line"/>
      <point x="1266" y="520" type="line"/>
      <point x="1330" y="890" type="line"/>
      <point x="788" y="890" type="line"/>
      <point x="803" y="976" type="line"/>
      <point x="1731" y="976" type="line"/>
      <point x="1805" y="1400" type="line"/>
      <point x="305" y="1400" type="line"/>
    </contour>
    <contour>
      <point x="1009" y="1468" type="qcurve" smooth="yes"/>
      <point x="1156.38" y="1468"/>
      <point x="1330.69" y="1501.97"/>
      <point x="1429.31" y="1584.28"/>
      <point x="1474.62" y="1722.12"/>
      <point x="1493" y="1826" type="qcurve"/>
      <point x="1167" y="1826" type="line"/>
      <point x="1160.25" y="1787.38"/>
      <point x="1144.72" y="1738.66"/>
      <point x="1116.03" y="1711.09"/>
      <point x="1068.62" y="1701"/>
      <point x="1030" y="1701" type="qcurve" smooth="yes"/>
      <point x="993.625" y="1701"/>
      <point x="950.406" y="1711.09"/>
      <point x="930.344" y="1738.66"/>
      <point x="930.25" y="1787.38"/>
      <point x="937" y="1826" type="qcurve"/>
      <point x="611" y="1826" type="line"/>
      <point x="592.625" y="1722.12"/>
      <point x="602.438" y="1584.28"/>
      <point x="687.562" y="1501.97"/>
      <point x="862.375" y="1468"/>
    </contour>
  </outline>
  <guideline angle="90" x="-235" y="0"/>
</glyph>
<glyph name="Ecaron" format="2">
  <advance width="1682"/>
  <unicode hex="011A"/>
  <anchor x="1061" y="1880" name="top"/>
  <anchor x="706" y="-150" name="bottom"/>
  <anchor x="1297" y="0" name="ogonek"/>
  <anchor x="508" y="1700" name="topright"/>
  <outline>
    <contour>
      <point x="61" y="0" type="line"/>
      <point x="1581" y="0" type="line"/>
      <point x="1655" y="424" type="line"/>
      <point x="707" y="424" type="line"/>
      <point x="724" y="520" type="line"/>
      <point x="1266" y="520" type="line"/>
      <point x="1330" y="890" type="line"/>
      <point x="788" y="890" type="line"/>
      <point x="803" y="976" type="line"/>
      <point x="1731" y="976" type="line"/>
      <point x="1805" y="1400" type="line"/>
      <point x="305" y="1400" type="line"/>
    </contour>
    <contour>
      <point x="1561" y="1800" type="line"/>
      <point x="1085" y="1800" type="line"/>
      <point x="1013" y="1657" type="line"/>
      <point x="971" y="1800" type="line"/>
      <point x="525" y="1800" type="line"/>
      <point x="729" y="1500" type="line"/>
      <point x="1253" y="1500" type="line"/>
    </contour>
  </outline>
  <guideline angle="90" x="-235" y="0"/>
</glyph>
<glyph name="uni0122" format="2">
  <advance width="1786"/>
  <unicode hex="0122"/>
  <anchor x="1050" y="1550" name="top"/>
  <anchor x="753" y="-150" name="bottom"/>
  <outline>
    <contour>
      <point x="227" y="1080" type="qcurve" smooth="yes"/>
      <point x="97" y="332" type="line" smooth="yes"/>
      <point x="60.7792" y="125.24"/>
      <point x="249.786" y="-14"/>
      <point x="449" y="-14" type="qcurve" smooth="yes"/>
      <point x="1281" y="-14" type="line" smooth="yes"/>
      <point x="1480.21" y="-14"/>
      <point x="1718.78" y="123.73"/>
      <point x="1755" y="332" type="qcurve" smooth="yes"/>
      <point x="1848" y="864" type="line"/>
      <point x="1020" y="864" type="line"/>
      <point x="955" y="494" type="line"/>
      <point x="1211" y="494" type="line"/>
      <point x="1197" y="410" type="line"/>
      <point x="1197" y="410"/>
      <point x="1197" y="410"/>
      <point x="1197" y="410" type="qcurve"/>
      <point x="683" y="410" type="line"/>
      <point x="683" y="410"/>
      <point x="683" y="410"/>
      <point x="683" y="410" type="qcurve"/>
      <point x="784" y="990" type="line"/>
      <point x="784" y="990"/>
      <point x="784" y="990"/>
      <point x="784" y="990" type="qcurve"/>
      <point x="1292" y="990" type="line"/>
      <point x="1292" y="990"/>
      <point x="1292" y="990"/>
      <point x="1292" y="990" type="qcurve"/>
      <point x="1277" y="906" type="line"/>
      <point x="1868" y="1012" type="line"/>
      <point x="1879" y="1080" type="line" smooth="yes"/>
      <point x="1914.25" y="1281"/>
      <point x="1713" y="1414"/>
      <point x="1524" y="1414" type="qcurve" smooth="yes"/>
      <point x="698" y="1414" type="line" smooth="yes"/>
      <point x="509" y="1414"/>
      <point x="262.25" y="1281"/>
    </contour>
    <contour>
      <point x="640" y="-708" type="line"/>
      <point x="879" y="-457" type="line" smooth="yes"/>
      <point x="889.564" y="-445.681"/>
      <point x="902.718" y="-410.429"/>
      <point x="908" y="-381" type="qcurve" smooth="yes"/>
      <point x="936" y="-219" type="line" smooth="yes"/>
      <point x="946.564" y="-159.387"/>
      <point x="918.632" y="-126"/>
      <point x="856" y="-126" type="qcurve" smooth="yes"/>
      <point x="658" y="-126" type="line" smooth="yes"/>
      <point x="595.368" y="-126"/>
      <point x="554.564" y="-159.387"/>
      <point x="544" y="-219" type="qcurve" smooth="yes"/>
      <point x="516" y="-381" type="line" smooth="yes"/>
      <point x="505.436" y="-441.368"/>
      <point x="533.368" y="-475"/>
      <point x="596" y="-475" type="qcurve" smooth="yes"/>
      <point x="644" y="-475" type="line"/>
      <point x="500" y="-678" type="line"/>
    </contour>
  </outline>
  <guideline angle="0" x="0" y="574"/>
  <guideline angle="0" x="0" y="1036"/>
  <guideline angle="0" x="0" y="980"/>
  <guideline angle="0" x="0" y="806"/>
  <guideline angle="0" x="0" y="700"/>
  <guideline angle="0" x="0" y="906"/>
  <guideline angle="0" x="0" y="494"/>
</glyph>
<glyph name="uni0123" format="2">
  <advance width="1605"/>
  <unicode hex="0123"/>
  <anchor x="885" y="1174" name="top"/>
  <anchor x="802.5" y="-578" name="bottom"/>
  <outline>
    <contour>
      <point x="593" y="422" type="qcurve"/>
      <point x="631" y="642" type="line"/>
      <point x="631" y="642"/>
      <point x="631" y="642"/>
      <point x="631" y="642" type="qcurve"/>
      <point x="951" y="642" type="line"/>
      <point x="913" y="422" type="line"/>
      <point x="593" y="422" type="line"/>
      <point x="593" y="422"/>
      <point x="593" y="422"/>
    </contour>
    <contour>
      <point x="6" y="-428" type="line"/>
      <point x="1028" y="-428" type="line" smooth="yes"/>
      <point x="1101.5" y="-428"/>
      <point x="1208.56" y="-385.688"/>
      <point x="1283.94" y="-302.812"/>
      <point x="1331.75" y="-180.25"/>
      <point x="1346" y="-100" type="qcurve" smooth="yes"/>
      <point x="1542" y="1024" type="line"/>
      <point x="1018" y="1024" type="line"/>
      <point x="998" y="912" type="line"/>
      <point x="974.607" y="969.35"/>
      <point x="851.153" y="1024"/>
      <point x="744" y="1024" type="qcurve" smooth="yes"/>
      <point x="480" y="1024" type="line" smooth="yes"/>
      <point x="320.025" y="1024"/>
      <point x="152.393" y="901.3"/>
      <point x="129" y="770" type="qcurve" smooth="yes"/>
      <point x="48" y="304" type="line" smooth="yes"/>
      <point x="23.8528" y="165.154"/>
      <point x="146.516" y="40"/>
      <point x="308" y="40" type="qcurve" smooth="yes"/>
      <point x="572" y="40" type="line" smooth="yes"/>
      <point x="679.153" y="40"/>
      <point x="823.742" y="94.6504"/>
      <point x="866" y="152" type="qcurve"/>
      <point x="825" y="-78" type="line"/>
      <point x="825" y="-78"/>
      <point x="825" y="-78"/>
      <point x="825" y="-78" type="qcurve"/>
      <point x="-5" y="-78" type="line"/>
    </contour>
    <contour>
      <point x="829" y="1684" type="line"/>
      <point x="590" y="1433" type="line" smooth="yes"/>
      <point x="579.436" y="1421.68"/>
      <point x="566.282" y="1386.43"/>
      <point x="561" y="1357" type="qcurve" smooth="yes"/>
      <point x="533" y="1195" type="line" smooth="yes"/>
      <point x="522.436" y="1135.39"/>
      <point x="550.368" y="1102"/>
      <point x="613" y="1102" type="qcurve" smooth="yes"/>
      <point x="811" y="1102" type="line" smooth="yes"/>
      <point x="873.632" y="1102"/>
      <point x="914.436" y="1135.39"/>
      <point x="925" y="1195" type="qcurve" smooth="yes"/>
      <point x="953" y="1357" type="line" smooth="yes"/>
      <point x="963.564" y="1417.37"/>
      <point x="935.632" y="1451"/>
      <point x="873" y="1451" type="qcurve" smooth="yes"/>
      <point x="825" y="1451" type="line"/>
      <point x="969" y="1654" type="line"/>
    </contour>
  </outline>
</glyph>
<glyph name="Hbar" format="2">
  <advance width="2172"/>
  <unicode hex="0126"/>
  <outline>
    <contour>
      <point x="111" y="0" type="line"/>
      <point x="683" y="0" type="line"/>
      <point x="767" y="482" type="line"/>
      <point x="1337" y="482" type="line"/>
      <point x="1253" y="0" type="line"/>
      <point x="1825" y="0" type="line"/>
      <point x="2069" y="1400" type="line"/>
      <point x="1497" y="1400" type="line"/>
      <point x="1391" y="794" type="line"/>
      <point x="821" y="794" type="line"/>
      <point x="927" y="1400" type="line"/>
      <point x="355" y="1400" type="line"/>
    </contour>
    <contour>
      <point x="2081" y="894" type="line"/>
      <point x="2135" y="1206" type="line"/>
      <point x="221" y="1206" type="line"/>
      <point x="167" y="894" type="line"/>
    </contour>
  </outline>
  <guideline angle="0" color="1,0,0,1" x="0" y="1050"/>
</glyph>
<glyph name="Itilde" format="2">
  <advance width="754"/>
  <unicode hex="0128"/>
  <anchor x="606" y="1987" name="top"/>
  <anchor x="232" y="-150" name="bottom"/>
  <anchor x="369" y="0" name="ogonek"/>
  <outline>
    <contour>
      <point x="61" y="0" type="line"/>
      <point x="633" y="0" type="line"/>
      <point x="877" y="1400" type="line"/>
      <point x="305" y="1400" type="line"/>
    </contour>
    <contour>
      <point x="5" y="1529" type="qcurve"/>
      <point x="309" y="1477" type="line"/>
      <point x="313.528" y="1492.85"/>
      <point x="356.479" y="1541"/>
      <point x="401" y="1541" type="qcurve" smooth="yes"/>
      <point x="441.125" y="1541"/>
      <point x="516.875" y="1521"/>
      <point x="594.125" y="1497"/>
      <point x="675.875" y="1477"/>
      <point x="722" y="1477" type="qcurve" smooth="yes"/>
      <point x="803.75" y="1477"/>
      <point x="922.875" y="1537.41"/>
      <point x="1010.62" y="1637.34"/>
      <point x="1073.5" y="1766.38"/>
      <point x="1099" y="1835" type="qcurve"/>
      <point x="795" y="1887" type="line"/>
      <point x="790.472" y="1871.15"/>
      <point x="747.521" y="1823"/>
      <point x="703" y="1823" type="qcurve" smooth="yes"/>
      <point x="662.875" y="1823"/>
      <point x="587.125" y="1843"/>
      <point x="509.875" y="1867"/>
      <point x="428.125" y="1887"/>
      <point x="382" y="1887" type="qcurve" smooth="yes"/>
      <point x="300.25" y="1887"/>
      <point x="181.969" y="1831.09"/>
      <point x="94.7812" y="1734.16"/>
      <point x="31.625" y="1603.62"/>
    </contour>
  </outline>
  <guideline angle="90" x="-183" y="0"/>
  <guideline angle="90" x="857" y="0"/>
</glyph>
<glyph name="dotlessi" format="2">
  <advance width="782"/>
  <unicode hex="0131"/>
  <anchor x="246" y="-150" name="bottom"/>
  <anchor x="477" y="1174" name="top"/>
  <anchor x="382" y="0" name="ogonek"/>
  <outline>
    <contour>
      <point x="10" y="0" type="line"/>
      <point x="534" y="0" type="line"/>
      <point x="713" y="1024" type="line"/>
      <point x="189" y="1024" type="line"/>
    </contour>
  </outline>
</glyph>
<glyph name="uni0137" format="2">
  <advance width="1698"/>
  <unicode hex="0137"/>
  <anchor x="463" y="1598" name="top"/>
  <anchor x="578" y="-150" name="bottom"/>
  <anchor x="-50" y="736" name="left"/>
  <outline>
    <contour>
      <point x="11" y="0" type="line"/>
      <point x="535" y="0" type="line"/>
      <point x="621" y="493" type="line"/>
      <point x="590" y="493" type="line"/>
      <point x="979" y="0" type="line"/>
      <point x="1666" y="0" type="line"/>
      <point x="1160" y="598" type="line"/>
      <point x="1129" y="515" type="line"/>
      <point x="1742" y="1024" type="line"/>
      <point x="1104" y="1024" type="line"/>
      <point x="622" y="616" type="line"/>
      <point x="643" y="616" type="line"/>
      <point x="792" y="1472" type="line"/>
      <point x="268" y="1472" type="line"/>
    </contour>
    <contour>
      <point x="465" y="-708" type="line"/>
      <point x="704" y="-457" type="line" smooth="yes"/>
      <point x="714.564" y="-445.681"/>
      <point x="727.718" y="-410.429"/>
      <point x="733" y="-381" type="qcurve" smooth="yes"/>
      <point x="761" y="-219" type="line" smooth="yes"/>
      <point x="771.564" y="-159.387"/>
      <point x="743.632" y="-126"/>
      <point x="681" y="-126" type="qcurve" smooth="yes"/>
      <point x="483" y="-126" type="line" smooth="yes"/>
      <point x="420.368" y="-126"/>
      <point x="379.564" y="-159.387"/>
      <point x="369" y="-219" type="qcurve" smooth="yes"/>
      <point x="341" y="-381" type="line" smooth="yes"/>
      <point x="330.436" y="-441.368"/>
      <point x="358.368" y="-475"/>
      <point x="421" y="-475" type="qcurve" smooth="yes"/>
      <point x="469" y="-475" type="line"/>
      <point x="325" y="-678" type="line"/>
    </contour>
  </outline>
</glyph>
<glyph name="Lacute" format="2">
  <advance width="1466"/>
  <unicode hex="0139"/>
  <anchor x="531" y="1550" name="top"/>
  <anchor x="608" y="-150" name="bottom"/>
  <anchor x="-6" y="700" name="left"/>
  <anchor x="928" y="1400" name="right"/>
  <anchor x="1176" y="800" name="eldot"/>
  <anchor x="280" y="1476" name="topright"/>
  <outline>
    <contour>
      <point x="61" y="0" type="line"/>
      <point x="1385" y="0" type="line"/>
      <point x="1469" y="484" type="line"/>
      <point x="717" y="484" type="line"/>
      <point x="877" y="1400" type="line"/>
      <point x="305" y="1400" type="line"/>
    </contour>
    <contour>
      <point x="180" y="1476" type="line"/>
      <point x="740" y="1476" type="line"/>
      <point x="1197" y="1776" type="line"/>
      <point x="491" y="1776" type="line"/>
    </contour>
  </outline>
</glyph>
<glyph name="lcaron" format="2">
  <advance width="606"/>
  <unicode hex="013E"/>
  <anchor x="463" y="1598" name="top"/>
  <anchor x="158" y="-150" name="bottom"/>
  <anchor x="703" y="1472" name="right"/>
  <anchor x="698" y="700" name="eldot"/>
  <outline>
    <contour>
      <point x="-77" y="0" type="line"/>
      <point x="447" y="0" type="line"/>
      <point x="704" y="1472" type="line"/>
      <point x="180" y="1472" type="line"/>
    </contour>
    <contour>
      <point x="721" y="1170" type="line"/>
      <point x="1088" y="1217" type="line"/>
      <point x="1224" y="1472" type="line"/>
      <point x="817" y="1472" type="line"/>
    </contour>
  </outline>
</glyph>
<glyph name="ldot" format="2">
  <advance width="606"/>
  <unicode hex="0140"/>
  <anchor x="463" y="1598" name="top"/>
  <anchor x="158" y="-150" name="bottom"/>
  <anchor x="703" y="1472" name="right"/>
  <anchor x="698" y="700" name="eldot"/>
  <outline>
    <contour>
      <point x="-77" y="0" type="line"/>
      <point x="447" y="0" type="line"/>
      <point x="704" y="1472" type="line"/>
      <point x="180" y="1472" type="line"/>
    </contour>
    <contour>
      <point x="593" y="645" type="line" smooth="yes"/>
      <point x="578.663" y="563.503"/>
      <point x="596.595" y="535"/>
      <point x="663" y="535" type="qcurve" smooth="yes"/>
      <point x="675" y="535" type="line" smooth="yes"/>
      <point x="741.405" y="535"/>
      <point x="770.663" y="563.503"/>
      <point x="785" y="645" type="qcurve" smooth="yes"/>
      <point x="804" y="757" type="line" smooth="yes"/>
      <point x="818.337" y="836.988"/>
      <point x="799.405" y="865"/>
      <point x="733" y="865" type="qcurve" smooth="yes"/>
      <point x="721" y="865" type="line" smooth="yes"/>
      <point x="654.595" y="865"/>
      <point x="626.337" y="836.988"/>
      <point x="612" y="757" type="qcurve" smooth="yes"/>
    </contour>
  </outline>
</glyph>
<glyph name="Lslash" format="2">
  <advance width="1555"/>
  <unicode hex="0141"/>
  <outline>
    <contour>
      <point x="60" y="0" type="line"/>
      <point x="1384" y="0" type="line"/>
      <point x="1468" y="484" type="line"/>
      <point x="716" y="484" type="line"/>
      <point x="752" y="691" type="line"/>
      <point x="1089" y="807" type="line"/>
      <point x="1118" y="975" type="line"/>
      <point x="782" y="860" type="line"/>
      <point x="876" y="1400" type="line"/>
      <point x="304" y="1400" type="line"/>
      <point x="174" y="651" type="line"/>
      <point x="34" y="603" type="line"/>
      <point x="4" y="435" type="line"/>
      <point x="144" y="483" type="line"/>
    </contour>
  </outline>
</glyph>
<glyph name="omacron" format="2">
  <advance width="1391"/>
  <unicode hex="014D"/>
  <anchor x="844" y="1530" name="top"/>
  <anchor x="550" y="-150" name="bottom"/>
  <anchor x="1382" y="780" name="horn"/>
  <anchor x="762" y="0" name="ogonek"/>
  <outline>
    <contour>
      <point x="39" y="254" type="line" smooth="yes"/>
      <point x="14.8528" y="115.154"/>
      <point x="137.516" y="-10"/>
      <point x="299" y="-10" type="qcurve" smooth="yes"/>
      <point x="1027" y="-10" type="line" smooth="yes"/>
      <point x="1189.99" y="-10"/>
      <point x="1354.85" y="115.154"/>
      <point x="1379" y="254" type="qcurve" smooth="yes"/>
      <point x="1471" y="780" type="line" smooth="yes"/>
      <point x="1494.39" y="911.3"/>
      <point x="1368.98" y="1034"/>
      <point x="1209" y="1034" type="qcurve" smooth="yes"/>
      <point x="481" y="1034" type="line" smooth="yes"/>
      <point x="321.025" y="1034"/>
      <point x="154.393" y="911.3"/>
      <point x="131" y="780" type="qcurve" smooth="yes"/>
    </contour>
    <contour>
      <point x="584" y="372" type="qcurve"/>
      <point x="633" y="652" type="line"/>
      <point x="633" y="652"/>
      <point x="633" y="652"/>
      <point x="633" y="652" type="qcurve"/>
      <point x="925" y="652" type="line"/>
      <point x="925" y="652"/>
      <point x="925" y="652"/>
      <point x="925" y="652" type="qcurve"/>
      <point x="876" y="372" type="line"/>
      <point x="876" y="372"/>
      <point x="876" y="372"/>
      <point x="876" y="372" type="qcurve"/>
      <point x="584" y="372" type="line"/>
      <point x="584" y="372"/>
      <point x="584" y="372"/>
    </contour>
    <contour>
      <point x="382" y="1154" type="line"/>
      <point x="1172" y="1154" type="line"/>
      <point x="1221" y="1430" type="line"/>
      <point x="431" y="1430" type="line"/>
    </contour>
  </outline>
  <guideline angle="0" x="0" y="630"/>
</glyph>
<glyph name="oe" format="2">
  <advance width="2284"/>
  <unicode hex="0153"/>
  <anchor x="2528" y="1174" name="top"/>
  <anchor x="2297" y="-150" name="bottom"/>
  <outline>
    <contour>
      <point x="271" y="-10" type="qcurve" smooth="yes"/>
      <point x="770" y="-10" type="line" smooth="yes"/>
      <point x="857.534" y="-10"/>
      <point x="993.479" y="35.951"/>
      <point x="1038" y="85" type="qcurve"/>
      <point x="1064.41" y="35.951"/>
      <point x="1182.22" y="-10"/>
      <point x="1269" y="-10" type="qcurve" smooth="yes"/>
      <point x="1765" y="-10" type="line" smooth="yes"/>
      <point x="1829.5" y="-10"/>
      <point x="1937.31" y="21"/>
      <point x="2020.19" y="87"/>
      <point x="2076.25" y="190"/>
      <point x="2089" y="262" type="qcurve"/>
      <point x="2093" y="288" type="line"/>
      <point x="1593" y="366" type="line"/>
      <point x="1580" y="292" type="line"/>
      <point x="1580" y="292"/>
      <point x="1580" y="292"/>
      <point x="1580" y="292" type="qcurve"/>
      <point x="1336" y="292" type="line"/>
      <point x="1336" y="292"/>
      <point x="1336" y="292"/>
      <point x="1336" y="292" type="qcurve"/>
      <point x="1356" y="408" type="line"/>
      <point x="2122" y="408" type="line"/>
      <point x="2192" y="808" type="line" smooth="yes"/>
      <point x="2204" y="877.75"/>
      <point x="2177.75" y="965.812"/>
      <point x="2111.75" y="1015.69"/>
      <point x="2011.25" y="1034"/>
      <point x="1949" y="1034" type="qcurve" smooth="yes"/>
      <point x="1478" y="1034" type="line" smooth="yes"/>
      <point x="1382.92" y="1034"/>
      <point x="1235.29" y="991.804"/>
      <point x="1187" y="942" type="qcurve"/>
      <point x="1160.59" y="990.294"/>
      <point x="1040.78" y="1034"/>
      <point x="954" y="1034" type="qcurve" smooth="yes"/>
      <point x="453" y="1034" type="line" smooth="yes"/>
      <point x="390.75" y="1034"/>
      <point x="283.25" y="1003.88"/>
      <point x="199.25" y="940.125"/>
      <point x="142" y="841"/>
      <point x="130" y="772" type="qcurve" smooth="yes"/>
      <point x="34" y="222" type="line" smooth="yes"/>
      <point x="21.25" y="150"/>
      <point x="43.1875" y="59.5"/>
      <point x="105.812" y="8.5"/>
      <point x="205.75" y="-10"/>
    </contour>
    <contour>
      <point x="1637" y="632" type="line"/>
      <point x="1395" y="632" type="line"/>
      <point x="1413" y="732" type="line"/>
      <point x="1413" y="732"/>
      <point x="1413" y="732"/>
      <point x="1413" y="732" type="qcurve"/>
      <point x="1655" y="732" type="line"/>
      <point x="1655" y="732"/>
      <point x="1655" y="732"/>
      <point x="1655" y="732" type="qcurve"/>
    </contour>
    <contour>
      <point x="570" y="292" type="qcurve"/>
      <point x="647" y="732" type="line"/>
      <point x="647" y="732"/>
      <point x="647" y="732"/>
      <point x="647" y="732" type="qcurve"/>
      <point x="889" y="732" type="line"/>
      <point x="889" y="732"/>
      <point x="889.245" y="732"/>
      <point x="890" y="732" type="qcurve"/>
      <point x="813" y="292" type="line"/>
      <point x="813" y="292"/>
      <point x="813" y="292"/>
      <point x="813" y="292" type="qcurve"/>
      <point x="570" y="292" type="line"/>
      <point x="570" y="292"/>
      <point x="570" y="292"/>
    </contour>
  </outline>
  <guideline angle="260.1" color="1,0,0,1" x="1023" y="0"/>
</glyph>
<glyph name="Racute" format="2">
  <advance width="1680"/>
  <unicode hex="0154"/>
  <anchor x="719" y="-150" name="bottom"/>
  <anchor x="986" y="1550" name="top"/>
  <anchor x="735" y="1476" name="topright"/>
  <outline>
    <contour>
      <point x="61" y="0" type="line"/>
      <point x="633" y="0" type="line"/>
      <point x="703" y="400" type="line"/>
      <point x="811" y="400" type="line"/>
      <point x="1050" y="0" type="line"/>
      <point x="1731" y="0" type="line"/>
      <point x="1426" y="459" type="line"/>
      <point x="1426" y="459" type="line"/>
      <point x="1550.5" y="480.75"/>
      <point x="1714" y="626"/>
      <point x="1741" y="782" type="qcurve" smooth="yes"/>
      <point x="1791" y="1066" type="line" smooth="yes"/>
      <point x="1826.25" y="1267"/>
      <point x="1624" y="1400"/>
      <point x="1435" y="1400" type="qcurve" smooth="yes"/>
      <point x="305" y="1400" type="line"/>
    </contour>
    <contour>
      <point x="776" y="820" type="line"/>
      <point x="801" y="960" type="line"/>
      <point x="1143" y="960" type="line" smooth="yes"/>
      <point x="1176.2" y="960"/>
      <point x="1204.53" y="927.166"/>
      <point x="1200" y="900" type="qcurve" smooth="yes"/>
      <point x="1197" y="880" type="line"/>
      <point x="1191.72" y="852.834"/>
      <point x="1151.2" y="820"/>
      <point x="1118" y="820" type="qcurve" smooth="yes"/>
    </contour>
    <contour>
      <point x="635" y="1476" type="line"/>
      <point x="1195" y="1476" type="line"/>
      <point x="1652" y="1776" type="line"/>
      <point x="946" y="1776" type="line"/>
    </contour>
  </outline>
</glyph>
<glyph name="racute" format="2">
  <advance width="1296"/>
  <unicode hex="0155"/>
  <anchor x="731" y="1184" name="top"/>
  <anchor x="157" y="-150" name="bottom"/>
  <anchor x="-89" y="517" name="left"/>
  <outline>
    <contour>
      <point x="10" y="0" type="line"/>
      <point x="534" y="0" type="line"/>
      <point x="639" y="602" type="line"/>
      <point x="837" y="602" type="line"/>
      <point x="837" y="602"/>
      <point x="837" y="602"/>
      <point x="837" y="602" type="qcurve"/>
      <point x="822" y="517" type="line"/>
      <point x="1360" y="596" type="line"/>
      <point x="1384" y="734" type="line" smooth="yes"/>
      <point x="1397.5" y="812"/>
      <point x="1374.12" y="925.25"/>
      <point x="1296.88" y="998.75"/>
      <point x="1164" y="1034"/>
      <point x="1068" y="1034" type="qcurve" smooth="yes"/>
      <point x="1000" y="1034" type="line" smooth="yes"/>
      <point x="882.282" y="1034"/>
      <point x="737.503" y="984.331"/>
      <point x="696" y="930" type="qcurve"/>
      <point x="713" y="1024" type="line"/>
      <point x="189" y="1024" type="line"/>
    </contour>
    <contour>
      <point x="385" y="1110" type="line"/>
      <point x="885" y="1110" type="line"/>
      <point x="1350" y="1458" type="line"/>
      <point x="749" y="1458" type="line"/>
    </contour>
  </outline>
</glyph>
<glyph name="uni0156" format="2">
  <advance width="1680"/>
  <unicode hex="0156"/>
  <anchor x="719" y="-150" name="bottom"/>
  <anchor x="986" y="1550" name="top"/>
  <outline>
    <contour>
      <point x="61" y="0" type="line"/>
      <point x="633" y="0" type="line"/>
      <point x="703" y="400" type="line"/>
      <point x="811" y="400" type="line"/>
      <point x="1050" y="0" type="line"/>
      <point x="1731" y="0" type="line"/>
      <point x="1426" y="459" type="line"/>
      <point x="1426" y="459" type="line"/>
      <point x="1550.5" y="480.75"/>
      <point x="1714" y="626"/>
      <point x="1741" y="782" type="qcurve" smooth="yes"/>
      <point x="1791" y="1066" type="line" smooth="yes"/>
      <point x="1826.25" y="1267"/>
      <point x="1624" y="1400"/>
      <point x="1435" y="1400" type="qcurve" smooth="yes"/>
      <point x="305" y="1400" type="line"/>
    </contour>
    <contour>
      <point x="776" y="820" type="line"/>
      <point x="801" y="960" type="line"/>
      <point x="1143" y="960" type="line" smooth="yes"/>
      <point x="1176.2" y="960"/>
      <point x="1204.53" y="927.166"/>
      <point x="1200" y="900" type="qcurve" smooth="yes"/>
      <point x="1197" y="880" type="line"/>
      <point x="1191.72" y="852.834"/>
      <point x="1151.2" y="820"/>
      <point x="1118" y="820" type="qcurve" smooth="yes"/>
    </contour>
    <contour>
      <point x="606" y="-708" type="line"/>
      <point x="845" y="-457" type="line" smooth="yes"/>
      <point x="855.564" y="-445.681"/>
      <point x="868.718" y="-410.429"/>
      <point x="874" y="-381" type="qcurve" smooth="yes"/>
      <point x="902" y="-219" type="line" smooth="yes"/>
      <point x="912.564" y="-159.387"/>
      <point x="884.632" y="-126"/>
      <point x="822" y="-126" type="qcurve" smooth="yes"/>
      <point x="624" y="-126" type="line" smooth="yes"/>
      <point x="561.368" y="-126"/>
      <point x="520.564" y="-159.387"/>
      <point x="510" y="-219" type="qcurve" smooth="yes"/>
      <point x="482" y="-381" type="line" smooth="yes"/>
      <point x="471.436" y="-441.368"/>
      <point x="499.368" y="-475"/>
      <point x="562" y="-475" type="qcurve" smooth="yes"/>
      <point x="610" y="-475" type="line"/>
      <point x="466" y="-678" type="line"/>
    </contour>
  </outline>
</glyph>
<glyph name="uni0162" format="2">
  <advance width="1625"/>
  <unicode hex="0162"/>
  <anchor x="965" y="1550" name="top"/>
  <anchor x="668" y="-150" name="bottom"/>
  <outline>
    <contour>
      <point x="408" y="0" type="line"/>
      <point x="980" y="0" type="line"/>
      <point x="1140" y="916" type="line"/>
      <point x="1616" y="916" type="line"/>
      <point x="1701" y="1400" type="line"/>
      <point x="177" y="1400" type="line"/>
      <point x="92" y="916" type="line"/>
      <point x="568" y="916" type="line"/>
    </contour>
    <contour>
      <point x="588" y="-438" type="qcurve" smooth="yes"/>
      <point x="635.625" y="-438"/>
      <point x="727.594" y="-420.031"/>
      <point x="803.156" y="-379.719"/>
      <point x="855.75" y="-314.875"/>
      <point x="864" y="-268" type="qcurve" smooth="yes"/>
      <point x="870.75" y="-229.75"/>
      <point x="861.594" y="-162.219"/>
      <point x="826.156" y="-111.031"/>
      <point x="762.625" y="-79.875"/>
      <point x="715" y="-78" type="qcurve"/>
      <point x="753" y="0" type="line"/>
      <point x="616" y="0" type="line"/>
      <point x="507" y="-221" type="line"/>
      <point x="522.847" y="-214.209"/>
      <point x="545.38" y="-209"/>
      <point x="565" y="-209" type="qcurve" smooth="yes"/>
      <point x="585.374" y="-209"/>
      <point x="610.773" y="-233.853"/>
      <point x="607" y="-258" type="qcurve"/>
      <point x="602.472" y="-282.902"/>
      <point x="566.147" y="-311"/>
      <point x="542" y="-311" type="qcurve" smooth="yes"/>
      <point x="516.344" y="-311"/>
      <point x="475.055" y="-301.791"/>
      <point x="466" y="-295" type="qcurve"/>
      <point x="403" y="-388" type="line"/>
      <point x="441.485" y="-412.902"/>
      <point x="529.896" y="-438"/>
    </contour>
  </outline>
</glyph>
<glyph name="umacron" format="2">
  <advance width="1346"/>
  <unicode hex="016B"/>
  <anchor x="821" y="1530" name="top"/>
  <anchor x="527" y="-150" name="bottom"/>
  <anchor x="739" y="0" name="ogonek"/>
  <anchor x="1372" y="1024" name="horn"/>
  <outline>
    <contour>
      <point x="-51" y="204" type="line" smooth="yes"/>
      <point x="-73.638" y="77.2272"/>
      <point x="42.3008" y="0"/>
      <point x="157" y="0" type="qcurve" smooth="yes"/>
      <point x="947" y="0" type="line" smooth="yes"/>
      <point x="1061.7" y="0"/>
      <point x="1206.36" y="77.2272"/>
      <point x="1229" y="204" type="qcurve" smooth="yes"/>
      <point x="1372" y="1024" type="line"/>
      <point x="848" y="1024" type="line"/>
      <point x="741" y="412" type="line"/>
      <point x="741" y="412"/>
      <point x="741" y="412"/>
      <point x="741" y="412" type="qcurve"/>
      <point x="509" y="412" type="line"/>
      <point x="509" y="412"/>
      <point x="509" y="412"/>
      <point x="509" y="412" type="qcurve"/>
      <point x="616" y="1024" type="line"/>
      <point x="92" y="1024" type="line"/>
    </contour>
    <contour>
      <point x="359" y="1154" type="line"/>
      <point x="1149" y="1154" type="line"/>
      <point x="1198" y="1430" type="line"/>
      <point x="408" y="1430" type="line"/>
    </contour>
  </outline>
  <guideline angle="0" x="0" y="630"/>
</glyph>
<glyph name="ubreve" format="2">
  <advance width="1346"/>
  <unicode hex="016D"/>
  <anchor x="826" y="1561" name="top"/>
  <anchor x="527" y="-150" name="bottom"/>
  <anchor x="739" y="0" name="ogonek"/>
  <anchor x="1372" y="1024" name="horn"/>
  <outline>
    <contour>
      <point x="-51" y="204" type="line" smooth="yes"/>
      <point x="-73.638" y="77.2272"/>
      <point x="42.3008" y="0"/>
      <point x="157" y="0" type="qcurve" smooth="yes"/>
      <point x="947" y="0" type="line" smooth="yes"/>
      <point x="1061.7" y="0"/>
      <point x="1206.36" y="77.2272"/>
      <point x="1229" y="204" type="qcurve" smooth="yes"/>
      <point x="1372" y="1024" type="line"/>
      <point x="848" y="1024" type="line"/>
      <point x="741" y="412" type="line"/>
      <point x="741" y="412"/>
      <point x="741" y="412"/>
      <point x="741" y="412" type="qcurve"/>
      <point x="509" y="412" type="line"/>
      <point x="509" y="412"/>
      <point x="509" y="412"/>
      <point x="509" y="412" type="qcurve"/>
      <point x="616" y="1024" type="line"/>
      <point x="92" y="1024" type="line"/>
    </contour>
    <contour>
      <point x="765" y="1099" type="qcurve" smooth="yes"/>
      <point x="891.375" y="1099"/>
      <point x="1041.62" y="1137.59"/>
      <point x="1127.88" y="1223.66"/>
      <point x="1169.38" y="1361.62"/>
      <point x="1187" y="1461" type="qcurve"/>
      <point x="922" y="1461" type="line"/>
      <point x="915.625" y="1425"/>
      <point x="897.969" y="1375.38"/>
      <point x="867.781" y="1344.62"/>
      <point x="821.25" y="1331"/>
      <point x="786" y="1331" type="qcurve" smooth="yes"/>
      <point x="749.625" y="1331"/>
      <point x="707" y="1344.62"/>
      <point x="687.5" y="1375.38"/>
      <point x="687.625" y="1425"/>
      <point x="694" y="1461" type="qcurve"/>
      <point x="429" y="1461" type="line"/>
      <point x="411.375" y="1361.62"/>
      <point x="417.188" y="1223.66"/>
      <point x="488.812" y="1137.59"/>
      <point x="638.625" y="1099"/>
    </contour>
  </outline>
</glyph>
<glyph name="uhungarumlaut" format="2">
  <advance width="1346"/>
  <unicode hex="0171"/>
  <anchor x="758" y="1174" name="top"/>
  <anchor x="527" y="-150" name="bottom"/>
  <anchor x="739" y="0" name="ogonek"/>
  <anchor x="1372" y="1024" name="horn"/>
  <outline>
    <contour>
      <point x="-51" y="204" type="line" smooth="yes"/>
      <point x="-73.638" y="77.2272"/>
      <point x="42.3008" y="0"/>
      <point x="157" y="0" type="qcurve" smooth="yes"/>
      <point x="947" y="0" type="line" smooth="yes"/>
      <point x="1061.7" y="0"/>
      <point x="1206.36" y="77.2272"/>
      <point x="1229" y="204" type="qcurve" smooth="yes"/>
      <point x="1372" y="1024" type="line"/>
      <point x="848" y="1024" type="line"/>
      <point x="741" y="412" type="line"/>
      <point x="741" y="412"/>
      <point x="741" y="412"/>
      <point x="741" y="412" type="qcurve"/>
      <point x="509" y="412" type="line"/>
      <point x="509" y="412"/>
      <point x="509" y="412"/>
      <point x="509" y="412" type="qcurve"/>
      <point x="616" y="1024" type="line"/>
      <point x="92" y="1024" type="line"/>
    </contour>
    <contour>
      <point x="218.23" y="1100" type="line"/>
      <point x="618.23" y="1100" type="line"/>
      <point x="1002.51" y="1448" type="line"/>
      <point x="521.714" y="1448" type="line"/>
    </contour>
    <contour>
      <point x="826.23" y="1100" type="line"/>
      <point x="1226.23" y="1100" type="line"/>
      <point x="1610.51" y="1448" type="line"/>
      <point x="1129.71" y="1448" type="line"/>
    </contour>
  </outline>
</glyph>
<glyph name="wcircumflex" format="2">
  <advance width="2205"/>
  <unicode hex="0175"/>
  <anchor x="1274" y="1548" name="top"/>
  <anchor x="957" y="-150" name="bottom"/>
  <anchor x="1704" y="1274" name="topright"/>
  <outline>
    <contour>
      <point x="338" y="0" type="line"/>
      <point x="819" y="0" type="line"/>
      <point x="1082" y="510" type="line"/>
      <point x="1168" y="0" type="line"/>
      <point x="1640" y="0" type="line"/>
      <point x="2269" y="1024" type="line"/>
      <point x="1749" y="1024" type="line"/>
      <point x="1487" y="518" type="line"/>
      <point x="1408" y="1024" type="line"/>
      <point x="926" y="1024" type="line"/>
      <point x="672" y="520" type="line"/>
      <point x="588" y="1024" type="line"/>
      <point x="67" y="1024" type="line"/>
    </contour>
    <contour>
      <point x="717" y="1100" type="line"/>
      <point x="1170" y="1100" type="line"/>
      <point x="1243" y="1243" type="line"/>
      <point x="1284" y="1100" type="line"/>
      <point x="1673" y="1100" type="line"/>
      <point x="1443" y="1448" type="line"/>
      <point x="1071" y="1448" type="line"/>
    </contour>
  </outline>
</glyph>
<glyph name="zdotaccent" format="2">
  <advance width="1246"/>
  <unicode hex="017C"/>
  <anchor x="773" y="1540" name="top"/>
  <anchor x="478" y="-150" name="bottom"/>
  <outline>
    <contour>
      <point x="-60" y="0" type="line"/>
      <point x="1159" y="0" type="line"/>
      <point x="1226" y="382" type="line"/>
      <point x="758" y="382" type="line"/>
      <point x="761" y="374" type="line"/>
      <point x="1294" y="807" type="line"/>
      <point x="1332" y="1024" type="line"/>
      <point x="180" y="1024" type="line"/>
      <point x="113" y="642" type="line"/>
      <point x="514" y="642" type="line"/>
      <point x="511" y="650" type="line"/>
      <point x="-22" y="217" type="line"/>
    </contour>
    <contour>
      <point x="603" y="1112" type="qcurve" smooth="yes"/>
      <point x="775" y="1112" type="line" smooth="yes"/>
      <point x="856.497" y="1112"/>
      <point x="890.417" y="1140.01"/>
      <point x="904" y="1220" type="qcurve" smooth="yes"/>
      <point x="928" y="1352" type="line" smooth="yes"/>
      <point x="941.583" y="1431.99"/>
      <point x="918.497" y="1460"/>
      <point x="837" y="1460" type="qcurve" smooth="yes"/>
      <point x="665" y="1460" type="line" smooth="yes"/>
      <point x="583.503" y="1460"/>
      <point x="549.583" y="1431.99"/>
      <point x="536" y="1352" type="qcurve" smooth="yes"/>
      <point x="512" y="1220" type="line" smooth="yes"/>
      <point x="498.417" y="1140.01"/>
      <point x="521.503" y="1112"/>
    </contour>
  </outline>
</glyph>
<glyph name="zcaron" format="2">
  <advance width="1246"/>
  <unicode hex="017E"/>
  <anchor x="779" y="1562" name="top"/>
  <anchor x="478" y="-150" name="bottom"/>
  <anchor x="245" y="1288" name="topright"/>
  <outline>
    <contour>
      <point x="-60" y="0" type="line"/>
      <point x="1159" y="0" type="line"/>
      <point x="1226" y="382" type="line"/>
      <point x="758" y="382" type="line"/>
      <point x="761" y="374" type="line"/>
      <point x="1294" y="807" type="line"/>
      <point x="1332" y="1024" type="line"/>
      <point x="180" y="1024" type="line"/>
      <point x="113" y="642" type="line"/>
      <point x="514" y="642" type="line"/>
      <point x="511" y="650" type="line"/>
      <point x="-22" y="217" type="line"/>
    </contour>
    <contour>
      <point x="1232" y="1462" type="line"/>
      <point x="779" y="1462" type="line"/>
      <point x="706" y="1319" type="line"/>
      <point x="665" y="1462" type="line"/>
      <point x="276" y="1462" type="line"/>
      <point x="506" y="1114" type="line"/>
      <point x="878" y="1114" type="line"/>
    </contour>
  </outline>
</glyph>
<glyph name="uni018A" format="2">
  <advance width="2355"/>
  <unicode hex="018A"/>
  <anchor x="1059.75" y="1550" name="top"/>
  <anchor x="1059.75" y="-150" name="bottom"/>
  <outline>
    <contour>
      <point x="367" y="0" type="line"/>
      <point x="1382" y="0" type="line" smooth="yes"/>
      <point x="1535.75" y="0"/>
      <point x="1814.44" y="60.375"/>
      <point x="2039.06" y="208.125"/>
      <point x="2197" y="456.75"/>
      <point x="2230" y="645" type="qcurve" smooth="yes"/>
      <point x="2260.75" y="822"/>
      <point x="2188.34" y="1102.19"/>
      <point x="2008.91" y="1296.81"/>
      <point x="1735.88" y="1400"/>
      <point x="1566" y="1400" type="qcurve" smooth="yes"/>
      <point x="571" y="1400" type="line" smooth="yes"/>
      <point x="381.595" y="1400"/>
      <point x="144.448" y="1214.63"/>
      <point x="112" y="1029" type="qcurve" smooth="yes"/>
      <point x="102" y="969" type="line"/>
      <point x="443" y="896" type="line"/>
      <point x="473" y="1066" type="line"/>
      <point x="473" y="1066"/>
      <point x="473" y="1066"/>
      <point x="473" y="1066" type="qcurve"/>
      <point x="553" y="1066" type="line"/>
    </contour>
    <contour>
      <point x="1016" y="444" type="line"/>
      <point x="1106" y="956" type="line"/>
      <point x="1384" y="956" type="line" smooth="yes"/>
      <point x="1470.25" y="956"/>
      <point x="1591.44" y="929.625"/>
      <point x="1663.06" y="870.375"/>
      <point x="1686" y="775"/>
      <point x="1674" y="706" type="qcurve" smooth="yes"/>
      <point x="1661.62" y="635.875"/>
      <point x="1602.47" y="536.469"/>
      <point x="1506.28" y="473.281"/>
      <point x="1371.75" y="444"/>
      <point x="1284" y="444" type="qcurve" smooth="yes"/>
    </contour>
  </outline>
  <guideline angle="0" x="0" y="1549"/>
  <guideline angle="0" x="0" y="1325"/>
  <guideline angle="0" x="0" y="73"/>
  <guideline angle="0" x="0" y="1549"/>
  <guideline angle="0" x="0" y="1325"/>
  <guideline angle="0" x="0" y="73"/>
</glyph>
<glyph name="uni01B4" format="2">
  <advance width="1489"/>
  <unicode hex="01B4"/>
  <anchor x="763" y="1174" name="top"/>
  <anchor x="1021" y="-100" name="bottom"/>
  <outline>
    <contour>
      <point x="627" y="1024" type="line"/>
      <point x="67" y="1024" type="line"/>
      <point x="390" y="36" type="line"/>
      <point x="315" y="-80" type="line"/>
      <point x="315" y="-80"/>
      <point x="315" y="-80"/>
      <point x="315" y="-80" type="qcurve"/>
      <point x="-101" y="-80" type="line"/>
      <point x="-90" y="-428" type="line"/>
      <point x="168" y="-428" type="line" smooth="yes"/>
      <point x="296.25" y="-428"/>
      <point x="479.281" y="-393.969"/>
      <point x="623.469" y="-311.281"/>
      <point x="746.125" y="-172.625"/>
      <point x="814" y="-68" type="qcurve" smooth="yes"/>
      <point x="1295" y="676" type="line"/>
      <point x="1295" y="676"/>
      <point x="1295" y="676"/>
      <point x="1295" y="676" type="qcurve"/>
      <point x="1430" y="676" type="line"/>
      <point x="1563" y="1024" type="line"/>
      <point x="1230" y="1024" type="line" smooth="yes"/>
      <point x="1115.3" y="1024"/>
      <point x="979.914" y="947.135"/>
      <point x="912" y="843" type="qcurve" smooth="yes"/>
      <point x="755" y="601" type="line"/>
    </contour>
  </outline>
</glyph>
<glyph name="uni01C8" format="2">
  <advance width="2250"/>
  <unicode hex="01C8"/>
  <anchor x="1954" y="1174" name="top"/>
  <anchor x="608" y="-150" name="bottom"/>
  <anchor x="-6" y="700" name="left"/>
  <anchor x="928" y="1400" name="right"/>
  <anchor x="1176" y="800" name="eldot"/>
  <outline>
    <contour>
      <point x="61" y="0" type="line"/>
      <point x="1385" y="0" type="line"/>
      <point x="1469" y="484" type="line"/>
      <point x="717" y="484" type="line"/>
      <point x="877" y="1400" type="line"/>
      <point x="305" y="1400" type="line"/>
    </contour>
    <contour>
      <point x="861" y="-80" type="line"/>
      <point x="872" y="-428" type="line"/>
      <point x="1676" y="-428" type="line" smooth="yes"/>
      <point x="1734.5" y="-428"/>
      <point x="1838.62" y="-381.25"/>
      <point x="1921.88" y="-295.75"/>
      <point x="1980.25" y="-175.5"/>
      <point x="1993" y="-102" type="qcurve" smooth="yes"/>
      <point x="2190" y="1024" type="line"/>
      <point x="1666" y="1024" type="line"/>
      <point x="1473" y="-80" type="line"/>
      <point x="1473" y="-80"/>
      <point x="1473" y="-80"/>
      <point x="1473" y="-80" type="qcurve"/>
    </contour>
    <contour>
      <point x="1689" y="1232" type="line" smooth="yes"/>
      <point x="1674.66" y="1150.5"/>
      <point x="1698.5" y="1122"/>
      <point x="1780" y="1122" type="qcurve" smooth="yes"/>
      <point x="2112" y="1122" type="line" smooth="yes"/>
      <point x="2193.5" y="1122"/>
      <point x="2226.66" y="1150.5"/>
      <point x="2241" y="1232" type="qcurve" smooth="yes"/>
      <point x="2264" y="1364" type="line" smooth="yes"/>
      <point x="2278.34" y="1443.99"/>
      <point x="2254.5" y="1472"/>
      <point x="2173" y="1472" type="qcurve" smooth="yes"/>
      <point x="1841" y="1472" type="line" smooth="yes"/>
      <point x="1759.5" y="1472"/>
      <point x="1726.34" y="1443.99"/>
      <point x="1712" y="1364" type="qcurve" smooth="yes"/>
    </contour>
  </outline>
</glyph>
<glyph name="uni01CB" format="2">
  <advance width="2676"/>
  <unicode hex="01CB"/>
  <anchor x="2380" y="1174" name="top"/>
  <anchor x="801" y="-150" name="bottom"/>
  <outline>
    <contour>
      <point x="61" y="0" type="line"/>
      <point x="593" y="0" type="line"/>
      <point x="701" y="619" type="line"/>
      <point x="1347" y="0" type="line"/>
      <point x="1771" y="0" type="line"/>
      <point x="2015" y="1400" type="line"/>
      <point x="1483" y="1400" type="line"/>
      <point x="1373" y="772" type="line"/>
      <point x="727" y="1400" type="line"/>
      <point x="305" y="1400" type="line"/>
    </contour>
    <contour>
      <point x="1287" y="-80" type="line"/>
      <point x="1298" y="-428" type="line"/>
      <point x="2102" y="-428" type="line" smooth="yes"/>
      <point x="2160.5" y="-428"/>
      <point x="2264.62" y="-381.25"/>
      <point x="2347.88" y="-295.75"/>
      <point x="2406.25" y="-175.5"/>
      <point x="2419" y="-102" type="qcurve" smooth="yes"/>
      <point x="2616" y="1024" type="line"/>
      <point x="2092" y="1024" type="line"/>
      <point x="1899" y="-80" type="line"/>
      <point x="1899" y="-80"/>
      <point x="1899" y="-80"/>
      <point x="1899" y="-80" type="qcurve"/>
    </contour>
    <contour>
      <point x="2115" y="1232" type="line" smooth="yes"/>
      <point x="2100.66" y="1150.5"/>
      <point x="2124.5" y="1122"/>
      <point x="2206" y="1122" type="qcurve" smooth="yes"/>
      <point x="2538" y="1122" type="line" smooth="yes"/>
      <point x="2619.5" y="1122"/>
      <point x="2652.66" y="1150.5"/>
      <point x="2667" y="1232" type="qcurve" smooth="yes"/>
      <point x="2690" y="1364" type="line" smooth="yes"/>
      <point x="2704.34" y="1443.99"/>
      <point x="2680.5" y="1472"/>
      <point x="2599" y="1472" type="qcurve" smooth="yes"/>
      <point x="2267" y="1472" type="line" smooth="yes"/>
      <point x="2185.5" y="1472"/>
      <point x="2152.34" y="1443.99"/>
      <point x="2138" y="1364" type="qcurve" smooth="yes"/>
    </contour>
  </outline>
</glyph>
<glyph name="Aringacute" format="2">
  <advance width="2002"/>
  <unicode hex="01FA"/>
  <anchor x="1153" y="1550" name="top"/>
  <anchor x="856" y="-150" name="bottom"/>
  <anchor x="1256" y="0" name="ogonek_in"/>
  <outline>
    <contour>
      <point x="-120" y="0" type="line"/>
      <point x="488" y="0" type="line"/>
      <point x="603" y="176" type="line"/>
      <point x="1204" y="176" type="line"/>
      <point x="1256" y="0" type="line"/>
      <point x="1882" y="0" type="line"/>
      <point x="1400" y="1400" type="line"/>
      <point x="850" y="1400" type="line"/>
    </contour>
    <contour>
      <point x="822" y="509" type="line"/>
      <point x="1017" y="808" type="line"/>
      <point x="1106" y="509" type="line"/>
    </contour>
    <contour>
      <point x="909" y="1670" type="qcurve" smooth="yes"/>
      <point x="898.125" y="1607"/>
      <point x="907.344" y="1526.56"/>
      <point x="960.406" y="1480.44"/>
      <point x="1063.75" y="1463"/>
      <point x="1147" y="1463" type="qcurve" smooth="yes"/>
      <point x="1230.25" y="1463"/>
      <point x="1339.78" y="1480.44"/>
      <point x="1408.97" y="1526.56"/>
      <point x="1446.12" y="1607"/>
      <point x="1457" y="1670" type="qcurve" smooth="yes"/>
      <point x="1467.88" y="1733"/>
      <point x="1458.66" y="1813.44"/>
      <point x="1405.59" y="1859.56"/>
      <point x="1302.25" y="1877"/>
      <point x="1219" y="1877" type="qcurve" smooth="yes"/>
      <point x="1135.75" y="1877"/>
      <point x="1026.22" y="1859.56"/>
      <point x="957.031" y="1813.44"/>
      <point x="919.875" y="1733"/>
    </contour>
    <contour>
      <point x="1123" y="1670" type="qcurve" smooth="yes"/>
      <point x="1126.77" y="1693.39"/>
      <point x="1149.76" y="1706"/>
      <point x="1189" y="1706" type="qcurve" smooth="yes"/>
      <point x="1228.24" y="1706"/>
      <point x="1246.77" y="1693.39"/>
      <point x="1243" y="1670" type="qcurve" smooth="yes"/>
      <point x="1239.23" y="1646.61"/>
      <point x="1216.24" y="1634"/>
      <point x="1177" y="1634" type="qcurve" smooth="yes"/>
      <point x="1137.76" y="1634"/>
      <point x="1119.23" y="1646.61"/>
    </contour>
    <contour>
      <point x="1358" y="1927" type="line"/>
      <point x="1660" y="2153" type="line"/>
      <point x="1255" y="2153" type="line"/>
      <point x="1098" y="1927" type="line"/>
    </contour>
  </outline>
</glyph>
<glyph name="AEacute" format="2">
  <advance width="2887"/>
  <unicode hex="01FC"/>
  <anchor x="1844" y="1550" name="top"/>
  <anchor x="1287" y="-150" name="bottom"/>
  <outline>
    <contour>
      <point x="-120" y="0" type="line"/>
      <point x="532" y="0" type="line"/>
      <point x="659" y="176" type="line"/>
      <point x="1208" y="176" type="line"/>
      <point x="1177" y="0" type="line"/>
      <point x="2697" y="0" type="line"/>
      <point x="2771" y="424" type="line"/>
      <point x="1823" y="424" type="line"/>
      <point x="1840" y="520" type="line"/>
      <point x="2382" y="520" type="line"/>
      <point x="2446" y="890" type="line"/>
      <point x="1904" y="890" type="line"/>
      <point x="1919" y="976" type="line"/>
      <point x="2847" y="976" type="line"/>
      <point x="2921" y="1400" type="line"/>
      <point x="925" y="1400" type="line"/>
    </contour>
    <contour>
      <point x="904" y="516" type="line"/>
      <point x="1222" y="956" type="line"/>
      <point x="1344" y="956" type="line"/>
      <point x="1267" y="516" type="line"/>
    </contour>
    <contour>
      <point x="1498" y="1476" type="line"/>
      <point x="1998" y="1476" type="line"/>
      <point x="2463" y="1824" type="line"/>
      <point x="1862" y="1824" type="line"/>
    </contour>
  </outline>
</glyph>
<glyph name="uni0200" format="2">
  <advance width="2002"/>
  <unicode hex="0200"/>
  <anchor x="1153" y="1550" name="top"/>
  <anchor x="856" y="-150" name="bottom"/>
  <anchor x="1256" y="0" name="ogonek_in"/>
  <anchor x="968.77" y="1476" name="topright"/>
  <outline>
    <contour>
      <point x="-120" y="0" type="line"/>
      <point x="488" y="0" type="line"/>
      <point x="603" y="176" type="line"/>
      <point x="1204" y="176" type="line"/>
      <point x="1256" y="0" type="line"/>
      <point x="1882" y="0" type="line"/>
      <point x="1400" y="1400" type="line"/>
      <point x="850" y="1400" type="line"/>
    </contour>
    <contour>
      <point x="822" y="509" type="line"/>
      <point x="1017" y="808" type="line"/>
      <point x="1106" y="509" type="line"/>
    </contour>
    <contour>
      <point x="1786.77" y="1476" type="line"/>
      <point x="1643.78" y="1776" type="line"/>
      <point x="1078.98" y="1776" type="line"/>
      <point x="1338.77" y="1476" type="line"/>
    </contour>
    <contour>
      <point x="1048.77" y="1476" type="line"/>
      <point x="905.78" y="1776" type="line"/>
      <point x="340.98" y="1776" type="line"/>
      <point x="600.77" y="1476" type="line"/>
    </contour>
  </outline>
</glyph>
<glyph name="uni0202" format="2">
  <advance width="2002"/>
  <unicode hex="0202"/>
  <anchor x="1153" y="1550" name="top"/>
  <anchor x="856" y="-150" name="bottom"/>
  <anchor x="1256" y="0" name="ogonek_in"/>
  <outline>
    <contour>
      <point x="-120" y="0" type="line"/>
      <point x="488" y="0" type="line"/>
      <point x="603" y="176" type="line"/>
      <point x="1204" y="176" type="line"/>
      <point x="1256" y="0" type="line"/>
      <point x="1882" y="0" type="line"/>
      <point x="1400" y="1400" type="line"/>
      <point x="850" y="1400" type="line"/>
    </contour>
    <contour>
      <point x="822" y="509" type="line"/>
      <point x="1017" y="808" type="line"/>
      <point x="1106" y="509" type="line"/>
    </contour>
    <contour>
      <point x="1207.85" y="1776" type="qcurve" smooth="yes"/>
      <point x="1061.23" y="1776"/>
      <point x="874.433" y="1742.03"/>
      <point x="760.277" y="1659.72"/>
      <point x="701.847" y="1521.88"/>
      <point x="683.585" y="1418" type="qcurve"/>
      <point x="1009.59" y="1418" type="line"/>
      <point x="1016.46" y="1456.62"/>
      <point x="1033.73" y="1505.34"/>
      <point x="1063.52" y="1532.91"/>
      <point x="1110.3" y="1543"/>
      <point x="1146.67" y="1543" type="qcurve" smooth="yes"/>
      <point x="1185.3" y="1543"/>
      <point x="1229.14" y="1532.91"/>
      <point x="1248.11" y="1505.34"/>
      <point x="1246.46" y="1456.62"/>
      <point x="1239.59" y="1418" type="qcurve"/>
      <point x="1565.59" y="1418" type="line"/>
      <point x="1583.85" y="1521.88"/>
      <point x="1587.15" y="1659.72"/>
      <point x="1517.56" y="1742.03"/>
      <point x="1355.23" y="1776"/>
    </contour>
  </outline>
</glyph>
<glyph name="uni0208" format="2">
  <advance width="754"/>
  <unicode hex="0208"/>
  <anchor x="529" y="1550" name="top"/>
  <anchor x="232" y="-150" name="bottom"/>
  <anchor x="369" y="0" name="ogonek"/>
  <anchor x="344.77" y="1476" name="topright"/>
  <outline>
    <contour>
      <point x="61" y="0" type="line"/>
      <point x="633" y="0" type="line"/>
      <point x="877" y="1400" type="line"/>
      <point x="305" y="1400" type="line"/>
    </contour>
    <contour>
      <point x="1162.77" y="1476" type="line"/>
      <point x="1019.78" y="1776" type="line"/>
      <point x="454.98" y="1776" type="line"/>
      <point x="714.77" y="1476" type="line"/>
    </contour>
    <contour>
      <point x="424.77" y="1476" type="line"/>
      <point x="281.78" y="1776" type="line"/>
      <point x="-283.02" y="1776" type="line"/>
      <point x="-23.23" y="1476" type="line"/>
    </contour>
  </outline>
</glyph>
<glyph name="uni0209" format="2">
  <advance width="605"/>
  <unicode hex="0209"/>
  <anchor x="157" y="-150" name="bottom"/>
  <anchor x="388" y="1174" name="top"/>
  <anchor x="293" y="0" name="ogonek"/>
  <outline>
    <contour>
      <point x="10" y="0" type="line"/>
      <point x="534" y="0" type="line"/>
      <point x="713" y="1024" type="line"/>
      <point x="189" y="1024" type="line"/>
    </contour>
    <contour>
      <point x="898.74" y="1100" type="line"/>
      <point x="717.995" y="1448" type="line"/>
      <point x="237.195" y="1448" type="line"/>
      <point x="498.74" y="1100" type="line"/>
    </contour>
    <contour>
      <point x="290.74" y="1100" type="line"/>
      <point x="109.995" y="1448" type="line"/>
      <point x="-370.805" y="1448" type="line"/>
      <point x="-109.26" y="1100" type="line"/>
    </contour>
  </outline>
</glyph>
<glyph name="uni0212" format="2">
  <advance width="1680"/>
  <unicode hex="0212"/>
  <anchor x="719" y="-150" name="bottom"/>
  <anchor x="986" y="1550" name="top"/>
  <outline>
    <contour>
      <point x="61" y="0" type="line"/>
      <point x="633" y="0" type="line"/>
      <point x="703" y="400" type="line"/>
      <point x="811" y="400" type="line"/>
      <point x="1050" y="0" type="line"/>
      <point x="1731" y="0" type="line"/>
      <point x="1426" y="459" type="line"/>
      <point x="1426" y="459" type="line"/>
      <point x="1550.5" y="480.75"/>
      <point x="1714" y="626"/>
      <point x="1741" y="782" type="qcurve" smooth="yes"/>
      <point x="1791" y="1066" type="line" smooth="yes"/>
      <point x="1826.25" y="1267"/>
      <point x="1624" y="1400"/>
      <point x="1435" y="1400" type="qcurve" smooth="yes"/>
      <point x="305" y="1400" type="line"/>
    </contour>
    <contour>
      <point x="776" y="820" type="line"/>
      <point x="801" y="960" type="line"/>
      <point x="1143" y="960" type="line" smooth="yes"/>
      <point x="1176.2" y="960"/>
      <point x="1204.53" y="927.166"/>
      <point x="1200" y="900" type="qcurve" smooth="yes"/>
      <point x="1197" y="880" type="line"/>
      <point x="1191.72" y="852.834"/>
      <point x="1151.2" y="820"/>
      <point x="1118" y="820" type="qcurve" smooth="yes"/>
    </contour>
    <contour>
      <point x="1040.85" y="1776" type="qcurve" smooth="yes"/>
      <point x="894.227" y="1776"/>
      <point x="707.433" y="1742.03"/>
      <point x="593.277" y="1659.72"/>
      <point x="534.847" y="1521.88"/>
      <point x="516.585" y="1418" type="qcurve"/>
      <point x="842.585" y="1418" type="line"/>
      <point x="849.458" y="1456.62"/>
      <point x="866.735" y="1505.34"/>
      <point x="896.519" y="1532.91"/>
      <point x="943.298" y="1543"/>
      <point x="979.673" y="1543" type="qcurve" smooth="yes"/>
      <point x="1018.3" y="1543"/>
      <point x="1062.14" y="1532.91"/>
      <point x="1081.11" y="1505.34"/>
      <point x="1079.46" y="1456.62"/>
      <point x="1072.59" y="1418" type="qcurve"/>
      <point x="1398.59" y="1418" type="line"/>
      <point x="1416.85" y="1521.88"/>
      <point x="1420.15" y="1659.72"/>
      <point x="1350.56" y="1742.03"/>
      <point x="1188.23" y="1776"/>
    </contour>
  </outline>
</glyph>
<glyph name="uni0213" format="2">
  <advance width="1296"/>
  <unicode hex="0213"/>
  <anchor x="731" y="1184" name="top"/>
  <anchor x="157" y="-150" name="bottom"/>
  <anchor x="-89" y="517" name="left"/>
  <outline>
    <contour>
      <point x="10" y="0" type="line"/>
      <point x="534" y="0" type="line"/>
      <point x="639" y="602" type="line"/>
      <point x="837" y="602" type="line"/>
      <point x="837" y="602"/>
      <point x="837" y="602"/>
      <point x="837" y="602" type="qcurve"/>
      <point x="822" y="517" type="line"/>
      <point x="1360" y="596" type="line"/>
      <point x="1384" y="734" type="line" smooth="yes"/>
      <point x="1397.5" y="812"/>
      <point x="1374.12" y="925.25"/>
      <point x="1296.88" y="998.75"/>
      <point x="1164" y="1034"/>
      <point x="1068" y="1034" type="qcurve" smooth="yes"/>
      <point x="1000" y="1034" type="line" smooth="yes"/>
      <point x="882.282" y="1034"/>
      <point x="737.503" y="984.331"/>
      <point x="696" y="930" type="qcurve"/>
      <point x="713" y="1024" type="line"/>
      <point x="189" y="1024" type="line"/>
    </contour>
    <contour>
      <point x="802.383" y="1471" type="qcurve" smooth="yes"/>
      <point x="676.008" y="1471"/>
      <point x="512.583" y="1432.41"/>
      <point x="410.604" y="1346.34"/>
      <point x="356.13" y="1208.38"/>
      <point x="338.705" y="1109" type="qcurve"/>
      <point x="603.705" y="1109" type="line"/>
      <point x="610.028" y="1145"/>
      <point x="627.405" y="1194.62"/>
      <point x="657.751" y="1225.38"/>
      <point x="705.181" y="1239"/>
      <point x="741.556" y="1239" type="qcurve" smooth="yes"/>
      <point x="776.806" y="1239"/>
      <point x="818.532" y="1225.38"/>
      <point x="837.874" y="1194.62"/>
      <point x="838.028" y="1145"/>
      <point x="831.705" y="1109" type="qcurve"/>
      <point x="1096.71" y="1109" type="line"/>
      <point x="1114.13" y="1208.38"/>
      <point x="1121.29" y="1346.34"/>
      <point x="1065.4" y="1432.41"/>
      <point x="928.758" y="1471"/>
    </contour>
  </outline>
</glyph>
<glyph name="uni0217" format="2">
  <advance width="1346"/>
  <unicode hex="0217"/>
  <anchor x="758" y="1174" name="top"/>
  <anchor x="527" y="-150" name="bottom"/>
  <anchor x="739" y="0" name="ogonek"/>
  <anchor x="1372" y="1024" name="horn"/>
  <outline>
    <contour>
      <point x="-51" y="204" type="line" smooth="yes"/>
      <point x="-73.638" y="77.2272"/>
      <point x="42.3008" y="0"/>
      <point x="157" y="0" type="qcurve" smooth="yes"/>
      <point x="947" y="0" type="line" smooth="yes"/>
      <point x="1061.7" y="0"/>
      <point x="1206.36" y="77.2272"/>
      <point x="1229" y="204" type="qcurve" smooth="yes"/>
      <point x="1372" y="1024" type="line"/>
      <point x="848" y="1024" type="line"/>
      <point x="741" y="412" type="line"/>
      <point x="741" y="412"/>
      <point x="741" y="412"/>
      <point x="741" y="412" type="qcurve"/>
      <point x="509" y="412" type="line"/>
      <point x="509" y="412"/>
      <point x="509" y="412"/>
      <point x="509" y="412" type="qcurve"/>
      <point x="616" y="1024" type="line"/>
      <point x="92" y="1024" type="line"/>
    </contour>
    <contour>
      <point x="829.383" y="1461" type="qcurve" smooth="yes"/>
      <point x="703.008" y="1461"/>
      <point x="539.583" y="1422.41"/>
      <point x="437.604" y="1336.34"/>
      <point x="383.13" y="1198.38"/>
      <point x="365.705" y="1099" type="qcurve"/>
      <point x="630.705" y="1099" type="line"/>
      <point x="637.028" y="1135"/>
      <point x="654.405" y="1184.62"/>
      <point x="684.751" y="1215.38"/>
      <point x="732.181" y="1229"/>
      <point x="768.556" y="1229" type="qcurve" smooth="yes"/>
      <point x="803.806" y="1229"/>
      <point x="845.532" y="1215.38"/>
      <point x="864.874" y="1184.62"/>
      <point x="865.028" y="1135"/>
      <point x="858.705" y="1099" type="qcurve"/>
      <point x="1123.71" y="1099" type="line"/>
      <point x="1141.13" y="1198.38"/>
      <point x="1148.29" y="1336.34"/>
      <point x="1092.4" y="1422.41"/>
      <point x="955.758" y="1461"/>
    </contour>
  </outline>
</glyph>
<glyph name="uni022B" format="2">
  <advance width="1568"/>
  <unicode hex="022B"/>
  <anchor x="998" y="1898" name="top"/>
  <anchor x="639" y="-150" name="bottom"/>
  <anchor x="1471" y="780" name="horn"/>
  <anchor x="851" y="0" name="ogonek"/>
  <outline>
    <contour>
      <point x="39" y="254" type="line" smooth="yes"/>
      <point x="14.8528" y="115.154"/>
      <point x="137.516" y="-10"/>
      <point x="299" y="-10" type="qcurve" smooth="yes"/>
      <point x="1027" y="-10" type="line" smooth="yes"/>
      <point x="1189.99" y="-10"/>
      <point x="1354.85" y="115.154"/>
      <point x="1379" y="254" type="qcurve" smooth="yes"/>
      <point x="1471" y="780" type="line" smooth="yes"/>
      <point x="1494.39" y="911.3"/>
      <point x="1368.98" y="1034"/>
      <point x="1209" y="1034" type="qcurve" smooth="yes"/>
      <point x="481" y="1034" type="line" smooth="yes"/>
      <point x="321.025" y="1034"/>
      <point x="154.393" y="911.3"/>
      <point x="131" y="780" type="qcurve" smooth="yes"/>
    </contour>
    <contour>
      <point x="584" y="372" type="qcurve"/>
      <point x="633" y="652" type="line"/>
      <point x="633" y="652"/>
      <point x="633" y="652"/>
      <point x="633" y="652" type="qcurve"/>
      <point x="925" y="652" type="line"/>
      <point x="925" y="652"/>
      <point x="925" y="652"/>
      <point x="925" y="652" type="qcurve"/>
      <point x="876" y="372" type="line"/>
      <point x="876" y="372"/>
      <point x="876" y="372"/>
      <point x="876" y="372" type="qcurve"/>
      <point x="584" y="372" type="line"/>
      <point x="584" y="372"/>
      <point x="584" y="372"/>
    </contour>
    <contour>
      <point x="523" y="1112" type="qcurve" smooth="yes"/>
      <point x="665" y="1112" type="line" smooth="yes"/>
      <point x="746.497" y="1112"/>
      <point x="779.663" y="1140.5"/>
      <point x="794" y="1222" type="qcurve" smooth="yes"/>
      <point x="816" y="1344" type="line" smooth="yes"/>
      <point x="829.583" y="1423.99"/>
      <point x="806.497" y="1452"/>
      <point x="725" y="1452" type="qcurve" smooth="yes"/>
      <point x="583" y="1452" type="line" smooth="yes"/>
      <point x="501.503" y="1452"/>
      <point x="467.583" y="1423.99"/>
      <point x="454" y="1344" type="qcurve" smooth="yes"/>
      <point x="432" y="1222" type="line" smooth="yes"/>
      <point x="417.663" y="1140.5"/>
      <point x="441.503" y="1112"/>
    </contour>
    <contour>
      <point x="1053" y="1112" type="qcurve" smooth="yes"/>
      <point x="1195" y="1112" type="line" smooth="yes"/>
      <point x="1276.5" y="1112"/>
      <point x="1309.66" y="1140.5"/>
      <point x="1324" y="1222" type="qcurve" smooth="yes"/>
      <point x="1346" y="1344" type="line" smooth="yes"/>
      <point x="1359.58" y="1423.99"/>
      <point x="1336.5" y="1452"/>
      <point x="1255" y="1452" type="qcurve" smooth="yes"/>
      <point x="1113" y="1452" type="line" smooth="yes"/>
      <point x="1031.5" y="1452"/>
      <point x="997.583" y="1423.99"/>
      <point x="984" y="1344" type="qcurve" smooth="yes"/>
      <point x="962" y="1222" type="line" smooth="yes"/>
      <point x="947.663" y="1140.5"/>
      <point x="971.503" y="1112"/>
    </contour>
    <contour>
      <point x="536" y="1522" type="line"/>
      <point x="1326" y="1522" type="line"/>
      <point x="1375" y="1798" type="line"/>
      <point x="585" y="1798" type="line"/>
    </contour>
  </outline>
  <guideline angle="0" x="0" y="998"/>
</glyph>
<glyph name="uni0230" format="2">
  <advance width="2054"/>
  <unicode hex="0230"/>
  <anchor x="1326" y="2346" name="top"/>
  <anchor x="889" y="-164" name="bottom"/>
  <anchor x="1966" y="1080" name="horn"/>
  <anchor x="1101" y="0" name="ogonek"/>
  <outline>
    <contour>
      <point x="227" y="1080" type="qcurve" smooth="yes"/>
      <point x="96" y="332" type="line" smooth="yes"/>
      <point x="60.5338" y="125.24"/>
      <point x="248.786" y="-14"/>
      <point x="448" y="-14" type="qcurve" smooth="yes"/>
      <point x="1362" y="-14" type="line" smooth="yes"/>
      <point x="1561.21" y="-14"/>
      <point x="1799.78" y="123.73"/>
      <point x="1836" y="332" type="qcurve" smooth="yes"/>
      <point x="1967" y="1080" type="line" smooth="yes"/>
      <point x="2002.25" y="1281"/>
      <point x="1800" y="1414"/>
      <point x="1611" y="1414" type="qcurve" smooth="yes"/>
      <point x="697" y="1414" type="line" smooth="yes"/>
      <point x="508" y="1414"/>
      <point x="262.25" y="1281"/>
    </contour>
    <contour>
      <point x="773" y="930" type="line"/>
      <point x="773" y="930"/>
      <point x="773" y="930"/>
      <point x="773" y="930" type="qcurve"/>
      <point x="1369" y="930" type="line"/>
      <point x="1369" y="930"/>
      <point x="1369" y="930"/>
      <point x="1369" y="930" type="qcurve"/>
      <point x="1288" y="470" type="line"/>
      <point x="1288" y="470"/>
      <point x="1288" y="470"/>
      <point x="1288" y="470" type="qcurve"/>
      <point x="692" y="470" type="line"/>
      <point x="692" y="470"/>
      <point x="692" y="470"/>
      <point x="692" y="470" type="qcurve"/>
    </contour>
    <contour>
      <point x="1089" y="1490" type="qcurve" smooth="yes"/>
      <point x="1261" y="1490" type="line" smooth="yes"/>
      <point x="1342.5" y="1490"/>
      <point x="1375.91" y="1518.5"/>
      <point x="1391" y="1600" type="qcurve" smooth="yes"/>
      <point x="1414" y="1732" type="line" smooth="yes"/>
      <point x="1427.58" y="1811.99"/>
      <point x="1404.5" y="1840"/>
      <point x="1323" y="1840" type="qcurve" smooth="yes"/>
      <point x="1151" y="1840" type="line" smooth="yes"/>
      <point x="1069.5" y="1840"/>
      <point x="1035.58" y="1811.99"/>
      <point x="1022" y="1732" type="qcurve" smooth="yes"/>
      <point x="999" y="1600" type="line" smooth="yes"/>
      <point x="983.908" y="1518.5"/>
      <point x="1007.5" y="1490"/>
    </contour>
    <contour>
      <point x="854" y="1910" type="line"/>
      <point x="1644" y="1910" type="line"/>
      <point x="1704" y="2246" type="line"/>
      <point x="914" y="2246" type="line"/>
    </contour>
  </outline>
  <guideline angle="0" x="0" y="1416"/>
</glyph>
<glyph name="uni0231" format="2">
  <advance width="1568"/>
  <unicode hex="0231"/>
  <anchor x="997" y="1896" name="top"/>
  <anchor x="639" y="-150" name="bottom"/>
  <anchor x="1471" y="780" name="horn"/>
  <anchor x="851" y="0" name="ogonek"/>
  <outline>
    <contour>
      <point x="39" y="254" type="line" smooth="yes"/>
      <point x="14.8528" y="115.154"/>
      <point x="137.516" y="-10"/>
      <point x="299" y="-10" type="qcurve" smooth="yes"/>
      <point x="1027" y="-10" type="line" smooth="yes"/>
      <point x="1189.99" y="-10"/>
      <point x="1354.85" y="115.154"/>
      <point x="1379" y="254" type="qcurve" smooth="yes"/>
      <point x="1471" y="780" type="line" smooth="yes"/>
      <point x="1494.39" y="911.3"/>
      <point x="1368.98" y="1034"/>
      <point x="1209" y="1034" type="qcurve" smooth="yes"/>
      <point x="481" y="1034" type="line" smooth="yes"/>
      <point x="321.025" y="1034"/>
      <point x="154.393" y="911.3"/>
      <point x="131" y="780" type="qcurve" smooth="yes"/>
    </contour>
    <contour>
      <point x="584" y="372" type="qcurve"/>
      <point x="633" y="652" type="line"/>
      <point x="633" y="652"/>
      <point x="633" y="652"/>
      <point x="633" y="652" type="qcurve"/>
      <point x="925" y="652" type="line"/>
      <point x="925" y="652"/>
      <point x="925" y="652"/>
      <point x="925" y="652" type="qcurve"/>
      <point x="876" y="372" type="line"/>
      <point x="876" y="372"/>
      <point x="876" y="372"/>
      <point x="876" y="372" type="qcurve"/>
      <point x="584" y="372" type="line"/>
      <point x="584" y="372"/>
      <point x="584" y="372"/>
    </contour>
    <contour>
      <point x="764" y="1112" type="qcurve" smooth="yes"/>
      <point x="936" y="1112" type="line" smooth="yes"/>
      <point x="1017.5" y="1112"/>
      <point x="1051.42" y="1140.01"/>
      <point x="1065" y="1220" type="qcurve" smooth="yes"/>
      <point x="1089" y="1352" type="line" smooth="yes"/>
      <point x="1102.58" y="1431.99"/>
      <point x="1079.5" y="1460"/>
      <point x="998" y="1460" type="qcurve" smooth="yes"/>
      <point x="826" y="1460" type="line" smooth="yes"/>
      <point x="744.503" y="1460"/>
      <point x="710.583" y="1431.99"/>
      <point x="697" y="1352" type="qcurve" smooth="yes"/>
      <point x="673" y="1220" type="line" smooth="yes"/>
      <point x="659.417" y="1140.01"/>
      <point x="682.503" y="1112"/>
    </contour>
    <contour>
      <point x="535" y="1520" type="line"/>
      <point x="1325" y="1520" type="line"/>
      <point x="1374" y="1796" type="line"/>
      <point x="584" y="1796" type="line"/>
    </contour>
  </outline>
  <guideline angle="0" x="0" y="996"/>
</glyph>
<glyph name="uni0259" format="2">
  <advance width="1383"/>
  <unicode hex="0259"/>
  <anchor x="547" y="-150" name="top"/>
  <anchor x="778" y="1174" name="bottom"/>
  <anchor x="505" y="1034" name="ogonek"/>
  <outline>
    <contour>
      <point x="1276" y="724" type="line" smooth="yes"/>
      <point x="1303.92" y="886.994"/>
      <point x="1149.32" y="1034"/>
      <point x="932" y="1034" type="qcurve" smooth="yes"/>
      <point x="416" y="1034" type="line" smooth="yes"/>
      <point x="198.675" y="1034"/>
      <point x="-24.3436" y="908.92"/>
      <point x="-50" y="758" type="qcurve"/>
      <point x="-53" y="744" type="line"/>
      <point x="456" y="656" type="line"/>
      <point x="469" y="732" type="line"/>
      <point x="469" y="732"/>
      <point x="469" y="732"/>
      <point x="469" y="732" type="qcurve"/>
      <point x="753" y="732" type="line"/>
      <point x="753" y="732"/>
      <point x="753" y="732"/>
      <point x="753" y="732" type="qcurve"/>
      <point x="733" y="620" type="line"/>
      <point x="-75" y="620" type="line"/>
      <point x="-132" y="290" type="line" smooth="yes"/>
      <point x="-159.92" y="131.534"/>
      <point x="16.6752" y="-10"/>
      <point x="234" y="-10" type="qcurve" smooth="yes"/>
      <point x="750" y="-10" type="line" smooth="yes"/>
      <point x="965.816" y="-10"/>
      <point x="1172.83" y="133.043"/>
      <point x="1200" y="290" type="qcurve" smooth="yes"/>
    </contour>
    <contour>
      <point x="694" y="396" type="line"/>
      <point x="676" y="292" type="line"/>
      <point x="676" y="292"/>
      <point x="676" y="292"/>
      <point x="676" y="292" type="qcurve"/>
      <point x="392" y="292" type="line"/>
      <point x="392" y="292"/>
      <point x="392" y="292"/>
      <point x="392" y="292" type="qcurve"/>
      <point x="410" y="396" type="line"/>
    </contour>
  </outline>
  <guideline angle="0" color="1,0,0,1" x="0" y="2058"/>
</glyph>
<glyph name="uni0272" format="2">
  <advance width="1519"/>
  <unicode hex="0272"/>
  <anchor x="782" y="1184" name="top"/>
  <anchor x="549" y="-150" name="bottom"/>
  <outline>
    <contour>
      <point x="638" y="602" type="line"/>
      <point x="857" y="602" type="line"/>
      <point x="857" y="602"/>
      <point x="857" y="602"/>
      <point x="857" y="602" type="qcurve"/>
      <point x="752" y="0" type="line"/>
      <point x="1276" y="0" type="line"/>
      <point x="1404" y="734" type="line" smooth="yes"/>
      <point x="1431.92" y="890.202"/>
      <point x="1264.07" y="1034"/>
      <point x="1089" y="1034" type="qcurve" smooth="yes"/>
      <point x="1001" y="1034" type="line" smooth="yes"/>
      <point x="883.282" y="1034"/>
      <point x="737.258" y="984.331"/>
      <point x="695" y="930" type="qcurve"/>
      <point x="712" y="1024" type="line"/>
      <point x="188" y="1024" type="line"/>
      <point x="-5" y="-80" type="line"/>
      <point x="-5" y="-80"/>
      <point x="-5" y="-80"/>
      <point x="-5" y="-80" type="qcurve"/>
      <point x="-187" y="-80" type="line"/>
      <point x="-176" y="-428" type="line"/>
      <point x="198" y="-428" type="line" smooth="yes"/>
      <point x="356.466" y="-428"/>
      <point x="486.325" y="-265.748"/>
      <point x="515" y="-102" type="qcurve" smooth="yes"/>
    </contour>
  </outline>
  <guideline angle="0" x="0" y="988"/>
  <guideline angle="0" x="0" y="870"/>
  <guideline angle="0" x="0" y="988"/>
  <guideline angle="0" x="0" y="870"/>
</glyph>
<glyph name="uni02BA" format="2">
  <advance width="1139"/>
  <unicode hex="02BA"/>
  <outline>
    <contour>
      <point x="233" y="1333" type="qcurve"/>
      <point x="77" y="785" type="line"/>
      <point x="197" y="785" type="line"/>
      <point x="603" y="1333" type="line"/>
      <point x="644.503" y="1419.78"/>
      <point x="634.196" y="1450"/>
      <point x="561" y="1450" type="qcurve" smooth="yes"/>
      <point x="389" y="1450" type="line" smooth="yes"/>
      <point x="352.625" y="1450"/>
      <point x="310.25" y="1445.78"/>
      <point x="280.25" y="1423.47"/>
      <point x="253.625" y="1376.12"/>
    </contour>
    <contour>
      <point x="805" y="1333" type="qcurve"/>
      <point x="649" y="785" type="line"/>
      <point x="769" y="785" type="line"/>
      <point x="1175" y="1333" type="line"/>
      <point x="1216.5" y="1419.78"/>
      <point x="1206.2" y="1450"/>
      <point x="1133" y="1450" type="qcurve" smooth="yes"/>
      <point x="961" y="1450" type="line" smooth="yes"/>
      <point x="924.625" y="1450"/>
      <point x="882.25" y="1445.78"/>
      <point x="852.25" y="1423.47"/>
      <point x="825.625" y="1376.12"/>
    </contour>
  </outline>
</glyph>
<glyph name="uni02BC" format="2">
  <advance width="733"/>
  <unicode hex="02BC"/>
  <outline>
    <contour>
      <point x="341" y="654" type="line"/>
      <point x="663" y="1000" type="line" smooth="yes"/>
      <point x="694.693" y="1034.71"/>
      <point x="723.699" y="1094.21"/>
      <point x="732" y="1141" type="qcurve" smooth="yes"/>
      <point x="774" y="1385" type="line" smooth="yes"/>
      <point x="789.847" y="1474.04"/>
      <point x="747.552" y="1524"/>
      <point x="657" y="1524" type="qcurve" smooth="yes"/>
      <point x="369" y="1524" type="line" smooth="yes"/>
      <point x="279" y="1524"/>
      <point x="219.75" y="1473.5"/>
      <point x="204" y="1385" type="qcurve" smooth="yes"/>
      <point x="162" y="1141" type="line" smooth="yes"/>
      <point x="146.153" y="1050.45"/>
      <point x="188.448" y="1000"/>
      <point x="279" y="1000" type="qcurve" smooth="yes"/>
      <point x="348" y="1000" type="line"/>
      <point x="137" y="698" type="line"/>
    </contour>
  </outline>
  <guideline angle="0" x="0" y="1524"/>
</glyph>
<glyph name="circumflex" format="2">
  <advance width="1056"/>
  <unicode hex="02C6"/>
  <outline>
    <contour>
      <point x="50" y="1100" type="line"/>
      <point x="503" y="1100" type="line"/>
      <point x="576" y="1243" type="line"/>
      <point x="617" y="1100" type="line"/>
      <point x="1006" y="1100" type="line"/>
      <point x="776" y="1448" type="line"/>
      <point x="404" y="1448" type="line"/>
    </contour>
  </outline>
</glyph>
<glyph name="dotaccent" format="2">
  <advance width="494"/>
  <unicode hex="02D9"/>
  <outline>
    <contour>
      <point x="237" y="1112" type="qcurve" smooth="yes"/>
      <point x="409" y="1112" type="line" smooth="yes"/>
      <point x="490.497" y="1112"/>
      <point x="524.417" y="1140.01"/>
      <point x="538" y="1220" type="qcurve" smooth="yes"/>
      <point x="562" y="1352" type="line" smooth="yes"/>
      <point x="575.583" y="1431.99"/>
      <point x="552.497" y="1460"/>
      <point x="471" y="1460" type="qcurve" smooth="yes"/>
      <point x="299" y="1460" type="line" smooth="yes"/>
      <point x="217.503" y="1460"/>
      <point x="183.583" y="1431.99"/>
      <point x="170" y="1352" type="qcurve" smooth="yes"/>
      <point x="146" y="1220" type="line" smooth="yes"/>
      <point x="132.417" y="1140.01"/>
      <point x="155.503" y="1112"/>
    </contour>
  </outline>
</glyph>
<glyph name="tildecomb" format="2">
  <unicode hex="0303"/>
  <anchor x="76" y="1150" name="_top"/>
  <anchor x="144" y="1537" name="top"/>
  <outline>
    <contour>
      <point x="-424" y="1125" type="qcurve"/>
      <point x="-144" y="1077" type="line"/>
      <point x="-140.227" y="1092.85"/>
      <point x="-96.5214" y="1141"/>
      <point x="-52" y="1141" type="qcurve" smooth="yes"/>
      <point x="-19.375" y="1141"/>
      <point x="45.75" y="1121"/>
      <point x="119.25" y="1097"/>
      <point x="205.375" y="1077"/>
      <point x="259" y="1077" type="qcurve" smooth="yes"/>
      <point x="407.5" y="1077"/>
      <point x="562.25" y="1256.75"/>
      <point x="614" y="1394" type="qcurve"/>
      <point x="335" y="1442" type="line"/>
      <point x="330.472" y="1426.15"/>
      <point x="286.521" y="1378"/>
      <point x="242" y="1378" type="qcurve" smooth="yes"/>
      <point x="209.375" y="1378"/>
      <point x="144.25" y="1398"/>
      <point x="70.75" y="1422"/>
      <point x="-15.375" y="1442"/>
      <point x="-69" y="1442" type="qcurve" smooth="yes"/>
      <point x="-217.5" y="1442"/>
      <point x="-370.75" y="1274.25"/>
    </contour>
  </outline>
  <guideline angle="90" x="-615" y="0"/>
  <guideline angle="90" x="375" y="0"/>
</glyph>
<glyph name="uni0311" format="2">
  <unicode hex="0311"/>
  <anchor x="78" y="1174" name="_top"/>
  <anchor x="47.4353" y="999" name="top"/>
  <outline>
    <contour>
      <point x="149.383" y="1461" type="qcurve" smooth="yes"/>
      <point x="275.758" y="1461"/>
      <point x="412.396" y="1422.41"/>
      <point x="468.291" y="1336.34"/>
      <point x="461.13" y="1198.38"/>
      <point x="443.705" y="1099" type="qcurve"/>
      <point x="178.705" y="1099" type="line"/>
      <point x="185.028" y="1135"/>
      <point x="184.874" y="1184.62"/>
      <point x="165.532" y="1215.38"/>
      <point x="123.806" y="1229"/>
      <point x="88.5563" y="1229" type="qcurve" smooth="yes"/>
      <point x="52.1813" y="1229"/>
      <point x="4.75077" y="1215.38"/>
      <point x="-25.5948" y="1184.62"/>
      <point x="-42.9725" y="1135"/>
      <point x="-49.2947" y="1099" type="qcurve"/>
      <point x="-314.295" y="1099" type="line"/>
      <point x="-296.87" y="1198.38"/>
      <point x="-242.396" y="1336.34"/>
      <point x="-140.417" y="1422.41"/>
      <point x="23.0077" y="1461"/>
    </contour>
  </outline>
</glyph>
<glyph name="uni031B" format="2">
  <unicode hex="031B"/>
  <anchor x="58" y="1024" name="_horn"/>
  <outline>
    <contour>
      <point x="16" y="789" type="line"/>
      <point x="156.625" y="789"/>
      <point x="348.719" y="833.344"/>
      <point x="473.031" y="922.406"/>
      <point x="540.25" y="1056.38"/>
      <point x="556" y="1146" type="qcurve" smooth="yes"/>
      <point x="565.055" y="1197.31"/>
      <point x="576" y="1330.37"/>
      <point x="576" y="1393" type="qcurve"/>
      <point x="212" y="1328" type="line"/>
      <point x="212" y="1284.23"/>
      <point x="206.282" y="1208.94"/>
      <point x="201" y="1178" type="qcurve" smooth="yes"/>
      <point x="187.417" y="1101.03"/>
      <point x="121.386" y="1024"/>
      <point x="58" y="1024" type="qcurve"/>
    </contour>
  </outline>
</glyph>
<glyph name="uni0331" format="2">
  <unicode hex="0331"/>
  <anchor x="-142" y="-88" name="_bottom"/>
  <anchor x="-192" y="-375" name="_top"/>
  <anchor x="-129" y="-19" name="top"/>
  <outline>
    <contour>
      <point x="-591" y="-395" type="line"/>
      <point x="199" y="-395" type="line"/>
      <point x="248" y="-119" type="line"/>
      <point x="-542" y="-119" type="line"/>
    </contour>
  </outline>
  <guideline angle="0" x="0" y="-689"/>
  <guideline angle="0" x="0" y="-919"/>
</glyph>
<glyph name="uni0335" format="2">
  <unicode hex="0335"/>
  <anchor x="0" y="1174" name="_top"/>
  <outline>
    <contour>
      <point x="149" y="818" type="line"/>
      <point x="77" y="406" type="line"/>
      <point x="827" y="406" type="line"/>
      <point x="899" y="818" type="line"/>
    </contour>
  </outline>
  <guideline angle="0" x="0" y="612"/>
</glyph>
<glyph name="uni0401" format="2">
  <advance width="1815"/>
  <unicode hex="0401"/>
  <anchor x="1068" y="1918" name="top"/>
  <anchor x="706" y="-150" name="bottom"/>
  <anchor x="1297" y="0" name="ogonek"/>
  <outline>
    <contour>
      <point x="61" y="0" type="line"/>
      <point x="1581" y="0" type="line"/>
      <point x="1655" y="424" type="line"/>
      <point x="707" y="424" type="line"/>
      <point x="724" y="520" type="line"/>
      <point x="1266" y="520" type="line"/>
      <point x="1330" y="890" type="line"/>
      <point x="788" y="890" type="line"/>
      <point x="803" y="976" type="line"/>
      <point x="1731" y="976" type="line"/>
      <point x="1805" y="1400" type="line"/>
      <point x="305" y="1400" type="line"/>
    </contour>
    <contour>
      <point x="656" y="1488" type="qcurve" smooth="yes"/>
      <point x="798" y="1488" type="line" smooth="yes"/>
      <point x="879.497" y="1488"/>
      <point x="912.663" y="1516.5"/>
      <point x="927" y="1598" type="qcurve" smooth="yes"/>
      <point x="949" y="1720" type="line" smooth="yes"/>
      <point x="962.583" y="1799.99"/>
      <point x="939.497" y="1828"/>
      <point x="858" y="1828" type="qcurve" smooth="yes"/>
      <point x="716" y="1828" type="line" smooth="yes"/>
      <point x="634.503" y="1828"/>
      <point x="600.583" y="1799.99"/>
      <point x="587" y="1720" type="qcurve" smooth="yes"/>
      <point x="565" y="1598" type="line" smooth="yes"/>
      <point x="550.663" y="1516.5"/>
      <point x="574.503" y="1488"/>
    </contour>
    <contour>
      <point x="1186" y="1488" type="qcurve" smooth="yes"/>
      <point x="1328" y="1488" type="line" smooth="yes"/>
      <point x="1409.5" y="1488"/>
      <point x="1442.66" y="1516.5"/>
      <point x="1457" y="1598" type="qcurve" smooth="yes"/>
      <point x="1479" y="1720" type="line" smooth="yes"/>
      <point x="1492.58" y="1799.99"/>
      <point x="1469.5" y="1828"/>
      <point x="1388" y="1828" type="qcurve" smooth="yes"/>
      <point x="1246" y="1828" type="line" smooth="yes"/>
      <point x="1164.5" y="1828"/>
      <point x="1130.58" y="1799.99"/>
      <point x="1117" y="1720" type="qcurve" smooth="yes"/>
      <point x="1095" y="1598" type="line" smooth="yes"/>
      <point x="1080.66" y="1516.5"/>
      <point x="1104.5" y="1488"/>
    </contour>
  </outline>
  <guideline angle="90" x="-235" y="0"/>
</glyph>
<glyph name="uni0403" format="2">
  <advance width="1514"/>
  <unicode hex="0403"/>
  <anchor x="885" y="1550" name="top"/>
  <anchor x="634" y="1476" name="topright"/>
  <outline>
    <contour>
      <point x="61" y="0" type="line"/>
      <point x="633" y="0" type="line"/>
      <point x="793" y="916" type="line"/>
      <point x="1505" y="916" type="line"/>
      <point x="1589" y="1400" type="line"/>
      <point x="305" y="1400" type="line"/>
    </contour>
    <contour>
      <point x="534" y="1476" type="line"/>
      <point x="1094" y="1476" type="line"/>
      <point x="1551" y="1776" type="line"/>
      <point x="845" y="1776" type="line"/>
    </contour>
  </outline>
</glyph>
<glyph name="uni0407" format="2">
  <advance width="1072"/>
  <unicode hex="0407"/>
  <anchor x="843" y="1918" name="top"/>
  <anchor x="481" y="-150" name="bottom"/>
  <anchor x="618" y="0" name="ogonek"/>
  <outline>
    <contour>
      <point x="310" y="0" type="line"/>
      <point x="882" y="0" type="line"/>
      <point x="1126" y="1400" type="line"/>
      <point x="554" y="1400" type="line"/>
    </contour>
    <contour>
      <point x="431" y="1488" type="qcurve" smooth="yes"/>
      <point x="573" y="1488" type="line" smooth="yes"/>
      <point x="654.497" y="1488"/>
      <point x="687.663" y="1516.5"/>
      <point x="702" y="1598" type="qcurve" smooth="yes"/>
      <point x="724" y="1720" type="line" smooth="yes"/>
      <point x="737.583" y="1799.99"/>
      <point x="714.497" y="1828"/>
      <point x="633" y="1828" type="qcurve" smooth="yes"/>
      <point x="491" y="1828" type="line" smooth="yes"/>
      <point x="409.503" y="1828"/>
      <point x="375.583" y="1799.99"/>
      <point x="362" y="1720" type="qcurve" smooth="yes"/>
      <point x="340" y="1598" type="line" smooth="yes"/>
      <point x="325.663" y="1516.5"/>
      <point x="349.503" y="1488"/>
    </contour>
    <contour>
      <point x="961" y="1488" type="qcurve" smooth="yes"/>
      <point x="1103" y="1488" type="line" smooth="yes"/>
      <point x="1184.5" y="1488"/>
      <point x="1217.66" y="1516.5"/>
      <point x="1232" y="1598" type="qcurve" smooth="yes"/>
      <point x="1254" y="1720" type="line" smooth="yes"/>
      <point x="1267.58" y="1799.99"/>
      <point x="1244.5" y="1828"/>
      <point x="1163" y="1828" type="qcurve" smooth="yes"/>
      <point x="1021" y="1828" type="line" smooth="yes"/>
      <point x="939.503" y="1828"/>
      <point x="905.583" y="1799.99"/>
      <point x="892" y="1720" type="qcurve" smooth="yes"/>
      <point x="870" y="1598" type="line" smooth="yes"/>
      <point x="855.663" y="1516.5"/>
      <point x="879.503" y="1488"/>
    </contour>
  </outline>
</glyph>
<glyph name="uni040A" format="2">
  <advance width="2766"/>
  <unicode hex="040A"/>
  <outline>
    <contour>
      <point x="61" y="0" type="line"/>
      <point x="633" y="0" type="line"/>
      <point x="723" y="516" type="line"/>
      <point x="1176" y="516" type="line"/>
      <point x="1086" y="0" type="line"/>
      <point x="2155" y="0" type="line" smooth="yes"/>
      <point x="2243.5" y="0"/>
      <point x="2391.12" y="29"/>
      <point x="2504.38" y="104"/>
      <point x="2580.75" y="233.5"/>
      <point x="2598" y="334" type="qcurve" smooth="yes"/>
      <point x="2658" y="674" type="line" smooth="yes"/>
      <point x="2675.25" y="774.125"/>
      <point x="2642.03" y="901.031"/>
      <point x="2553.72" y="973.219"/>
      <point x="2416.62" y="1000"/>
      <point x="2330" y="1000" type="qcurve" smooth="yes"/>
      <point x="1833" y="1000" type="line"/>
      <point x="1902" y="1400" type="line"/>
      <point x="1330" y="1400" type="line"/>
      <point x="1261" y="1000" type="line"/>
      <point x="808" y="1000" type="line"/>
      <point x="877" y="1400" type="line"/>
      <point x="305" y="1400" type="line"/>
    </contour>
    <contour>
      <point x="1735" y="439" type="line"/>
      <point x="1756" y="560" type="line"/>
      <point x="2011" y="560" type="line" smooth="yes"/>
      <point x="2037.41" y="560"/>
      <point x="2061.53" y="537.166"/>
      <point x="2057" y="510" type="qcurve"/>
      <point x="2053" y="489" type="line" smooth="yes"/>
      <point x="2048.47" y="461.834"/>
      <point x="2016.41" y="439"/>
      <point x="1990" y="439" type="qcurve" smooth="yes"/>
    </contour>
  </outline>
</glyph>
<glyph name="uni040E" format="2">
  <advance width="1861"/>
  <unicode hex="040E"/>
  <anchor x="1151" y="1937" name="top"/>
  <outline>
    <contour>
      <point x="190" y="0" type="line"/>
      <point x="656" y="0" type="line" smooth="yes"/>
      <point x="784.282" y="0"/>
      <point x="1020.73" y="140.074"/>
      <point x="1106" y="251" type="qcurve" smooth="yes"/>
      <point x="1987" y="1400" type="line"/>
      <point x="1334" y="1400" type="line"/>
      <point x="975" y="876" type="line"/>
      <point x="791" y="1400" type="line"/>
      <point x="127" y="1400" type="line"/>
      <point x="539" y="448" type="line"/>
      <point x="539" y="448" type="line"/>
      <point x="539" y="448"/>
      <point x="539" y="448"/>
      <point x="539" y="448" type="qcurve"/>
      <point x="175" y="448" type="line"/>
    </contour>
    <contour>
      <point x="1090" y="1475" type="qcurve" smooth="yes"/>
      <point x="1216.38" y="1475"/>
      <point x="1366.62" y="1513.59"/>
      <point x="1452.88" y="1599.66"/>
      <point x="1494.38" y="1737.62"/>
      <point x="1512" y="1837" type="qcurve"/>
      <point x="1247" y="1837" type="line"/>
      <point x="1240.62" y="1801"/>
      <point x="1222.97" y="1751.38"/>
      <point x="1192.78" y="1720.62"/>
      <point x="1146.25" y="1707"/>
      <point x="1111" y="1707" type="qcurve" smooth="yes"/>
      <point x="1074.62" y="1707"/>
      <point x="1032" y="1720.62"/>
      <point x="1012.5" y="1751.38"/>
      <point x="1012.62" y="1801"/>
      <point x="1019" y="1837" type="qcurve"/>
      <point x="754" y="1837" type="line"/>
      <point x="736.375" y="1737.62"/>
      <point x="742.188" y="1599.66"/>
      <point x="813.812" y="1513.59"/>
      <point x="963.625" y="1475"/>
    </contour>
  </outline>
  <guideline angle="90" x="400" y="0"/>
</glyph>
<glyph name="uni040F" format="2">
  <advance width="2019"/>
  <unicode hex="040F"/>
  <outline>
    <contour>
      <point x="61" y="0" type="line"/>
      <point x="637" y="0" type="line"/>
      <point x="617" y="-260" type="line"/>
      <point x="1101" y="-260" type="line"/>
      <point x="1146" y="0" type="line"/>
      <point x="1721" y="0" type="line"/>
      <point x="1965" y="1400" type="line"/>
      <point x="1393" y="1400" type="line"/>
      <point x="1233" y="484" type="line"/>
      <point x="717" y="484" type="line"/>
      <point x="877" y="1400" type="line"/>
      <point x="305" y="1400" type="line"/>
    </contour>
  </outline>
  <guideline angle="260.1" color="1,0,0,1" x="891" y="0"/>
</glyph>
<glyph name="uni0411" format="2">
  <advance width="1841"/>
  <unicode hex="0411"/>
  <outline>
    <contour>
      <point x="61" y="0" type="line"/>
      <point x="1201" y="0" type="line" smooth="yes"/>
      <point x="1390" y="0"/>
      <point x="1638.5" y="133"/>
      <point x="1673" y="334" type="qcurve" smooth="yes"/>
      <point x="1713" y="560" type="line" smooth="yes"/>
      <point x="1730.62" y="660.5"/>
      <point x="1694.34" y="787.5"/>
      <point x="1598.91" y="859.5"/>
      <point x="1450.5" y="886"/>
      <point x="1356" y="886" type="qcurve" smooth="yes"/>
      <point x="788" y="886" type="line"/>
      <point x="812" y="1024" type="line"/>
      <point x="1716" y="1024" type="line"/>
      <point x="1781" y="1400" type="line"/>
      <point x="305" y="1400" type="line"/>
    </contour>
    <contour>
      <point x="699" y="376" type="line"/>
      <point x="723" y="516" type="line"/>
      <point x="1065" y="516" type="line" smooth="yes"/>
      <point x="1098.2" y="516"/>
      <point x="1127.53" y="483.166"/>
      <point x="1123" y="456" type="qcurve"/>
      <point x="1119" y="436" type="line"/>
      <point x="1114.47" y="408.834"/>
      <point x="1074.2" y="376"/>
      <point x="1041" y="376" type="qcurve" smooth="yes"/>
    </contour>
  </outline>
</glyph>
<glyph name="uni0418" format="2">
  <advance width="2073"/>
  <unicode hex="0418"/>
  <anchor x="890" y="-150" name="bottom"/>
  <anchor x="1187" y="1550" name="top"/>
  <outline>
    <contour>
      <point x="61" y="0" type="line"/>
      <point x="525" y="0" type="line"/>
      <point x="1319" y="667" type="line"/>
      <point x="1203" y="0" type="line"/>
      <point x="1775" y="0" type="line"/>
      <point x="2019" y="1400" type="line"/>
      <point x="1555" y="1400" type="line"/>
      <point x="761" y="733" type="line"/>
      <point x="877" y="1400" type="line"/>
      <point x="305" y="1400" type="line"/>
    </contour>
  </outline>
</glyph>
<glyph name="uni042B" format="2">
  <advance width="2724"/>
  <unicode hex="042B"/>
  <anchor x="1515" y="1550" name="top"/>
  <outline>
    <contour>
      <point x="61" y="0" type="line"/>
      <point x="1120" y="0" type="line" smooth="yes"/>
      <point x="1214.5" y="0"/>
      <point x="1372.69" y="29"/>
      <point x="1493.81" y="104"/>
      <point x="1574.75" y="233.5"/>
      <point x="1592" y="334" type="qcurve" smooth="yes"/>
      <point x="1655" y="694" type="line" smooth="yes"/>
      <point x="1672.62" y="794.5"/>
      <point x="1636.34" y="921.5"/>
      <point x="1540.91" y="993.5"/>
      <point x="1392.5" y="1020"/>
      <point x="1298" y="1020" type="qcurve" smooth="yes"/>
      <point x="811" y="1020" type="line"/>
      <point x="877" y="1400" type="line"/>
      <point x="305" y="1400" type="line"/>
    </contour>
    <contour>
      <point x="710" y="440" type="line"/>
      <point x="734" y="580" type="line"/>
      <point x="995" y="580" type="line" smooth="yes"/>
      <point x="1028.2" y="580"/>
      <point x="1057.53" y="547.166"/>
      <point x="1053" y="520" type="qcurve"/>
      <point x="1049" y="500" type="line"/>
      <point x="1044.47" y="472.834"/>
      <point x="1004.2" y="440"/>
      <point x="971" y="440" type="qcurve" smooth="yes"/>
    </contour>
    <contour>
      <point x="1854" y="0" type="line"/>
      <point x="2426" y="0" type="line"/>
      <point x="2670" y="1400" type="line"/>
      <point x="2098" y="1400" type="line"/>
    </contour>
  </outline>
</glyph>
<glyph name="uni0431" format="2">
  <advance width="1558"/>
  <unicode hex="0431"/>
  <outline>
    <contour>
      <point x="1108" y="1522" type="line"/>
      <point x="1098" y="1467" type="line"/>
      <point x="1098" y="1467"/>
      <point x="1098" y="1467"/>
      <point x="1098" y="1467" type="qcurve"/>
      <point x="662" y="1441" type="line" smooth="yes"/>
      <point x="461.276" y="1428.93"/>
      <point x="201.712" y="1183.72"/>
      <point x="167" y="983" type="qcurve" smooth="yes"/>
      <point x="35" y="228" type="line" smooth="yes"/>
      <point x="13.1166" y="102.736"/>
      <point x="137.516" y="-10"/>
      <point x="299" y="-10" type="qcurve" smooth="yes"/>
      <point x="1017" y="-10" type="line" smooth="yes"/>
      <point x="1179.99" y="-10"/>
      <point x="1343.12" y="102.736"/>
      <point x="1365" y="228" type="qcurve" smooth="yes"/>
      <point x="1457" y="754" type="line" smooth="yes"/>
      <point x="1479.64" y="885.3"/>
      <point x="1354.98" y="1008"/>
      <point x="1195" y="1008" type="qcurve" smooth="yes"/>
      <point x="855" y="1008" type="line" smooth="yes"/>
      <point x="747.847" y="1008"/>
      <point x="619.485" y="953.35"/>
      <point x="581" y="896" type="qcurve"/>
      <point x="588" y="933" type="line" smooth="yes"/>
      <point x="602.337" y="1013.74"/>
      <point x="698.166" y="1083.96"/>
      <point x="794" y="1090" type="qcurve" smooth="yes"/>
      <point x="1174" y="1113" type="line" smooth="yes"/>
      <point x="1268.5" y="1118.62"/>
      <point x="1390.16" y="1158.19"/>
      <point x="1466.09" y="1232.81"/>
      <point x="1507.12" y="1345.88"/>
      <point x="1521" y="1425" type="qcurve" smooth="yes"/>
      <point x="1538" y="1522" type="line"/>
    </contour>
    <contour>
      <point x="570" y="352" type="line"/>
      <point x="570" y="352"/>
      <point x="570" y="352"/>
      <point x="570" y="352" type="qcurve"/>
      <point x="622" y="646" type="line"/>
      <point x="622" y="646"/>
      <point x="622" y="646"/>
      <point x="622" y="646" type="qcurve"/>
      <point x="914" y="646" type="line"/>
      <point x="914" y="646"/>
      <point x="914" y="646"/>
      <point x="914" y="646" type="qcurve"/>
      <point x="862" y="352" type="line"/>
      <point x="862" y="352"/>
      <point x="862" y="352"/>
      <point x="862" y="352" type="qcurve"/>
    </contour>
  </outline>
</glyph>
<glyph name="uni0432" format="2">
  <advance width="1640"/>
  <unicode hex="0432"/>
  <outline>
    <contour>
      <point x="3" y="0" type="line"/>
      <point x="1061" y="0" type="line" smooth="yes"/>
      <point x="1240.59" y="0"/>
      <point x="1429.61" y="131.436"/>
      <point x="1453" y="265" type="qcurve"/>
      <point x="1457" y="285" type="line"/>
      <point x="1471.34" y="368.761"/>
      <point x="1403.2" y="489.589"/>
      <point x="1330" y="516" type="qcurve"/>
      <point x="1403.2" y="543.166"/>
      <point x="1501.42" y="656.522"/>
      <point x="1515" y="735" type="qcurve"/>
      <point x="1519" y="755" type="line" smooth="yes"/>
      <point x="1542.39" y="889.319"/>
      <point x="1394.29" y="1024"/>
      <point x="1223" y="1024" type="qcurve" smooth="yes"/>
      <point x="182" y="1024" type="line"/>
    </contour>
    <contour>
      <point x="577" y="285" type="line"/>
      <point x="594" y="383" type="line"/>
      <point x="901" y="383" type="line" smooth="yes"/>
      <point x="928.92" y="383"/>
      <point x="952.018" y="362.374"/>
      <point x="949" y="342" type="qcurve"/>
      <point x="946" y="327" type="line" smooth="yes"/>
      <point x="942.227" y="305.871"/>
      <point x="911.92" y="285"/>
      <point x="884" y="285" type="qcurve" smooth="yes"/>
    </contour>
    <contour>
      <point x="639" y="641" type="line"/>
      <point x="656" y="739" type="line"/>
      <point x="956" y="739" type="line" smooth="yes"/>
      <point x="986.184" y="739"/>
      <point x="1011.77" y="718.129"/>
      <point x="1008" y="697" type="qcurve"/>
      <point x="1005" y="682" type="line" smooth="yes"/>
      <point x="1001.23" y="661.626"/>
      <point x="969.92" y="641"/>
      <point x="942" y="641" type="qcurve" smooth="yes"/>
    </contour>
  </outline>
</glyph>
<glyph name="uni0433" format="2">
  <advance width="1234"/>
  <unicode hex="0433"/>
  <anchor x="742" y="1150" name="top"/>
  <outline>
    <contour>
      <point x="3" y="0" type="line"/>
      <point x="527" y="0" type="line"/>
      <point x="634" y="612" type="line"/>
      <point x="1185" y="612" type="line"/>
      <point x="1257" y="1024" type="line"/>
      <point x="182" y="1024" type="line"/>
    </contour>
  </outline>
</glyph>
<glyph name="uni0434" format="2">
  <advance width="1665"/>
  <unicode hex="0434"/>
  <outline>
    <contour>
      <point x="-138" y="-260" type="line"/>
      <point x="244" y="-260" type="line"/>
      <point x="315" y="0" type="line"/>
      <point x="1110" y="0" type="line"/>
      <point x="1091" y="-260" type="line"/>
      <point x="1473" y="-260" type="line"/>
      <point x="1585" y="382" type="line"/>
      <point x="1401" y="382" type="line"/>
      <point x="1262" y="1024" type="line"/>
      <point x="521" y="1024" type="line"/>
      <point x="158" y="382" type="line"/>
      <point x="-26" y="382" type="line"/>
    </contour>
    <contour>
      <point x="625" y="352" type="line"/>
      <point x="828" y="741" type="line"/>
      <point x="894" y="352" type="line"/>
    </contour>
  </outline>
</glyph>
<glyph name="uni0439" format="2">
  <advance width="1583"/>
  <unicode hex="0439"/>
  <anchor x="941" y="1537" name="top"/>
  <outline>
    <contour>
      <point x="3" y="0" type="line"/>
      <point x="457" y="0" type="line"/>
      <point x="892" y="422" type="line"/>
      <point x="818" y="0" type="line"/>
      <point x="1342" y="0" type="line"/>
      <point x="1521" y="1024" type="line"/>
      <point x="1067" y="1024" type="line"/>
      <point x="632" y="604" type="line"/>
      <point x="706" y="1024" type="line"/>
      <point x="182" y="1024" type="line"/>
    </contour>
    <contour>
      <point x="880" y="1075" type="qcurve" smooth="yes"/>
      <point x="1006.38" y="1075"/>
      <point x="1156.62" y="1113.59"/>
      <point x="1242.88" y="1199.66"/>
      <point x="1284.38" y="1337.62"/>
      <point x="1302" y="1437" type="qcurve"/>
      <point x="1037" y="1437" type="line"/>
      <point x="1030.62" y="1401"/>
      <point x="1012.97" y="1351.38"/>
      <point x="982.781" y="1320.62"/>
      <point x="936.25" y="1307"/>
      <point x="901" y="1307" type="qcurve" smooth="yes"/>
      <point x="864.625" y="1307"/>
      <point x="822" y="1320.62"/>
      <point x="802.5" y="1351.38"/>
      <point x="802.625" y="1401"/>
      <point x="809" y="1437" type="qcurve"/>
      <point x="544" y="1437" type="line"/>
      <point x="526.375" y="1337.62"/>
      <point x="532.188" y="1199.66"/>
      <point x="603.812" y="1113.59"/>
      <point x="753.625" y="1075"/>
    </contour>
  </outline>
</glyph>
<glyph name="uni043B" format="2">
  <advance width="1533"/>
  <unicode hex="043B"/>
  <outline>
    <contour>
      <point x="-114" y="0" type="line"/>
      <point x="386" y="0" type="line"/>
      <point x="745" y="649" type="line"/>
      <point x="877" y="0" type="line"/>
      <point x="1407" y="0" type="line"/>
      <point x="1155" y="1024" type="line"/>
      <point x="494" y="1024" type="line"/>
    </contour>
  </outline>
</glyph>
<glyph name="uni043D" format="2">
  <advance width="1510"/>
  <unicode hex="043D"/>
  <outline>
    <contour>
      <point x="3" y="0" type="line"/>
      <point x="527" y="0" type="line"/>
      <point x="587" y="341" type="line"/>
      <point x="805" y="341" type="line"/>
      <point x="745" y="0" type="line"/>
      <point x="1269" y="0" type="line"/>
      <point x="1448" y="1024" type="line"/>
      <point x="924" y="1024" type="line"/>
      <point x="871" y="723" type="line"/>
      <point x="653" y="723" type="line"/>
      <point x="706" y="1024" type="line"/>
      <point x="182" y="1024" type="line"/>
    </contour>
  </outline>
  <guideline angle="0" color="1,0,0,1" x="0" y="199"/>
</glyph>
<glyph name="uni0444" format="2">
  <advance width="2266"/>
  <unicode hex="0444"/>
  <outline>
    <contour>
      <point x="299" y="-10" type="qcurve" smooth="yes"/>
      <point x="477" y="-10" type="line" smooth="yes"/>
      <point x="584.153" y="-10"/>
      <point x="729.497" y="44.6504"/>
      <point x="771" y="102" type="qcurve"/>
      <point x="678" y="-428" type="line"/>
      <point x="1200" y="-428" type="line"/>
      <point x="1273" y="-10" type="line"/>
      <point x="1725" y="-10" type="line" smooth="yes"/>
      <point x="1884.98" y="-10"/>
      <point x="2052.61" y="112.7"/>
      <point x="2076" y="244" type="qcurve" smooth="yes"/>
      <point x="2167" y="770" type="line" smooth="yes"/>
      <point x="2191.9" y="908.846"/>
      <point x="2068.48" y="1034"/>
      <point x="1907" y="1034" type="qcurve" smooth="yes"/>
      <point x="1729" y="1034" type="line" smooth="yes"/>
      <point x="1621.85" y="1034"/>
      <point x="1477.5" y="979.595"/>
      <point x="1436" y="923" type="qcurve"/>
      <point x="1519" y="1400" type="line"/>
      <point x="997" y="1400" type="line"/>
      <point x="933" y="1034" type="line"/>
      <point x="481" y="1034" type="line" smooth="yes"/>
      <point x="321.025" y="1034"/>
      <point x="154.393" y="911.3"/>
      <point x="131" y="780" type="qcurve" smooth="yes"/>
      <point x="39" y="254" type="line" smooth="yes"/>
      <point x="14.8528" y="115.154"/>
      <point x="137.516" y="-10"/>
    </contour>
    <contour>
      <point x="814" y="350" type="line"/>
      <point x="580" y="350" type="line"/>
      <point x="580" y="350"/>
      <point x="580" y="350"/>
      <point x="580" y="350" type="qcurve"/>
      <point x="637" y="674" type="line"/>
      <point x="637" y="674"/>
      <point x="637" y="674"/>
      <point x="637" y="674" type="qcurve"/>
      <point x="871" y="674" type="line"/>
    </contour>
    <contour>
      <point x="1336" y="350" type="line"/>
      <point x="1393" y="674" type="line"/>
      <point x="1626" y="674" type="line"/>
      <point x="1626" y="674"/>
      <point x="1626.25" y="674"/>
      <point x="1627" y="674" type="qcurve"/>
      <point x="1570" y="350" type="line"/>
      <point x="1570" y="350"/>
      <point x="1570" y="350"/>
      <point x="1570" y="350" type="qcurve"/>
    </contour>
  </outline>
  <guideline angle="260.1" color="1,0,0,1" x="1930.68" y="0"/>
  <guideline angle="260.1" color="1,0,0,1" x="1013.68" y="0"/>
</glyph>
<glyph name="uni044B" format="2">
  <advance width="2403"/>
  <unicode hex="044B"/>
  <anchor x="1284" y="1150" name="top"/>
  <outline>
    <contour>
      <point x="3" y="0" type="line"/>
      <point x="1064" y="0" type="line" smooth="yes"/>
      <point x="1223.98" y="0"/>
      <point x="1386.64" y="94.1474"/>
      <point x="1404" y="193" type="qcurve" smooth="yes"/>
      <point x="1475" y="604" type="line" smooth="yes"/>
      <point x="1492.36" y="702.853"/>
      <point x="1362.98" y="797"/>
      <point x="1203" y="797" type="qcurve" smooth="yes"/>
      <point x="940" y="797" type="line" smooth="yes"/>
      <point x="832.847" y="797"/>
      <point x="692.748" y="758.748"/>
      <point x="652" y="718" type="qcurve"/>
      <point x="706" y="1024" type="line"/>
      <point x="182" y="1024" type="line"/>
    </contour>
    <contour>
      <point x="581" y="312" type="line"/>
      <point x="612" y="485" type="line"/>
      <point x="931" y="485" type="line"/>
      <point x="931" y="485"/>
      <point x="931" y="485"/>
      <point x="931" y="485" type="qcurve"/>
      <point x="900" y="312" type="line"/>
      <point x="900" y="312"/>
      <point x="900" y="312"/>
      <point x="900" y="312" type="qcurve"/>
    </contour>
    <contour>
      <point x="1638" y="0" type="line"/>
      <point x="2162" y="0" type="line"/>
      <point x="2341" y="1024" type="line"/>
      <point x="1817" y="1024" type="line"/>
    </contour>
  </outline>
  <guideline angle="260.1" color="1,0,0,1" x="1475" y="604"/>
</glyph>
<glyph name="uni045C" format="2">
  <advance width="1697"/>
  <unicode hex="045C"/>
  <anchor x="983" y="1150" name="top"/>
  <outline>
    <contour>
      <point x="10" y="0" type="line"/>
      <point x="534" y="0" type="line"/>
      <point x="606" y="410" type="line"/>
      <point x="931" y="0" type="line"/>
      <point x="1665" y="0" type="line"/>
      <point x="1183" y="569" type="line"/>
      <point x="1721" y="1024" type="line"/>
      <point x="1113" y="1024" type="line"/>
      <point x="642" y="618" type="line"/>
      <point x="713" y="1024" type="line"/>
      <point x="189" y="1024" type="line"/>
    </contour>
    <contour>
      <point x="637" y="1076" type="line"/>
      <point x="1137" y="1076" type="line"/>
      <point x="1602" y="1424" type="line"/>
      <point x="1001" y="1424" type="line"/>
    </contour>
  </outline>
</glyph>
<glyph name="uni046A" format="2">
  <advance width="2417"/>
  <unicode hex="046A"/>
  <outline>
    <contour>
      <point x="59" y="0" type="line"/>
      <point x="616" y="0" type="line"/>
      <point x="679" y="363" type="line" smooth="yes"/>
      <point x="684.282" y="390.166"/>
      <point x="724.798" y="423"/>
      <point x="758" y="423" type="qcurve" smooth="yes"/>
      <point x="877" y="423" type="line"/>
      <point x="803" y="0" type="line"/>
      <point x="1375" y="0" type="line"/>
      <point x="1449" y="423" type="line"/>
      <point x="1569" y="423" type="line" smooth="yes"/>
      <point x="1602.2" y="423"/>
      <point x="1631.28" y="390.166"/>
      <point x="1626" y="363" type="qcurve"/>
      <point x="1563" y="0" type="line"/>
      <point x="2119" y="0" type="line"/>
      <point x="2203" y="481" type="line" smooth="yes"/>
      <point x="2220.62" y="581.5"/>
      <point x="2184.66" y="711"/>
      <point x="2089.59" y="786"/>
      <point x="1941.5" y="815"/>
      <point x="1847" y="815" type="qcurve" smooth="yes"/>
      <point x="1789" y="815" type="line"/>
      <point x="2194" y="1228" type="line"/>
      <point x="2224" y="1400" type="line"/>
      <point x="444" y="1400" type="line"/>
      <point x="414" y="1228" type="line"/>
      <point x="680" y="815" type="line"/>
      <point x="616" y="815" type="line" smooth="yes"/>
      <point x="521.5" y="815"/>
      <point x="363.281" y="786"/>
      <point x="241.969" y="711"/>
      <point x="160.625" y="581.5"/>
      <point x="143" y="481" type="qcurve" smooth="yes"/>
    </contour>
    <contour>
      <point x="1226" y="822" type="line"/>
      <point x="1090" y="1038" type="line"/>
      <point x="1437" y="1038" type="line"/>
    </contour>
  </outline>
</glyph>
<glyph name="uni0491" format="2">
  <advance width="1234"/>
  <unicode hex="0491"/>
  <outline>
    <contour>
      <point x="3" y="0" type="line"/>
      <point x="527" y="0" type="line"/>
      <point x="634" y="612" type="line"/>
      <point x="1185" y="612" type="line"/>
      <point x="1290" y="1212" type="line"/>
      <point x="816" y="1212" type="line"/>
      <point x="758" y="1024" type="line"/>
      <point x="182" y="1024" type="line"/>
    </contour>
  </outline>
</glyph>
<glyph name="uni0492" format="2">
  <advance width="1582"/>
  <unicode hex="0492"/>
  <outline>
    <contour>
      <point x="129" y="0" type="line"/>
      <point x="701" y="0" type="line"/>
      <point x="790" y="510" type="line"/>
      <point x="1007" y="510" type="line"/>
      <point x="1061" y="822" type="line"/>
      <point x="844" y="822" type="line"/>
      <point x="861" y="916" type="line"/>
      <point x="1573" y="916" type="line"/>
      <point x="1657" y="1400" type="line"/>
      <point x="373" y="1400" type="line"/>
      <point x="272" y="822" type="line"/>
      <point x="153" y="822" type="line"/>
      <point x="99" y="510" type="line"/>
      <point x="218" y="510" type="line"/>
    </contour>
  </outline>
</glyph>
<glyph name="uni0498" format="2">
  <advance width="1741"/>
  <unicode hex="0498"/>
  <anchor x="870" y="1550" name="top"/>
  <anchor x="856" y="0" name="ogonek"/>
  <outline>
    <contour>
      <point x="71" y="418" type="line"/>
      <point x="54" y="320" type="line" smooth="yes"/>
      <point x="26.0798" y="160.025"/>
      <point x="168.215" y="0"/>
      <point x="338" y="0" type="qcurve" smooth="yes"/>
      <point x="1172" y="0" type="line" smooth="yes"/>
      <point x="1265" y="0"/>
      <point x="1402" y="35.7812"/>
      <point x="1498" y="113.969"/>
      <point x="1557" y="237.875"/>
      <point x="1572" y="326" type="qcurve" smooth="yes"/>
      <point x="1583" y="390" type="line" smooth="yes"/>
      <point x="1605.64" y="523.564"/>
      <point x="1541.38" y="663.252"/>
      <point x="1438" y="704" type="qcurve"/>
      <point x="1545.15" y="741.73"/>
      <point x="1652.89" y="865.111"/>
      <point x="1671" y="970" type="qcurve" smooth="yes"/>
      <point x="1682" y="1034" type="line" smooth="yes"/>
      <point x="1697.75" y="1124.75"/>
      <point x="1678.62" y="1261.81"/>
      <point x="1608.88" y="1353.69"/>
      <point x="1488.5" y="1400"/>
      <point x="1403" y="1400" type="qcurve" smooth="yes"/>
      <point x="582" y="1400" type="line" smooth="yes"/>
      <point x="487.875" y="1400"/>
      <point x="353.062" y="1367.59"/>
      <point x="260.438" y="1294.66"/>
      <point x="204.375" y="1177.12"/>
      <point x="189" y="1092" type="qcurve" smooth="yes"/>
      <point x="166" y="964" type="line"/>
      <point x="608" y="880" type="line"/>
      <point x="633" y="1028" type="line"/>
      <point x="633" y="1028"/>
      <point x="633" y="1028"/>
      <point x="633" y="1028" type="qcurve"/>
      <point x="1095" y="1028" type="line" smooth="yes"/>
      <point x="1120.66" y="1028"/>
      <point x="1143.04" y="998.184"/>
      <point x="1137" y="968" type="qcurve" smooth="yes"/>
      <point x="1133" y="948" type="line" smooth="yes"/>
      <point x="1126.96" y="918.571"/>
      <point x="1096.66" y="888"/>
      <point x="1071" y="888" type="qcurve" smooth="yes"/>
      <point x="662" y="888" type="line"/>
      <point x="597" y="516" type="line"/>
      <point x="1000" y="516" type="line" smooth="yes"/>
      <point x="1025.66" y="516"/>
      <point x="1048.04" y="485.429"/>
      <point x="1042" y="456" type="qcurve" smooth="yes"/>
      <point x="1038" y="436" type="line" smooth="yes"/>
      <point x="1031.21" y="402.798"/>
      <point x="1004.67" y="376"/>
      <point x="976" y="376" type="qcurve" smooth="yes"/>
      <point x="520" y="376" type="line"/>
      <point x="520" y="376"/>
      <point x="520" y="376"/>
      <point x="520" y="376" type="qcurve"/>
      <point x="542" y="502" type="line"/>
    </contour>
    <contour>
      <point x="671.684" y="-438" type="qcurve" smooth="yes"/>
      <point x="835.244" y="-438"/>
      <point x="993.766" y="-326.028"/>
      <point x="974.596" y="-218.488" type="qcurve" smooth="yes"/>
      <point x="962.827" y="-152.47"/>
      <point x="872.215" y="-36.9754"/>
      <point x="796" y="0" type="qcurve"/>
      <point x="424" y="0" type="line"/>
      <point x="491.914" y="0"/>
      <point x="576.252" y="-42.2635"/>
      <point x="583.179" y="-79.9735" type="qcurve" smooth="yes"/>
      <point x="589.835" y="-116.214"/>
      <point x="526.864" y="-157"/>
      <point x="464.947" y="-157" type="qcurve" smooth="yes"/>
      <point x="418.956" y="-157"/>
      <point x="312.822" y="-136.092"/>
      <point x="260" y="-121" type="qcurve"/>
      <point x="356" y="-376" type="line"/>
      <point x="426.932" y="-404.675"/>
      <point x="582.453" y="-438"/>
    </contour>
  </outline>
</glyph>
<glyph name="uni04A0" format="2">
  <advance width="2352"/>
  <unicode hex="04A0"/>
  <outline>
    <contour>
      <point x="391" y="0" type="line"/>
      <point x="963" y="0" type="line"/>
      <point x="1065" y="582" type="line"/>
      <point x="1468" y="0" type="line"/>
      <point x="2232" y="0" type="line"/>
      <point x="1675" y="754" type="line"/>
      <point x="2358" y="1400" type="line"/>
      <point x="1713" y="1400" type="line"/>
      <point x="1104" y="808" type="line"/>
      <point x="1207" y="1400" type="line"/>
      <point x="177" y="1400" type="line"/>
      <point x="100" y="956" type="line"/>
      <point x="558" y="956" type="line"/>
    </contour>
  </outline>
  <guideline angle="260.1" color="1,0,0,1" x="1206.86" y="1400"/>
</glyph>
<glyph name="uni04AB" format="2">
  <advance width="1379"/>
  <unicode hex="04AB"/>
  <anchor x="777" y="1174" name="top"/>
  <anchor x="546" y="-150" name="bottom"/>
  <outline>
    <contour>
      <point x="40" y="260" type="line" smooth="yes"/>
      <point x="15.0982" y="113.608"/>
      <point x="138.914" y="-10"/>
      <point x="317" y="-10" type="qcurve" smooth="yes"/>
      <point x="1003" y="-10" type="line" smooth="yes"/>
      <point x="1181.09" y="-10"/>
      <point x="1349.1" y="113.608"/>
      <point x="1374" y="260" type="qcurve" smooth="yes"/>
      <point x="1391" y="356" type="line"/>
      <point x="886" y="464" type="line"/>
      <point x="870" y="372" type="line"/>
      <point x="870" y="372"/>
      <point x="870" y="372"/>
      <point x="870" y="372" type="qcurve"/>
      <point x="584" y="372" type="line"/>
      <point x="584" y="372"/>
      <point x="584" y="372"/>
      <point x="584" y="372" type="qcurve"/>
      <point x="633" y="652" type="line"/>
      <point x="633" y="652"/>
      <point x="633" y="652"/>
      <point x="633" y="652" type="qcurve"/>
      <point x="915" y="652" type="line"/>
      <point x="915" y="652"/>
      <point x="915" y="652"/>
      <point x="915" y="652" type="qcurve"/>
      <point x="899" y="562" type="line"/>
      <point x="1440" y="660" type="line"/>
      <point x="1461" y="778" type="line" smooth="yes"/>
      <point x="1485.15" y="916.846"/>
      <point x="1358.07" y="1034"/>
      <point x="1183" y="1034" type="qcurve" smooth="yes"/>
      <point x="501" y="1034" type="line" smooth="yes"/>
      <point x="325.933" y="1034"/>
      <point x="154.902" y="914.356"/>
      <point x="130" y="774" type="qcurve" smooth="yes"/>
    </contour>
    <contour>
      <point x="584.684" y="-438" type="qcurve" smooth="yes"/>
      <point x="748.244" y="-438"/>
      <point x="906.766" y="-326.028"/>
      <point x="887.596" y="-218.488" type="qcurve" smooth="yes"/>
      <point x="875.827" y="-152.47"/>
      <point x="785.215" y="-36.9754"/>
      <point x="709" y="0" type="qcurve"/>
      <point x="337" y="0" type="line"/>
      <point x="404.914" y="0"/>
      <point x="489.252" y="-42.2635"/>
      <point x="496.179" y="-79.9735" type="qcurve" smooth="yes"/>
      <point x="502.835" y="-116.214"/>
      <point x="439.864" y="-157"/>
      <point x="377.947" y="-157" type="qcurve" smooth="yes"/>
      <point x="331.956" y="-157"/>
      <point x="225.822" y="-136.092"/>
      <point x="173" y="-121" type="qcurve"/>
      <point x="269" y="-376" type="line"/>
      <point x="339.932" y="-404.675"/>
      <point x="495.453" y="-438"/>
    </contour>
  </outline>
</glyph>
<glyph name="uni04BA" format="2">
  <advance width="1983"/>
  <unicode hex="04BA"/>
  <anchor x="935" y="-150" name="top"/>
  <outline>
    <contour>
      <point x="877" y="1400" type="line"/>
      <point x="305" y="1400" type="line"/>
      <point x="61" y="0" type="line"/>
      <point x="633" y="0" type="line"/>
      <point x="729" y="552" type="line"/>
      <point x="1209" y="552" type="line"/>
      <point x="1209" y="552"/>
      <point x="1209" y="552"/>
      <point x="1209" y="552" type="qcurve"/>
      <point x="1113" y="0" type="line"/>
      <point x="1685" y="0" type="line"/>
      <point x="1798" y="648" type="line" smooth="yes"/>
      <point x="1816.38" y="753.75"/>
      <point x="1783.66" y="887.688"/>
      <point x="1691.59" y="963.812"/>
      <point x="1545.25" y="992"/>
      <point x="1450" y="992" type="qcurve" smooth="yes"/>
      <point x="806" y="992" type="line"/>
    </contour>
  </outline>
</glyph>
<glyph name="uni04C2" format="2">
  <advance width="2711"/>
  <unicode hex="04C2"/>
  <anchor x="1506" y="1537" name="top"/>
  <outline>
    <contour>
      <point x="-114" y="0" type="line"/>
      <point x="606" y="0" type="line"/>
      <point x="1042" y="395" type="line"/>
      <point x="973" y="0" type="line"/>
      <point x="1497" y="0" type="line"/>
      <point x="1566" y="396" type="line"/>
      <point x="1865" y="0" type="line"/>
      <point x="2585" y="0" type="line"/>
      <point x="2120" y="558" type="line"/>
      <point x="2696" y="1024" type="line"/>
      <point x="2082" y="1024" type="line"/>
      <point x="1606" y="624" type="line"/>
      <point x="1676" y="1024" type="line"/>
      <point x="1152" y="1024" type="line"/>
      <point x="1082" y="625" type="line"/>
      <point x="747" y="1024" type="line"/>
      <point x="133" y="1024" type="line"/>
      <point x="545" y="558" type="line"/>
    </contour>
    <contour>
      <point x="1445" y="1075" type="qcurve" smooth="yes"/>
      <point x="1571.38" y="1075"/>
      <point x="1721.62" y="1113.59"/>
      <point x="1807.88" y="1199.66"/>
      <point x="1849.38" y="1337.62"/>
      <point x="1867" y="1437" type="qcurve"/>
      <point x="1602" y="1437" type="line"/>
      <point x="1595.62" y="1401"/>
      <point x="1577.97" y="1351.38"/>
      <point x="1547.78" y="1320.62"/>
      <point x="1501.25" y="1307"/>
      <point x="1466" y="1307" type="qcurve" smooth="yes"/>
      <point x="1429.62" y="1307"/>
      <point x="1387" y="1320.62"/>
      <point x="1367.5" y="1351.38"/>
      <point x="1367.62" y="1401"/>
      <point x="1374" y="1437" type="qcurve"/>
      <point x="1109" y="1437" type="line"/>
      <point x="1091.38" y="1337.62"/>
      <point x="1097.19" y="1199.66"/>
      <point x="1168.81" y="1113.59"/>
      <point x="1318.62" y="1075"/>
    </contour>
  </outline>
</glyph>
<glyph name="uni04CF" format="2">
  <advance width="606"/>
  <unicode hex="04CF"/>
  <anchor x="463" y="1598" name="top"/>
  <anchor x="158" y="-150" name="bottom"/>
  <anchor x="703" y="1472" name="right"/>
  <anchor x="698" y="700" name="eldot"/>
  <outline>
    <contour>
      <point x="-77" y="0" type="line"/>
      <point x="447" y="0" type="line"/>
      <point x="704" y="1472" type="line"/>
      <point x="180" y="1472" type="line"/>
    </contour>
  </outline>
</glyph>
<glyph name="uni04D7" format="2">
  <advance width="1560"/>
  <unicode hex="04D7"/>
  <anchor x="933" y="1561" name="top"/>
  <anchor x="634" y="-150" name="bottom"/>
  <anchor x="907" y="-10" name="ogonek"/>
  <outline>
    <contour>
      <point x="47" y="300" type="line" smooth="yes"/>
      <point x="19.0798" y="137.006"/>
      <point x="173.675" y="-10"/>
      <point x="391" y="-10" type="qcurve" smooth="yes"/>
      <point x="907" y="-10" type="line" smooth="yes"/>
      <point x="1124.32" y="-10"/>
      <point x="1347.34" y="115.08"/>
      <point x="1373" y="266" type="qcurve"/>
      <point x="1376" y="280" type="line"/>
      <point x="867" y="368" type="line"/>
      <point x="854" y="292" type="line"/>
      <point x="854" y="292"/>
      <point x="854" y="292"/>
      <point x="854" y="292" type="qcurve"/>
      <point x="570" y="292" type="line"/>
      <point x="570" y="292"/>
      <point x="570" y="292"/>
      <point x="570" y="292" type="qcurve"/>
      <point x="590" y="404" type="line"/>
      <point x="1398" y="404" type="line"/>
      <point x="1455" y="734" type="line" smooth="yes"/>
      <point x="1482.92" y="892.466"/>
      <point x="1306.32" y="1034"/>
      <point x="1089" y="1034" type="qcurve" smooth="yes"/>
      <point x="573" y="1034" type="line" smooth="yes"/>
      <point x="357.184" y="1034"/>
      <point x="150.166" y="890.957"/>
      <point x="123" y="734" type="qcurve" smooth="yes"/>
    </contour>
    <contour>
      <point x="629" y="628" type="line"/>
      <point x="647" y="732" type="line"/>
      <point x="647" y="732"/>
      <point x="647" y="732"/>
      <point x="647" y="732" type="qcurve"/>
      <point x="931" y="732" type="line"/>
      <point x="931" y="732"/>
      <point x="931" y="732"/>
      <point x="931" y="732" type="qcurve"/>
      <point x="913" y="628" type="line"/>
    </contour>
    <contour>
      <point x="872" y="1099" type="qcurve" smooth="yes"/>
      <point x="998.375" y="1099"/>
      <point x="1148.62" y="1137.59"/>
      <point x="1234.88" y="1223.66"/>
      <point x="1276.38" y="1361.62"/>
      <point x="1294" y="1461" type="qcurve"/>
      <point x="1029" y="1461" type="line"/>
      <point x="1022.62" y="1425"/>
      <point x="1004.97" y="1375.38"/>
      <point x="974.781" y="1344.62"/>
      <point x="928.25" y="1331"/>
      <point x="893" y="1331" type="qcurve" smooth="yes"/>
      <point x="856.625" y="1331"/>
      <point x="814" y="1344.62"/>
      <point x="794.5" y="1375.38"/>
      <point x="794.625" y="1425"/>
      <point x="801" y="1461" type="qcurve"/>
      <point x="536" y="1461" type="line"/>
      <point x="518.375" y="1361.62"/>
      <point x="524.188" y="1223.66"/>
      <point x="595.812" y="1137.59"/>
      <point x="745.625" y="1099"/>
    </contour>
  </outline>
  <guideline angle="0" color="1,0,0,1" x="0" y="-1034"/>
</glyph>
<glyph name="uni04E4" format="2">
  <advance width="2073"/>
  <unicode hex="04E4"/>
  <anchor x="801" y="-150" name="bottom"/>
  <anchor x="1163" y="1918" name="top"/>
  <outline>
    <contour>
      <point x="61" y="0" type="line"/>
      <point x="525" y="0" type="line"/>
      <point x="1319" y="667" type="line"/>
      <point x="1203" y="0" type="line"/>
      <point x="1775" y="0" type="line"/>
      <point x="2019" y="1400" type="line"/>
      <point x="1555" y="1400" type="line"/>
      <point x="761" y="733" type="line"/>
      <point x="877" y="1400" type="line"/>
      <point x="305" y="1400" type="line"/>
    </contour>
    <contour>
      <point x="751" y="1488" type="qcurve" smooth="yes"/>
      <point x="893" y="1488" type="line" smooth="yes"/>
      <point x="974.497" y="1488"/>
      <point x="1007.66" y="1516.5"/>
      <point x="1022" y="1598" type="qcurve" smooth="yes"/>
      <point x="1044" y="1720" type="line" smooth="yes"/>
      <point x="1057.58" y="1799.99"/>
      <point x="1034.5" y="1828"/>
      <point x="953" y="1828" type="qcurve" smooth="yes"/>
      <point x="811" y="1828" type="line" smooth="yes"/>
      <point x="729.503" y="1828"/>
      <point x="695.583" y="1799.99"/>
      <point x="682" y="1720" type="qcurve" smooth="yes"/>
      <point x="660" y="1598" type="line" smooth="yes"/>
      <point x="645.663" y="1516.5"/>
      <point x="669.503" y="1488"/>
    </contour>
    <contour>
      <point x="1281" y="1488" type="qcurve" smooth="yes"/>
      <point x="1423" y="1488" type="line" smooth="yes"/>
      <point x="1504.5" y="1488"/>
      <point x="1537.66" y="1516.5"/>
      <point x="1552" y="1598" type="qcurve" smooth="yes"/>
      <point x="1574" y="1720" type="line" smooth="yes"/>
      <point x="1587.58" y="1799.99"/>
      <point x="1564.5" y="1828"/>
      <point x="1483" y="1828" type="qcurve" smooth="yes"/>
      <point x="1341" y="1828" type="line" smooth="yes"/>
      <point x="1259.5" y="1828"/>
      <point x="1225.58" y="1799.99"/>
      <point x="1212" y="1720" type="qcurve" smooth="yes"/>
      <point x="1190" y="1598" type="line" smooth="yes"/>
      <point x="1175.66" y="1516.5"/>
      <point x="1199.5" y="1488"/>
    </contour>
  </outline>
</glyph>
<glyph name="uni04E5" format="2">
  <advance width="1407"/>
  <unicode hex="04E5"/>
  <anchor x="850" y="1518" name="top"/>
  <outline>
    <contour>
      <point x="3" y="0" type="line"/>
      <point x="457" y="0" type="line"/>
      <point x="892" y="422" type="line"/>
      <point x="818" y="0" type="line"/>
      <point x="1342" y="0" type="line"/>
      <point x="1521" y="1024" type="line"/>
      <point x="1067" y="1024" type="line"/>
      <point x="632" y="604" type="line"/>
      <point x="706" y="1024" type="line"/>
      <point x="182" y="1024" type="line"/>
    </contour>
    <contour>
      <point x="438" y="1088" type="qcurve" smooth="yes"/>
      <point x="580" y="1088" type="line" smooth="yes"/>
      <point x="661.497" y="1088"/>
      <point x="694.663" y="1116.5"/>
      <point x="709" y="1198" type="qcurve" smooth="yes"/>
      <point x="731" y="1320" type="line" smooth="yes"/>
      <point x="744.583" y="1399.99"/>
      <point x="721.497" y="1428"/>
      <point x="640" y="1428" type="qcurve" smooth="yes"/>
      <point x="498" y="1428" type="line" smooth="yes"/>
      <point x="416.503" y="1428"/>
      <point x="382.583" y="1399.99"/>
      <point x="369" y="1320" type="qcurve" smooth="yes"/>
      <point x="347" y="1198" type="line" smooth="yes"/>
      <point x="332.663" y="1116.5"/>
      <point x="356.503" y="1088"/>
    </contour>
    <contour>
      <point x="968" y="1088" type="qcurve" smooth="yes"/>
      <point x="1110" y="1088" type="line" smooth="yes"/>
      <point x="1191.5" y="1088"/>
      <point x="1224.66" y="1116.5"/>
      <point x="1239" y="1198" type="qcurve" smooth="yes"/>
      <point x="1261" y="1320" type="line" smooth="yes"/>
      <point x="1274.58" y="1399.99"/>
      <point x="1251.5" y="1428"/>
      <point x="1170" y="1428" type="qcurve" smooth="yes"/>
      <point x="1028" y="1428" type="line" smooth="yes"/>
      <point x="946.503" y="1428"/>
      <point x="912.583" y="1399.99"/>
      <point x="899" y="1320" type="qcurve" smooth="yes"/>
      <point x="877" y="1198" type="line" smooth="yes"/>
      <point x="862.663" y="1116.5"/>
      <point x="886.503" y="1088"/>
    </contour>
  </outline>
</glyph>
<glyph name="uni04E9" format="2">
  <advance width="1391"/>
  <unicode hex="04E9"/>
  <outline>
    <contour>
      <point x="299" y="-10" type="qcurve" smooth="yes"/>
      <point x="1027" y="-10" type="line" smooth="yes"/>
      <point x="1189.99" y="-10"/>
      <point x="1354.85" y="115.154"/>
      <point x="1379" y="254" type="qcurve" smooth="yes"/>
      <point x="1471" y="780" type="line" smooth="yes"/>
      <point x="1494.39" y="911.3"/>
      <point x="1368.98" y="1034"/>
      <point x="1209" y="1034" type="qcurve" smooth="yes"/>
      <point x="481" y="1034" type="line" smooth="yes"/>
      <point x="321.025" y="1034"/>
      <point x="154.393" y="911.3"/>
      <point x="131" y="780" type="qcurve" smooth="yes"/>
      <point x="39" y="254" type="line" smooth="yes"/>
      <point x="14.8528" y="115.154"/>
      <point x="137.516" y="-10"/>
    </contour>
    <contour>
      <point x="586" y="383" type="line"/>
      <point x="878" y="383" type="line"/>
      <point x="859" y="275" type="line"/>
      <point x="859" y="275"/>
      <point x="859" y="275"/>
      <point x="859" y="275" type="qcurve"/>
      <point x="567" y="275" type="line"/>
      <point x="567" y="275"/>
      <point x="567" y="275"/>
      <point x="567" y="275" type="qcurve"/>
    </contour>
    <contour>
      <point x="631" y="641" type="line"/>
      <point x="650" y="749" type="line"/>
      <point x="650" y="749"/>
      <point x="650" y="749"/>
      <point x="650" y="749" type="qcurve"/>
      <point x="942" y="749" type="line"/>
      <point x="942" y="749"/>
      <point x="942" y="749"/>
      <point x="942" y="749" type="qcurve"/>
      <point x="923" y="641" type="line"/>
    </contour>
  </outline>
</glyph>
<glyph name="uni04F1" format="2">
  <advance width="1463"/>
  <unicode hex="04F1"/>
  <anchor x="883" y="1542" name="top"/>
  <anchor x="1076" y="-100" name="bottom"/>
  <outline>
    <contour>
      <point x="-89" y="-428" type="line"/>
      <point x="168" y="-428" type="line" smooth="yes"/>
      <point x="296.25" y="-428"/>
      <point x="479.25" y="-393.688"/>
      <point x="623.25" y="-310.812"/>
      <point x="745.5" y="-172.25"/>
      <point x="813" y="-68" type="qcurve" smooth="yes"/>
      <point x="1527" y="1024" type="line"/>
      <point x="997" y="1024" type="line"/>
      <point x="724" y="601" type="line"/>
      <point x="597" y="1024" type="line"/>
      <point x="67" y="1024" type="line"/>
      <point x="381" y="65" type="line"/>
      <point x="285" y="-80" type="line"/>
      <point x="285" y="-80"/>
      <point x="285" y="-80"/>
      <point x="285" y="-80" type="qcurve"/>
      <point x="-100" y="-80" type="line"/>
    </contour>
    <contour>
      <point x="471" y="1112" type="qcurve" smooth="yes"/>
      <point x="613" y="1112" type="line" smooth="yes"/>
      <point x="694.497" y="1112"/>
      <point x="727.663" y="1140.5"/>
      <point x="742" y="1222" type="qcurve" smooth="yes"/>
      <point x="764" y="1344" type="line" smooth="yes"/>
      <point x="777.583" y="1423.99"/>
      <point x="754.497" y="1452"/>
      <point x="673" y="1452" type="qcurve" smooth="yes"/>
      <point x="531" y="1452" type="line" smooth="yes"/>
      <point x="449.503" y="1452"/>
      <point x="415.583" y="1423.99"/>
      <point x="402" y="1344" type="qcurve" smooth="yes"/>
      <point x="380" y="1222" type="line" smooth="yes"/>
      <point x="365.663" y="1140.5"/>
      <point x="389.503" y="1112"/>
    </contour>
    <contour>
      <point x="1001" y="1112" type="qcurve" smooth="yes"/>
      <point x="1143" y="1112" type="line" smooth="yes"/>
      <point x="1224.5" y="1112"/>
      <point x="1257.66" y="1140.5"/>
      <point x="1272" y="1222" type="qcurve" smooth="yes"/>
      <point x="1294" y="1344" type="line" smooth="yes"/>
      <point x="1307.58" y="1423.99"/>
      <point x="1284.5" y="1452"/>
      <point x="1203" y="1452" type="qcurve" smooth="yes"/>
      <point x="1061" y="1452" type="line" smooth="yes"/>
      <point x="979.503" y="1452"/>
      <point x="945.583" y="1423.99"/>
      <point x="932" y="1344" type="qcurve" smooth="yes"/>
      <point x="910" y="1222" type="line" smooth="yes"/>
      <point x="895.663" y="1140.5"/>
      <point x="919.503" y="1112"/>
    </contour>
  </outline>
</glyph>
<glyph name="uni04F3" format="2">
  <advance width="1463"/>
  <unicode hex="04F3"/>
  <anchor x="818" y="1174" name="top"/>
  <anchor x="1076" y="-100" name="bottom"/>
  <outline>
    <contour>
      <point x="-89" y="-428" type="line"/>
      <point x="168" y="-428" type="line" smooth="yes"/>
      <point x="296.25" y="-428"/>
      <point x="479.25" y="-393.688"/>
      <point x="623.25" y="-310.812"/>
      <point x="745.5" y="-172.25"/>
      <point x="813" y="-68" type="qcurve" smooth="yes"/>
      <point x="1527" y="1024" type="line"/>
      <point x="997" y="1024" type="line"/>
      <point x="724" y="601" type="line"/>
      <point x="597" y="1024" type="line"/>
      <point x="67" y="1024" type="line"/>
      <point x="381" y="65" type="line"/>
      <point x="285" y="-80" type="line"/>
      <point x="285" y="-80"/>
      <point x="285" y="-80"/>
      <point x="285" y="-80" type="qcurve"/>
      <point x="-100" y="-80" type="line"/>
    </contour>
    <contour>
      <point x="278.23" y="1100" type="line"/>
      <point x="678.23" y="1100" type="line"/>
      <point x="1062.51" y="1448" type="line"/>
      <point x="581.714" y="1448" type="line"/>
    </contour>
    <contour>
      <point x="886.23" y="1100" type="line"/>
      <point x="1286.23" y="1100" type="line"/>
      <point x="1670.51" y="1448" type="line"/>
      <point x="1189.71" y="1448" type="line"/>
    </contour>
  </outline>
</glyph>
